<?xml version="1.0" encoding="utf-8"?>
<svg xmlns="http://www.w3.org/2000/svg" xmlns:xlink="http://www.w3.org/1999/xlink">
    <symbol xmlns="http://www.w3.org/2000/svg" id="menu" viewBox="0 0 30 30">
         <path d="M7,9 L23,9 C23.5522847,9 24,9.44771525 24,10 C24,10.5522847 23.5522847,11 23,11 L7,11 C6.44771525,11 6,10.5522847 6,10 C6,9.44771525 6.44771525,9 7,9 Z M7,14 L15,14 C15.5522847,14 16,14.4477153 16,15 C16,15.5522847 15.5522847,16 15,16 L7,16 C6.44771525,16 6,15.5522847 6,15 C6,14.4477153 6.44771525,14 7,14 Z M7,19 L23,19 C23.5522847,19 24,19.4477153 24,20 C24,20.5522847 23.5522847,21 23,21 L7,21 C6.44771525,21 6,20.5522847 6,20 C6,19.4477153 6.44771525,19 7,19 Z"/>
    </symbol>
    <symbol xmlns="http://www.w3.org/2000/svg" id="location" viewBox="0 0 18 23">
          <path d="M9.01 0C4.048 0 0 4.048 0 9.03c0 .602.058 1.206.175 1.79 0 .038.02.077.02.136.992 4.456 7.978 11.15 8.27 11.422.156.156.35.214.545.214.194 0 .389-.077.545-.214.291-.292 7.238-6.966 8.23-11.325 0-.039.02-.078.02-.117A8.935 8.935 0 0 0 18 9.03C18.02 4.048 13.972 0 9.01 0zm7.239 10.644v.059c-.74 3.23-5.585 8.328-7.24 9.982-1.653-1.654-6.518-6.752-7.258-10.06 0-.04 0-.059-.02-.097a8.036 8.036 0 0 1-.155-1.518c0-4.087 3.328-7.434 7.414-7.434 4.087 0 7.434 3.328 7.434 7.434 0 .564-.059 1.109-.175 1.634zM9.009 5.08a3.019 3.019 0 0 0-3.016 3.016 3.031 3.031 0 0 0 3.017 3.016 3.019 3.019 0 0 0 3.016-3.016A3.006 3.006 0 0 0 9.01 5.08zm0 4.456c-.797 0-1.44-.642-1.44-1.44 0-.798.643-1.44 1.44-1.44.799 0 1.44.642 1.44 1.44 0 .798-.641 1.44-1.44 1.44z"/>
    </symbol>
    <symbol xmlns="http://www.w3.org/2000/svg" id="quotes" viewBox="0 0 50 38">
        <path d="M15.3846154,26.2 L13.7543269,26.2 C14.99375,24.075325 16.5451923,21.9155 17.8519231,20.395975 C19.9139423,17.99865 19.625,14.4029 17.1985577,12.363725 C16.1134615,11.448875 14.7836538,11 13.4615385,11 C11.83125,11 10.2163462,11.67735 9.07451923,12.998325 C7.55721154,14.75155 0,22.4 0,31.9 L0,41.4 C0,45.5971 3.44423077,49 7.69230769,49 L15.3846154,49 C19.6326923,49 23.0769231,45.5971 23.0769231,41.4 L23.0769231,33.8 C23.0769231,29.6029 19.6326923,26.2 15.3846154,26.2 Z M19.2307692,41.4 C19.2307692,43.49475 17.5067308,45.2 15.3846154,45.2 L7.69230769,45.2 C5.57403846,45.2 3.84615385,43.49475 3.84615385,41.4 L3.84615385,31.9 C3.84615385,24.561725 9.61538462,18.1307 11.5086538,16.01695 L12.0004808,15.46595 C12.5,14.8874 13.13125,14.8 13.4615385,14.8 C13.7807692,14.8 14.2576923,14.8798 14.7086538,15.258375 C15.5125,15.935725 15.6100962,17.13605 14.9192308,17.93595 C13.3942308,19.7115 11.7115385,22.0903 10.4230769,24.3019 C9.73557692,25.478475 9.73557692,26.925325 10.4269231,28.1019 C11.1100962,29.276575 12.3798077,30 13.7543269,30 L15.3846154,30 C17.5067308,30 19.2307692,31.70525 19.2307692,33.8 L19.2307692,41.4 Z M42.3076923,26.2 L40.6774038,26.2 C41.9168269,24.075325 43.4682692,21.9155 44.775,20.395975 C46.8370192,17.99865 46.5480769,14.4029 44.1216346,12.363725 C43.0365385,11.448875 41.7067308,11 40.3807692,11 C38.7543269,11 37.1355769,11.67735 35.9975962,12.998325 C34.4802885,14.75155 26.9230769,22.4 26.9230769,31.9 L26.9230769,41.4 C26.9230769,45.5971 30.3673077,49 34.6153846,49 L42.3076923,49 C46.5557692,49 50,45.5971 50,41.4 L50,33.8 C50,29.6029 46.5557692,26.2 42.3076923,26.2 Z M46.1538462,41.4 C46.1538462,43.49475 44.4298077,45.2 42.3076923,45.2 L34.6153846,45.2 C32.4932692,45.2 30.7692308,43.49475 30.7692308,41.4 L30.7692308,31.9 C30.7692308,24.556025 36.5384615,18.125 38.4350962,16.013625 L38.9235577,15.464525 C39.4230769,14.8874 40.0504808,14.8 40.3807692,14.8 C40.7038462,14.8 41.1807692,14.8798 41.6317308,15.258375 C42.4355769,15.935725 42.5331731,17.13605 41.8456731,17.93595 C40.3168269,19.7115 38.6341346,22.0903 37.3461538,24.3019 C36.6586538,25.478475 36.6586538,26.925325 37.3461538,28.1019 C38.0336538,29.276575 39.3028846,30 40.6778846,30 L42.3076923,30 C44.4298077,30 46.1538462,31.70525 46.1538462,33.8 L46.1538462,41.4 Z"/>
    </symbol>
    <symbol xmlns="http://www.w3.org/2000/svg" id="implant" viewBox="0 0 40 40">
        <path d="M29.085 6.211c-2.26-1.845-4.183-1.195-6.042-.565-.967.327-1.967.665-3.097.688-1.13-.023-2.13-.361-3.096-.688-1.86-.63-3.782-1.28-6.043.565-.98.8-1.763 2.13-2.27 3.823a23.716 23.716 0 0 0 0 10.035c.094.39.198.78.311 1.168.225.764.93 1.298 1.714 1.298h.52v.804c0 1.239.988 2.247 2.202 2.247h3.194l.092 1.566-.267.032a.931.931 0 0 0-.804 1.037.924.924 0 0 0 1.017.82l.165-.02.094 1.569-.472.056a.931.931 0 0 0-.804 1.038.924.924 0 0 0 1.017.82l.37-.044.015.267C16.977 34.002 18.017 35 19.27 35h1.356c1.251 0 2.291-.998 2.367-2.273l.06-1.003.686-.082a.931.931 0 0 0 .804-1.038.921.921 0 0 0-1.017-.82l-.361.043.094-1.59.48-.057a.931.931 0 0 0 .804-1.038.92.92 0 0 0-1.017-.82l-.155.019.045-.755h2.933c1.214 0 2.202-1.008 2.202-2.247v-.804h.78c.785 0 1.49-.534 1.714-1.298.968-3.295 1.21-6.72.684-9.64-.439-2.44-1.377-4.353-2.643-5.386zm-7.923 26.403a.544.544 0 0 1-.538.516h-1.356a.544.544 0 0 1-.537-.516l-.022-.372 2.492-.298-.04.67zm.152-2.566l-2.716.324-.093-1.568 2.903-.346-.094 1.59zm.206-3.487l-3.126.374-.08-1.35h3.264l-.058.976zm5.197-3.222a.373.373 0 0 1-.37.377H13.284a.374.374 0 0 1-.37-.377v-.804h13.803v.804zm2.581-2.674H10.594c-.877-3.006-1.1-6.105-.627-8.731.355-1.968 1.078-3.522 1.986-4.263 1.483-1.21 2.611-.829 4.32-.25 1.05.355 2.241.759 3.657.784h.032c1.416-.025 2.607-.429 3.658-.785 1.708-.578 2.837-.96 4.32.251.907.741 1.631 2.295 1.985 4.263.473 2.626.25 5.725-.627 8.731z"/>
    </symbol>
    <symbol xmlns="http://www.w3.org/2000/svg" id="akcii" viewBox="0 0 51 49">
         <path d="M47.9592557,29.9293242 L23.0842388,54.8452774 L1,32.724695 L25.8741285,7.8092439 L39.649165,9.40778188 C41.2487756,7.82505678 43.1457868,6.69846768 45.0065871,6.23250197 C47.1738167,5.68970215 49.1630187,6.10564167 50.4483385,7.39307661 C53.3627918,10.3123262 51.5095135,16.1149137 46.7710654,19.6556062 L47.9592557,29.9293242 Z M43.8036725,10.7048767 L45.9887471,12.8935472 L46.2576063,15.2179659 C47.98655,13.2333752 48.7107521,10.7964152 47.8796678,9.96396326 C47.5374899,9.62122221 46.8124072,9.52898398 45.887685,9.76045645 C45.2208202,9.92744919 44.5061125,10.2520959 43.8036725,10.7048767 Z M6.13533138,32.724693 L23.084241,49.7014951 L44.1496453,28.6017995 L42.5267069,14.5695938 L41.2091918,13.2499106 L41.1309387,13.2407947 C40.5179726,14.0835168 40.0823519,14.9657704 39.8792974,15.7793248 C39.6480965,16.7059928 39.7402559,17.4328542 40.0826332,17.775795 L42.4028453,20.0993978 L39.8349576,22.6715114 L33.1213001,15.9463929 L35.6887685,13.3746993 L36.5491637,14.2365104 C36.710078,13.7503043 36.914565,13.2629802 37.1598639,12.7801667 L27.2008611,11.6244964 L6.13533138,32.724693 Z M17.6784284,27.3508694 C15.4471797,27.3508694 13.6308429,29.1703041 13.6308429,31.4060739 C13.6308429,33.641516 15.4472341,35.4608963 17.6784284,35.4608963 C19.9099498,35.4608963 21.7263952,33.6415705 21.7263952,31.4060739 C21.7263952,29.1702496 19.9100042,27.3508694 17.6784284,27.3508694 Z M17.6784284,33.2240933 C16.6767825,33.2240933 15.8628209,32.4086456 15.8628209,31.4060739 C15.8628209,30.4031932 16.6767093,29.5876724 17.6784284,29.5876724 C18.6801918,29.5876724 19.4944173,30.4032379 19.4944173,31.4060739 C19.4944173,32.4087188 18.6803825,33.2240933 17.6784284,33.2240933 Z M32.337555,35.4608963 C34.5690764,35.4608963 36.385522,33.6415705 36.385522,31.4060739 C36.385522,29.1702497 34.5691308,27.3508694 32.337555,27.3508694 C30.1060612,27.3508694 28.2899696,29.1701676 28.2899696,31.4060739 C28.2899696,33.6416526 30.1061156,35.4608963 32.337555,35.4608963 Z M32.337555,29.5876724 C33.3393185,29.5876724 34.153544,30.4032379 34.153544,31.4060739 C34.153544,32.408601 33.3392453,33.2240933 32.337555,33.2240933 C31.3358649,33.2240933 30.521566,32.408601 30.521566,31.4060739 C30.521566,30.4032379 31.3357917,29.5876724 32.337555,29.5876724 Z M24.8212133,23.9520811 L27.3228095,24.4234255 L25.1951491,38.8604934 L22.6935616,38.3887774 L24.8212133,23.9520811 Z"/>
    </symbol>
    <symbol xmlns="http://www.w3.org/2000/svg" id="arrow" viewBox="0 0 16 16">
         <path d="M2.67453644,7.0558715 L10.6856566,7.05998258 L8.16136451,4.52178382 C8.03775478,4.3978642 7.96994992,4.2299952 7.96994992,4.05380617 C7.96994992,3.87761714 8.03775478,3.71092274 8.16136451,3.58670947 L8.55414491,3.19243758 C8.67765708,3.06851796 8.84224241,3 9.01775457,3 C9.19336429,3 9.35804718,3.06802854 9.48155935,3.19194816 L13.8086804,7.53295224 C13.9326803,7.65736128 14.0004852,7.82307685 13.9999974,7.99936376 C14.0004852,8.1766295 13.9326803,8.34244296 13.8086804,8.46665623 L9.48155935,12.8080518 C9.35804718,12.9318736 9.19346185,13 9.01775457,13 C8.84224241,13 8.67765708,12.9317757 8.55414491,12.8080518 L8.16136451,12.4137799 C8.03775478,12.2900561 7.96994992,12.1248299 7.96994992,11.9486409 C7.96994992,11.7725497 8.03775478,11.6160352 8.16136451,11.4922134 L10.7141444,8.93982166 L2.66556083,8.93982166 C2.30390237,8.93982166 2,8.62708613 2,8.26443037 L2,7.70679209 C2,7.34413633 2.31287798,7.0558715 2.67453644,7.0558715 Z"/>
    </symbol>
    <symbol xmlns="http://www.w3.org/2000/svg" id="time" viewBox="0 0 38 38">
         <path d="M22.3575396,34.4351104 C23.1593513,34.2355171 23.9704391,34.7233052 24.1698724,35.5249571 C24.3697856,36.3258892 23.8815976,37.1376966 23.0802657,37.33713 C22.7146645,37.4283704 22.3421063,37.5090553 21.9724268,37.5776655 C21.5606057,37.6542723 21.1564612,37.5533561 20.8389191,37.3298532 C20.5308129,37.1125875 20.3038715,36.7797721 20.2297437,36.3801856 C20.0796489,35.5679784 20.6161359,34.7875173 21.4276234,34.6366229 C21.7380486,34.5794477 22.0507928,34.5115572 22.3575396,34.4351104 Z M33.4164166,14.390456 C33.3171797,14.0902664 33.2072274,13.7891971 33.0898384,13.4958845 C32.7828517,12.7287777 33.1563695,11.8586756 33.9228366,11.5520887 C34.6901034,11.2453419 35.5599656,11.6186998 35.8667124,12.3855667 C36.0064117,12.7345352 36.1375548,13.0929395 36.2557434,13.4502243 C36.5151508,14.233964 36.0902953,15.0795167 35.3061558,15.3398836 C34.838439,15.4945365 34.3483318,15.405775 33.9737745,15.1419696 C33.7211642,14.9638869 33.5211711,14.7061589 33.4164166,14.390456 Z M27.2169491,32.2999577 C27.9060098,31.8445555 28.833447,32.0339133 29.2886893,32.7232939 C29.7440115,33.4124346 29.5544139,34.3402716 28.865593,34.7953539 C28.5514095,35.0031037 28.2271503,35.2031768 27.901052,35.3912551 C27.3794385,35.6917646 26.7529106,35.6431457 26.291591,35.3185667 C26.1197456,35.1970195 25.9705304,35.0379686 25.8584991,34.8434131 C25.4458783,34.1281237 25.6909718,33.213401 26.406581,32.8006203 C26.6808619,32.6426889 26.9531436,32.4741221 27.2169491,32.2999577 Z M37.1855796,18.567202 C37.2004531,18.9435185 37.2035718,19.3250329 37.1953353,19.7015893 C37.1770233,20.5273907 36.4930004,21.1820663 35.6675989,21.1637543 C35.3591728,21.1567173 35.0747363,21.0568407 34.8403581,20.8917924 C34.446929,20.6144728 34.193759,20.1530732 34.2053539,19.635458 C34.2126308,19.3203149 34.2094322,19.000134 34.1970375,18.684671 C34.1646516,17.8595893 34.8075724,17.1641314 35.6321742,17.1315855 C36.4578157,17.0993595 37.1530337,17.7418005 37.1855796,18.567202 Z M33.1723626,28.3659063 C33.8323959,28.861771 33.9665776,29.798804 33.470793,30.4594771 C33.2439315,30.7616658 33.005635,31.0601762 32.7611811,31.3472515 C32.2559606,31.940114 31.3875377,32.04135 30.7626891,31.6008214 C30.7251054,31.5745927 30.6888812,31.5466849 30.6530567,31.5162981 C30.0245297,30.9809306 29.9489625,30.0368606 30.4839302,29.4083336 C30.6886413,29.1677181 30.8885544,28.9178266 31.078392,28.6648165 C31.5740967,28.0041434 32.51049,27.869322 33.1723626,28.3659063 Z M35.3706078,22.9600141 C36.1585057,23.2071068 36.5968753,24.0461024 36.3501824,24.8343201 C36.2375113,25.1922447 36.1129255,25.5521683 35.9786638,25.9044154 C35.6845515,26.6763201 34.8205268,27.063432 34.0489419,26.7689999 C33.9292338,26.7237395 33.8190417,26.6641654 33.7190052,26.5938759 C33.173642,26.2093229 32.9357453,25.4917146 33.1840375,24.8395179 C33.2971084,24.5432465 33.4018629,24.2407379 33.4963818,23.9396687 C33.7433146,23.1516109 34.5825501,22.7129215 35.3706078,22.9600141 Z M15.8330132,34.650057 C16.6457802,34.7956738 17.1865054,35.5729362 17.0407287,36.3861031 C16.894872,37.1987101 16.1182493,37.7399151 15.3052424,37.5938185 C12.6257662,37.1129874 10.1307698,36.0693606 7.89014289,34.4905263 C7.03395474,33.8875082 6.2387801,33.2205979 5.48158895,32.4737222 C2.7606107,29.7784928 0.944759344,26.3146372 0.277529129,22.465269 C0.211877642,22.0879929 0.15950039,21.7106368 0.106163555,21.2629912 C0.0657810934,20.8885938 0.0360340129,20.508279 0.0191613408,20.0948585 C-0.155003018,16.2547663 0.860555915,12.4828045 3.00802325,9.14849263 C3.13516803,8.95209793 3.26807031,8.75570322 3.40289175,8.56410643 C3.48533595,8.44719721 3.56953938,8.33028798 3.71835474,8.13781158 C6.26980662,4.72745273 9.84545368,2.33721084 14.0067664,1.26799521 C14.4722442,1.14996647 14.9441992,1.04857051 15.4228714,0.965726488 C20.1754473,0.141604413 24.9636877,1.1634806 28.9558738,3.8433567 L30.1269652,2.15121162 C30.452104,1.68141566 30.8427343,1.74730704 30.9953081,2.29778796 L32.3581562,7.20813535 C32.5112897,7.75797654 32.1707976,8.25048264 31.6014448,8.30166042 L26.526289,8.75602308 C25.957656,8.80720086 25.7578228,8.46478957 26.0826417,7.99491364 L27.2510143,6.30676682 C21.8110569,2.67938223 14.8546381,2.91727891 9.67792644,6.48468955 C8.22407786,7.49577042 6.92000423,8.77145638 5.84239225,10.3005523 C0.886624593,17.3351771 2.57804999,27.0899805 9.61275475,32.0454283 C10.0951852,32.3850408 10.5917695,32.6950661 11.1048267,32.9777433 C11.3821463,33.1287178 11.668262,33.273215 11.9972391,33.4310665 C13.2134309,34.0012188 14.4959939,34.4100013 15.8330132,34.650057 Z M17.6822101,7.20565642 C18.35016,7.20565642 18.891205,7.74782096 18.891285,8.41561093 L18.891285,18.9966955 L28.6076251,24.0199538 C29.2014472,24.3266206 29.4335064,25.0561438 29.1268396,25.6499659 C28.911813,26.0660252 28.4888767,26.3044816 28.0509868,26.3044816 C27.864028,26.3044816 27.6740305,26.2612204 27.4965876,26.1693403 L16.4717758,20.4701355 L16.4717758,8.41561093 C16.4717758,7.74782096 17.0134605,7.20565642 17.6822101,7.20565642 Z"/>
    </symbol>
    <symbol xmlns="http://www.w3.org/2000/svg" id="exp" viewBox="0 0 60 60">
         <path d="M50,25.1953125 C50,27.5368359 48.9537209,29.7141797 47.1293023,31.1690625 C47.9863953,33.3522656 47.8123256,35.7651563 46.6505814,37.7930859 C45.4888372,39.8207813 43.5025581,41.1792188 41.2009302,41.5198828 C40.86,43.8425391 39.512093,45.8444531 37.5,47.0151563 C37.0337209,47.2864453 36.5462791,47.5019531 36.0465116,47.6657813 L36.0465116,60 L32.8373256,60 L25,57.1790625 L17.1626744,60 L13.9534884,60 L13.9534884,47.6657813 C13.4537209,47.5019531 12.9662791,47.2864453 12.5,47.0151563 C10.487907,45.8443359 9.14,43.8425391 8.80197674,41.5228125 C6.49732558,41.1793359 4.51104651,39.8208984 3.34930233,37.7930859 C2.18755814,35.7651563 2.01348837,33.3522656 2.87162791,31.1730469 C1.04627907,29.7141797 0,27.5368359 0,25.1953125 C0,22.8537891 1.04627907,20.6764453 2.87069767,19.2215625 C2.01360465,17.0384766 2.18767442,14.6255859 3.3494186,12.5976563 C4.51116279,10.5697266 6.49755814,9.21140625 8.79918605,8.87085938 C9.14,6.54820313 10.4877907,4.54640625 12.5,3.37558594 C14.5118605,2.20488281 16.9061628,2.02921875 19.0686047,2.89417969 C20.5160465,1.05445313 22.6766279,5.08038056e-13 25,5.08038056e-13 C27.3233721,5.08038056e-13 29.4839535,1.05445313 30.9274419,2.893125 C33.0934884,2.02921875 35.4877907,2.20476563 37.5,3.37546875 C39.5122093,4.54628906 40.86,6.54820313 41.1980233,8.8678125 C43.5025581,9.21128906 45.4889535,10.5696094 46.6506977,12.5975391 C47.8124419,14.6254688 47.9865116,17.0383594 47.1283721,19.2175781 C48.9537209,20.6764453 50,22.8537891 50,25.1953125 Z M32.5581395,56.1663281 L32.5581395,47.9455078 C32.0080233,47.8579688 31.4626744,47.7090234 30.9313953,47.4965625 C29.4839535,49.3361719 27.3233721,50.390625 25,50.390625 C22.6766279,50.390625 20.5160465,49.3361719 19.0725581,47.4975 C18.5397674,47.7099609 17.9931395,47.8589063 17.4418605,47.9462109 L17.4418605,56.1663281 L25,53.4459375 L32.5581395,56.1663281 Z M44.9647674,28.4121094 C45.9477907,27.628125 46.5116279,26.4556641 46.5116279,25.1953125 C46.5116279,23.9349609 45.9477907,22.7625 44.9647674,21.9785156 C43.7463953,21.0067969 43.3126744,19.3761328 43.8859302,17.9206641 C44.3484884,16.7464453 44.255,15.4469531 43.6296512,14.3554688 C43.0043023,13.2639844 41.9343023,12.5326172 40.694186,12.3491016 C39.1568605,12.1216406 37.9722093,10.9279688 37.7466279,9.37863281 C37.5645349,8.12871094 36.8388372,7.05035156 35.755814,6.42011719 C34.6725581,5.78988281 33.3833721,5.69589844 32.2181395,6.16183594 C30.7738372,6.73945313 29.155814,6.30234375 28.1918605,5.07457031 C27.4140698,4.08386719 26.2506977,3.515625 25,3.515625 C23.7493023,3.515625 22.5859302,4.08386719 21.8081395,5.07445313 C20.844186,6.30234375 19.2263953,6.73945313 17.7818605,6.16183594 C16.6167442,5.69589844 15.3273256,5.78988281 14.244186,6.42011719 C13.1611628,7.05035156 12.4354651,8.12859375 12.2533721,9.37863281 C12.0276744,10.9279688 10.8431395,12.1216406 9.30581395,12.3491016 C8.06569767,12.5326172 6.99569767,13.2638672 6.37034884,14.3554688 C5.745,15.4469531 5.65151163,16.7464453 6.11406977,17.9206641 C6.68732558,19.3761328 6.25372093,21.0067969 5.03523256,21.9785156 C4.0522093,22.7625 3.48837209,23.9349609 3.48837209,25.1953125 C3.48837209,26.4556641 4.0522093,27.628125 5.03523256,28.4121094 C6.25360465,29.3838281 6.68732558,31.0144922 6.11406977,32.4699609 C5.65151163,33.6441797 5.745,34.9436719 6.37034884,36.0351563 C6.99569767,37.1266406 8.06569767,37.8580078 9.30593023,38.0415234 C10.8431395,38.2689844 12.0276744,39.4627734 12.2533721,41.0121094 C12.4354651,42.2619141 13.1611628,43.3403906 14.244186,43.9705078 C15.3273256,44.6005078 16.6167442,44.6948438 17.7818605,44.2287891 C18.2066279,44.0588672 18.6467442,43.9767188 19.0805814,43.9767188 C20.1215116,43.9767188 21.1276744,44.4493359 21.8081395,45.3160547 C22.5859302,46.3067578 23.7493023,46.875 25,46.875 C26.2506977,46.875 27.4140698,46.3067578 28.1918605,45.3161719 C29.1560465,44.0881641 30.7739535,43.6511719 32.2182558,44.2289063 C33.3831395,44.6948438 34.672907,44.600625 35.755814,43.9705078 C36.8388372,43.3402734 37.5645349,42.2619141 37.7466279,41.0119922 C37.9724419,39.4626563 39.1568605,38.2689844 40.694186,38.0415234 C41.9343023,37.8580078 43.0043023,37.1266406 43.6296512,36.0351563 C44.255,34.9436719 44.3484884,33.6441797 43.8859302,32.4699609 C43.3126744,31.0144922 43.7462791,29.3838281 44.9647674,28.4121094 Z M29.1301163,19.9714453 L31.6034884,22.4504297 L23.437907,30.7251563 L18.4061628,25.7054297 L20.8602326,23.206875 L23.4186047,25.7592188 L29.1301163,19.9714453 Z"/>
    </symbol>
    <symbol xmlns="http://www.w3.org/2000/svg" id="high" viewBox="0 0 60 60">
         <path d="M48.3333333,35.6210938 C47.1128472,35.6210938 36.7834201,35.6210938 35.5047743,35.6210938 L26.0672743,29.3171387 C25.7560764,28.9953308 25.4713542,28.6552582 25.2105034,28.2999649 C30.8697917,23.375 36.6666667,18.6722564 36.6666667,12.0360566 C36.6666667,6.57097629 32.8780382,2 27.5247396,2 C24.3997396,2 21.843316,3.65209201 20.0494791,6.21698758 C18.2560764,3.65209201 15.6992188,2 12.5746528,2 C7.219618,2 3.33333333,5.95432279 3.33333333,11.4028779 C3.33333333,17.57724 8.66796878,22.6535415 13.3333333,26.8696594 L13.3333333,29.2284241 C12.811632,29.0431671 12.250868,28.9414062 11.6666667,28.9414062 L5,28.9414062 C2.24305556,28.9414062 0,31.1888428 0,33.9511719 C0,35.2331848 0.483941,36.4038696 1.27734378,37.2910156 C0.483941,38.1781616 0,39.3488464 0,40.6308594 C0,41.9128723 0.483941,43.0835571 1.27734378,43.9707031 C0.483941,44.8578491 0,46.0285339 0,47.3105469 C0,48.5925598 0.483941,49.7632446 1.27734378,50.6503906 C0.483941,51.5375366 0,52.7082214 0,53.9902344 C0,56.7525635 2.24305556,59 5,59 L28.3333333,59 C28.5920139,59 28.8472222,58.9395523 29.078559,58.8238755 L35.3932291,55.6601562 L40,55.6601562 L40,57.3300781 C40,57.9088974 40.2990451,58.4464035 40.7903646,58.7508164 C41.0581598,58.9165039 41.3619791,59 41.6666667,59 C41.921441,59 42.1766493,58.9417266 42.4118923,58.8238755 L49.078559,55.4840317 C49.6432291,55.2009277 50,54.6229782 50,53.9902344 L50,37.2910156 C50,36.3686447 49.2539062,35.6210938 48.3333333,35.6210938 Z M6.66666667,11.4028779 C6.66666667,7.77645114 9.04079867,5.33984375 12.5746528,5.33984375 C16.5551216,5.33984375 18.297309,9.83558649 18.4830729,10.3478699 C18.7217882,11.0088806 19.3485243,11.4485398 20.0499132,11.4485398 C20.7513021,11.4485398 21.3776042,11.0084458 21.6167534,10.3478699 C21.8020833,9.83515164 23.5434028,5.33984375 27.5247396,5.33984375 C30.8359376,5.33984375 33.3333333,8.21871948 33.3333333,12.0360566 C33.3333333,14.8292618 31.8493923,17.5363617 28.5217013,20.8131485 C27.1471354,22.1669159 25.5355902,23.5902634 23.6966146,25.1932144 C23.4587673,24.3430328 23.3333333,23.4554519 23.3333333,22.5483017 L23.3333333,17.2519531 C23.3333333,16.3295822 22.5872396,15.5820312 21.6666667,15.5820312 C17.5798611,15.5820312 14.1731771,18.5461426 13.469184,22.4408875 C9.12239578,18.2726059 6.66666667,14.9327622 6.66666667,11.4028779 Z M3.33333333,47.3105469 C3.33333333,46.3899155 4.08116322,45.640625 5,45.640625 L11.6666667,45.640625 C12.5855034,45.640625 13.3333333,46.3899155 13.3333333,47.3105469 C13.3333333,48.2311783 12.5855034,48.9804688 11.6666667,48.9804688 L5,48.9804688 C4.08116322,48.9804688 3.33333333,48.2311783 3.33333333,47.3105469 Z M3.33333333,40.6308594 C3.33333333,39.710228 4.08116322,38.9609375 5,38.9609375 L11.6666667,38.9609375 C12.5855034,38.9609375 13.3333333,39.710228 13.3333333,40.6308594 C13.3333333,41.5514908 12.5855034,42.3007812 11.6666667,42.3007812 L5,42.3007812 C4.08116322,42.3007812 3.33333333,41.5514908 3.33333333,40.6308594 Z M5,32.28125 L11.6666667,32.28125 C12.5855034,32.28125 13.3333333,33.0305405 13.3333333,33.9511719 C13.3333333,34.8718033 12.5855034,35.6210937 11.6666667,35.6210937 L5,35.6210937 C4.08116322,35.6210937 3.33333333,34.8718033 3.33333333,33.9511719 C3.33333333,33.0305405 4.08116322,32.28125 5,32.28125 Z M3.33333333,53.9902344 C3.33333333,53.069603 4.08116322,52.3203125 5,52.3203125 L11.6666667,52.3203125 C12.5855034,52.3203125 13.3333333,53.069603 13.3333333,53.9902344 C13.3333333,54.9108658 12.5855034,55.6601562 11.6666667,55.6601562 L5,55.6601562 C4.08116322,55.6601562 3.33333333,54.9108658 3.33333333,53.9902344 Z M35,52.3203125 C34.7413194,52.3203125 34.4861111,52.3807602 34.2547743,52.496437 L27.9401042,55.6601562 L16.3802083,55.6601562 C16.5651042,55.137436 16.6666667,54.5755767 16.6666667,53.9902344 C16.6666667,52.7082214 16.1827257,51.5375366 15.3893229,50.6503906 C16.1831598,49.7632446 16.6666667,48.5925598 16.6666667,47.3105469 C16.6666667,46.0285339 16.1827257,44.8578491 15.3893229,43.9707031 C15.3971354,43.9620056 15.4049479,43.9528733 15.4127604,43.9437408 C17.5212673,46.98526 21.032118,48.9804688 25,48.9804688 C25.9205729,48.9804688 26.6666667,48.2329178 26.6666667,47.3105469 C26.6666667,46.388176 25.9205729,45.640625 25,45.640625 C20.4049479,45.640625 16.6666667,41.8950424 16.6666667,37.2910156 L16.6666667,23.9316406 C16.6666667,21.7546539 18.0598958,19.8973007 20,19.208023 L20,22.5483017 C20,26.039917 21.3572049,29.322792 23.8216146,31.7920151 C24.0386284,32.0094528 23.5208333,31.6167603 34.0755209,38.6804428 C34.3493923,38.8630905 34.6710069,38.9609375 35,38.9609375 L40,38.9609375 L40,52.3203125 L35,52.3203125 Z M46.6666667,52.9582749 L43.3333333,54.6281967 L43.3333333,38.9609375 L46.6666667,38.9609375 L46.6666667,52.9582749 Z"/>
    </symbol>
    <symbol xmlns="http://www.w3.org/2000/svg" id="goodPrice" viewBox="0 0 60 60">
          <path d="M50,13.5551075 C50,12.5848454 49.2116162,11.7982191 48.2393939,11.7982191 C47.2671717,11.7982191 46.4789562,12.5848454 46.4789562,13.5551075 C46.4789562,14.6861559 45.7676768,15.9662298 45.0824916,16.9158266 C40.7718855,12.0428427 34.0244108,8.89902554 26.4525253,8.89902554 C24.7341751,8.89902554 23.0257576,9.06149194 21.3584175,9.38306452 C18.3001684,6.04250672 13.5962963,6 13.3806397,6 L13.3801347,6 C12.913468,6 12.4654882,6.18514785 12.1355219,6.51444892 C11.8052189,6.84408602 11.619697,7.29099462 11.619697,7.75705645 L11.619697,13.4984879 C8.93939394,15.4013777 6.76868687,17.7926747 5.26616162,20.4952957 L1.76060606,20.4952957 C0.788383838,20.4952957 0,21.2820901 0,22.2521841 L0,36.7476478 C0,37.7177419 0.788383838,38.5045363 1.76060606,38.5045363 L5.26582492,38.5045363 C6.17693603,40.1448253 7.33249158,41.6683468 8.71464646,43.0510753 L8.71464646,51.2429435 C8.71464646,52.2132056 9.5030303,53 10.4752525,53 L19.1900673,53 C20.1622896,53 20.9506734,52.2132056 20.9506734,51.2429435 L20.9506734,49.5361223 C22.7436027,49.9112903 24.5860269,50.1009745 26.4525253,50.1009745 C28.3175084,50.1009745 30.1597643,49.9111223 31.9542088,49.5351142 L31.9542088,51.2429435 C31.9542088,52.2132056 32.7425926,53 33.7148148,53 L42.4296296,53 C43.4018519,53 44.1902357,52.2132056 44.1902357,51.2429435 L44.1902357,43.0539315 C47.9425926,39.2992272 50,34.5146169 50,29.5 C50,26.0166331 49.0053872,22.7331989 47.253367,19.8534946 C48.263468,18.6537298 50,16.2061492 50,13.5551075 Z M41.2274411,41.0258737 C40.8713805,41.3583669 40.6691919,41.8229167 40.6691919,42.3096438 L40.6691919,49.4862231 L35.4754209,49.4862231 L35.4754209,47.2704973 C35.4754209,46.7133737 35.2106061,46.1890121 34.7617845,45.8578629 C34.3127946,45.5263777 33.7333333,45.4272513 33.1991582,45.5905578 C31.0360269,46.2520161 28.76633,46.5871976 26.4526936,46.5871976 C24.1361953,46.5871976 21.8664983,46.2523522 19.7060606,45.5917339 C19.1722222,45.4285954 18.5925926,45.5278898 18.1436027,45.859039 C17.6946128,46.1905242 17.429798,46.7145497 17.429798,47.2716734 L17.429798,49.4863911 L12.2361953,49.4863911 L12.2361953,42.3072917 C12.2361953,41.8209005 12.0340067,41.3560148 11.6779461,41.0236895 C10.0787879,39.531586 8.81548822,37.8366935 7.92306397,35.9862231 C7.62979798,35.3778562 7.01329966,34.9910954 6.33670034,34.9910954 L3.52104377,34.9910954 L3.52104377,24.0097446 L6.33653199,24.0097446 C7.01296296,24.0097446 7.62962963,23.6229839 7.92289562,23.0146169 C9.27491582,20.2106855 11.4944444,17.750336 14.3410774,15.9002016 C14.8400673,15.5757728 15.1409091,15.0218414 15.1409091,14.4277554 L15.1409091,9.77049731 C16.4350168,10.0845094 18.1469697,10.781754 19.2173401,12.328125 C19.6301347,12.9242272 20.3676768,13.2059812 21.0739057,13.0384745 C21.8786195,12.8472782 22.6978114,12.7014449 23.5252525,12.5977823 C23.3452862,12.8734879 23.2395623,13.2019489 23.2395623,13.5554435 C23.2395623,14.5257056 24.0279461,15.3125 25.0001684,15.3125 L30.810101,15.3125 C31.7823232,15.3125 32.5705387,14.5257056 32.5705387,13.5554435 C32.5705387,13.4408602 32.5589226,13.3291331 32.5378788,13.2207661 C40.6143098,15.4235551 46.4792929,21.8881048 46.4792929,29.500336 C46.4789562,33.7741935 44.6139731,37.8676075 41.2274411,41.0258737 Z M13.379798,23.3943212 C12.916835,23.3943212 12.4643098,23.5821573 12.1350168,23.9089382 C11.8075758,24.2358871 11.6193603,24.6893481 11.6193603,25.1513777 C11.6193603,25.6134073 11.8075758,26.0667003 12.1350168,26.3934812 C12.4624579,26.7202621 12.916835,26.9084341 13.379798,26.9084341 C13.8446128,26.9084341 14.2969697,26.7202621 14.6244108,26.3934812 C14.9537037,26.0668683 15.140404,25.6134073 15.140404,25.1513777 C15.140404,24.6893481 14.9537037,24.2360551 14.6244108,23.9089382 C14.2969697,23.5821573 13.8427609,23.3943212 13.379798,23.3943212 Z"/>
    </symbol>
    <symbol xmlns="http://www.w3.org/2000/svg" id="cazy" viewBox="0 0 60 60">
          <path d="M10.5487255,24.6414149 C8.79838059,24.6414149 6.54562,23.7155824 5.30882942,22.4877933 L0.571739767,17.7859518 C-0.190970555,17.0285406 -0.190579722,15.8015266 0.572912266,15.0448907 C1.33640425,14.2884485 2.57378108,14.2890299 3.33668682,15.0460535 L8.07416731,19.7484764 C8.58166377,20.2523836 9.83037475,20.7655936 10.5487255,20.7655936 L22.9217122,20.7655936 C23.1253361,20.7655936 23.227148,20.6380663 23.227148,20.6080257 C23.227148,20.5777913 23.1253361,20.4506516 22.9217122,20.4506516 L18.994819,20.4506516 C16.9747994,20.4506516 16.2711048,19.2879828 16.0625955,18.7881456 C15.8538908,18.2883085 15.5224645,16.972917 16.9509586,15.5563564 L17.9780673,14.5365259 C19.2828628,13.2412906 21.645252,12.4610098 23.4714186,12.7193591 L31.957377,13.9227282 L24.3760012,10.69811 C23.6195442,10.3767722 22.1504035,10.2599045 21.3521274,10.457785 L17.2900061,11.4657931 C16.1931337,11.7375154 14.3898309,12.353445 13.3515834,12.8106438 L12.7266416,13.0860485 C10.8164461,13.9275734 8.3119891,13.4091305 6.9001054,11.8797723 L2.62458935,7.24673353 C1.89588149,6.45714977 1.95079351,5.23110488 2.74672462,4.50838573 C3.54285115,3.78566657 4.77905548,3.84012731 5.50776335,4.62951726 L9.78327939,9.26216836 C10.0582303,9.56024883 10.7683736,9.70754477 11.1394694,9.54338732 L11.764802,9.26778887 C13.0131221,8.71794863 15.0235664,8.03166584 16.3422364,7.70470761 L20.4033806,6.6970871 C22.0157616,6.29686853 24.3861629,6.48486466 25.9160781,7.13509871 L36.5434098,11.655146 C37.8573898,12.2146767 38.7342233,13.1717127 38.9493768,14.2814713 C39.1240791,15.1821085 38.8418978,16.0777065 38.1757232,16.7386002 C36.9760617,17.9295654 34.7672698,18.2365611 33.2246525,18.0177491 L24.0152625,16.7118543 C25.8105532,17.1738984 27.1354766,18.7455073 27.1354766,20.6076381 C27.1354766,22.8318068 25.2452135,24.6414149 22.9217122,24.6414149 L10.5487255,24.6414149 Z M49.5127086,39.5687879 C50.1624582,40.2131977 50.1624582,41.2581152 49.5125422,41.90236 C48.8624598,42.5466047 47.8092165,42.5466047 47.1593006,41.90236 L40.6879276,35.4840054 C40.0313561,34.8326647 38.5323563,34.2169687 37.6039049,34.2169687 L20.6322123,34.2169687 C20.1812977,34.2169687 19.8002665,34.5948684 19.8002665,35.0420772 L19.8002665,35.5371424 C19.8002665,35.9843512 20.1812977,36.362251 20.6322123,36.362251 L26.6222214,36.362251 C28.5548313,36.362251 29.2112365,37.434232 29.4037487,37.8951377 C29.596261,38.3560433 29.896427,39.5743986 28.5298729,40.929722 L26.5686441,42.8748329 C25.2275476,44.205073 22.8004292,45.0095538 20.9213966,44.7418886 L6.64504173,42.7190524 C5.99163157,42.6264752 5.24321321,42.768889 4.73389604,42.9677401 L19.2433621,49.1349317 C20.1743093,49.5306537 21.9170692,49.669437 22.8995971,49.4256999 L29.0386909,47.9033746 C30.2754614,47.5967643 32.304577,46.9041681 33.4696338,46.3912806 L35.091096,45.6773967 C36.9837725,44.8445321 39.5618059,45.3775522 40.9599739,46.8919565 L46.8177036,53.2352262 C47.4383351,53.9071946 47.392079,54.951287 46.714376,55.566818 C46.3950752,55.8567612 45.9924135,56 45.5910829,56 C45.1406675,56 44.6917496,55.8197963 44.3634638,55.4643395 L38.5059004,49.1212349 C38.0633053,48.6420118 37.0406776,48.4301239 36.4413439,48.6939936 L34.8198817,49.4078776 C33.4668052,50.003606 31.2819494,50.7491741 29.8458447,51.1052909 L23.7067508,52.6276162 C22.0167363,53.0467714 19.5342103,52.8495704 17.932382,52.1686909 L3.30261663,45.9503426 C2.07582948,45.429039 1.25336794,44.5164689 1.04571429,43.4472932 C0.868676246,42.5363734 1.16551448,41.6188526 1.86002276,40.930052 C2.97782502,39.8214361 5.2372232,39.1857725 7.11525745,39.4519525 L21.3916123,41.4747887 C22.2386994,41.5945945 23.6107443,41.1411148 24.2154025,40.5412609 L25.1009255,39.6630153 L20.6322123,39.6630153 C18.3385379,39.6630153 16.4724837,37.8122968 16.4724837,35.5374724 L16.4724837,35.0424073 C16.4724837,32.7675829 18.3385379,30.9168644 20.6322123,30.9168644 L37.6039049,30.9168644 C39.4193768,30.9168644 41.7569779,31.8769608 43.0410029,33.1504333 L49.5127086,39.5687879 Z"/>
    </symbol>
    <symbol xmlns="http://www.w3.org/2000/svg" id="way" viewBox="0 0 60 60">
          <path d="M38.3918142,47.1326886 L31.9250899,35.7691569 C30.9874884,34.1432605 30.4921875,32.2878607 30.4921875,30.4023438 C30.4921875,24.472057 35.315807,19.6484375 41.2460938,19.6484375 C47.1763805,19.6484375 52,24.472057 52,30.4023438 C52,32.2893436 51.5035736,34.1467534 50.565852,35.7708659 L44.1004308,47.1325708 C45.3633779,48.0409864 46.140625,49.5071291 46.140625,51.1054688 C46.140625,53.8047068 43.9453318,56 41.2460938,56 C39.2813187,56 37.5353974,54.8255883 36.7640784,53.0703125 L7.359375,53.0703125 C3.85218399,53.0703125 1,50.2181285 1,46.7109375 C1,43.2037465 3.85218399,40.3515625 7.359375,40.3515625 L17.6132812,40.3515625 C19.716823,40.3515625 21.5078125,38.5206903 21.5078125,36.359375 C21.5078125,34.1980597 19.716823,32.3671875 17.6132812,32.3671875 L10.3765466,32.3671875 C9.60522764,34.1224633 7.85930631,35.296875 5.89453125,35.296875 C3.19529317,35.296875 1,33.1015818 1,30.4023438 C1,28.437395 2.17424228,26.6915498 3.9296875,25.9203026 L3.9296875,6.96484375 C3.9296875,5.87960411 4.80929161,5 5.89453125,5 C6.97977089,5 7.859375,5.87960411 7.859375,6.96484375 L7.859375,7.9296875 L19.078125,7.9296875 C20.8266888,7.9296875 21.7021773,10.0494789 20.4673888,11.2837549 L17.4624225,14.2890625 L20.4672956,17.2942769 C21.703942,18.5304121 20.824089,20.6484375 19.078125,20.6484375 L7.859375,20.6484375 L7.859375,25.9203761 C8.98123505,26.4138494 9.88302564,27.3156399 10.3764989,28.4375 L17.6132812,28.4375 C21.9224721,28.4375 25.4375,32.0173 25.4375,36.359375 C25.4375,40.70145 21.9224721,44.28125 17.6132812,44.28125 L7.359375,44.28125 C6.01999306,44.28125 4.9296875,45.3715556 4.9296875,46.7109375 C4.9296875,48.0500797 6.02013481,49.140625 7.359375,49.140625 L36.7641521,49.140625 C37.1173494,48.3378936 37.6814547,47.6441037 38.3918142,47.1326886 Z M7.859375,11.859375 L7.859375,16.71875 L14.3345843,16.71875 L13.2944679,15.6784241 C12.5268636,14.9113315 12.5268636,13.6673052 13.2943144,12.8998544 L14.3345843,11.859375 L7.859375,11.859375 Z M5.89453125,31.3671875 C6.42596026,31.3671875 6.859375,30.9337728 6.859375,30.4023438 C6.859375,29.8709147 6.42596026,29.4375 5.89453125,29.4375 C5.36310224,29.4375 4.9296875,29.8709147 4.9296875,30.4023438 C4.9296875,30.9337728 5.36310224,31.3671875 5.89453125,31.3671875 Z M41.2460938,52.0703125 C41.7775228,52.0703125 42.2109375,51.6368978 42.2109375,51.1054688 C42.2109375,50.5740397 41.7775228,50.140625 41.2460938,50.140625 C40.7146647,50.140625 40.28125,50.5740397 40.28125,51.1054688 C40.28125,51.6368978 40.7146647,52.0703125 41.2460938,52.0703125 Z M47.1549891,33.8194497 C47.7552506,32.779476 48.0703125,31.6016405 48.0703125,30.4023438 C48.0703125,26.6398661 45.0085714,23.578125 41.2460938,23.578125 C37.4836161,23.578125 34.421875,26.6398661 34.421875,30.4023438 C34.421875,31.6006802 34.7364579,32.7789959 35.3321786,33.8106633 L35.3371984,33.8194497 L41.2460938,44.2031011 L47.1549891,33.8194497 Z M41.2460938,32.3671875 C40.16238,32.3671875 39.28125,31.4860575 39.28125,30.4023438 C39.28125,29.31863 40.16238,28.4375 41.2460938,28.4375 C42.3298075,28.4375 43.2109375,29.31863 43.2109375,30.4023438 C43.2109375,31.4860575 42.3298075,32.3671875 41.2460938,32.3671875 Z"/>
    </symbol>
    <symbol xmlns="http://www.w3.org/2000/svg" id="online" viewBox="0 0 60 60">
          <path d="M26.2142578,8.09740332 C30.5291016,8.09740332 34.0394531,11.5986629 34.0395508,15.902331 L34.0395508,44.1906891 C34.0395508,48.4933832 30.5299805,51.9945454 26.2163086,51.9956169 L7.82714844,52 C7.82666016,52 7.82578125,52 7.82519531,52 C5.73515625,52 3.77060547,51.188533 2.29257812,49.714626 C0.814160156,48.2404268 0,46.2801851 0,44.1950723 L0,15.902331 C0,11.5986629 3.51035156,8.09740332 7.82519531,8.09740332 L26.2142578,8.09740332 Z M30.1267578,15.902331 C30.1268555,13.750497 28.3716797,11.9998672 26.2143555,11.9997698 L7.82519531,11.9997698 C5.66777344,11.9997698 3.91259766,13.7503996 3.91259766,15.9022336 L3.91259766,44.1949749 C3.91259766,45.2376774 4.31972656,46.2176521 5.05888672,46.954703 C5.79785156,47.6916565 6.78027344,48.0974387 7.82519531,48.0974387 C7.82548828,48.0974387 7.82578125,48.0974387 7.82607422,48.0974387 L26.2151367,48.093153 C28.3720703,48.092666 30.1267578,46.3420362 30.1267578,44.1906891 L30.1267578,15.902331 Z M48.0354492,36.390242 C46.9550781,36.3897549 46.0794922,35.5158524 46.0798828,34.4381821 L46.0857422,18.6341044 L42.1722656,18.6341044 L42.1583984,43.7313351 L44.0390625,46.5327519 L46.4336914,43.1641556 C47.0586914,42.2848958 48.2796875,42.0776216 49.1610352,42.7009054 C50.0424805,43.3241892 50.250293,44.5421203 49.6253906,45.4211852 L45.5887695,51.0997011 C45.2216797,51.6162309 44.6265625,51.922467 43.9930664,51.922467 C43.984375,51.922467 43.9755859,51.9223696 43.9667969,51.9222722 C43.3233398,51.9137007 42.7253906,51.5902242 42.3673828,51.0568437 L38.5762695,45.409302 C38.3603516,45.0878711 38.2453125,44.7095566 38.2455078,44.3226706 L38.2623047,13.8525757 C38.2623047,10.6259934 40.8950195,8 44.1311523,8 C47.3671875,8 50,10.625896 50,13.8536471 L49.9923828,34.439838 C49.9919922,35.5171186 49.1162109,36.390242 48.0361328,36.390242 C48.0359375,36.390242 48.0356445,36.390242 48.0354492,36.390242 Z M42.1743164,14.7315432 L46.0870117,14.7315432 L46.0873047,13.8526731 C46.0873047,12.7775353 45.2097656,11.9022691 44.1310547,11.9022691 C43.0524414,11.9022691 42.1748047,12.7775353 42.1748047,13.8534523 L42.1743164,14.7315432 Z M15.8458984,36.0014079 C16.9263672,36.0014079 17.8022461,36.8749209 17.8021484,37.9525911 C17.8021484,39.030164 16.9263672,39.9037744 15.8458984,39.9037744 L9.87919922,39.9037744 C8.79882812,39.9037744 7.92294922,39.0302614 7.92294922,37.9525911 C7.92294922,36.8750183 8.79873047,36.0014079 9.87919922,36.0014079 L15.8458984,36.0014079 Z M24.1601562,28.1964802 C25.240625,28.1964802 26.1164062,29.0700905 26.1164062,30.1476634 C26.1164062,31.2252363 25.240625,32.0988467 24.1601562,32.0988467 L9.87929687,32.0988467 C8.79892578,32.0988467 7.92304687,31.2253337 7.92304687,30.1476634 C7.92304687,29.0700905 8.79882812,28.1964802 9.87929687,28.1964802 L24.1601562,28.1964802 Z M24.1601562,20.3915525 C25.240625,20.3915525 26.1165039,21.2651628 26.1165039,22.3427357 C26.1165039,23.4203086 25.2407227,24.2939189 24.1602539,24.2939189 L23.7581055,24.2939189 L9.87929687,24.2939189 C8.79892578,24.2939189 7.92304687,23.4203086 7.92304687,22.3427357 C7.92304687,21.2651628 8.79882812,20.3915525 9.87929687,20.3915525 L23.7580078,20.3915525 L24.1601562,20.3915525 Z"/>
    </symbol>
    <symbol xmlns="http://www.w3.org/2000/svg" id="protezirovanie" viewBox="0 0 40 40">
          <path d="M27.57 21.175C25.038 20.057 22.517 19.5 20 19.5s-5.037.557-7.57 1.675c-.113.938.181 2.525.778 4.182.633 1.76 1.494 3.321 2.304 4.178.441.466.743.589.865.589h.003l.023-.002.007-.001c-.025-.278-.129-.732-.203-1.059-.25-1.1-.562-2.47-.24-3.902.387-1.72 1.612-3.065 3.642-3.996a.937.937 0 0 1 .77-.005c2.043.905 3.275 2.237 3.662 3.96.322 1.43.007 2.81-.245 3.918-.072.316-.182.796-.208 1.084l.016.002h.004c.183.014.843-.285 1.782-1.804a.938.938 0 0 1 1.595.987c-1.107 1.788-2.236 2.693-3.36 2.693-.052 0-.105-.002-.158-.007-.614-.01-1.085-.214-1.398-.607-.57-.714-.353-1.664-.102-2.765.439-1.922.934-4.09-1.96-5.564-2.898 1.52-2.407 3.677-1.972 5.59.248 1.09.462 2.03-.105 2.74-.313.392-.785.596-1.401.606a2.107 2.107 0 0 1-.156.007c-.738 0-1.485-.395-2.224-1.176-.993-1.05-1.979-2.811-2.706-4.831-.67-1.862-.988-3.594-.895-4.835C9.935 20.148 8 16.752 8 14.047c0-3.419 2.786-6.01 6.488-6.047h.066c1.551.007 2.585.398 3.499.743.842.319 1.575.595 2.707.615C22.104 8.448 23.655 8 25.438 8c1.742.006 3.365.59 4.573 1.646 1.283 1.12 1.989 2.682 1.989 4.4 0 2.705-1.934 6.1-2.548 7.11.094 1.208-.217 2.628-.512 3.65a.938.938 0 0 1-1.802-.519c.364-1.26.52-2.386.433-3.112zm.77-1.846c.72-1.316 1.785-3.557 1.785-5.282 0-2.369-2.017-4.162-4.69-4.172-2.507 0-4.37 1.098-5.861 3.454a.937.937 0 1 1-1.585-1.002c.304-.48.625-.92.962-1.32-.588-.142-1.091-.332-1.561-.51-.878-.332-1.636-.619-2.854-.622-2.318.012-4.661 1.447-4.661 4.172 0 1.725 1.066 3.966 1.785 5.282C14.43 18.11 17.212 17.5 20 17.5c2.788 0 5.57.611 8.34 1.829zm-.11-5.282a.937.937 0 1 1-1.876 0c0-.12-.013-.133-.065-.178-.136-.12-.434-.248-.863-.25a.938.938 0 0 1 .006-1.876h.006c.826.005 1.569.26 2.09.718.465.41.701.943.701 1.586z"/>
    </symbol>
    <symbol xmlns="http://www.w3.org/2000/svg" id="viniri" viewBox="0 0 40 40">
      <g>
             <path class="st3" d="M18.4,11.8c-2.8,0-7.1,2.3-8.1,7.3c-0.9,4.6-0.6,8,0.2,8.9c0,0,0.1,0.1,0.1,0.2c0.5,0.9,1.6,2.6,7.6,2.6   c0.1,0,0.2,0,0.3,0c6,0,7.1-1.8,7.6-2.6c0-0.1,0.1-0.1,0.1-0.2c0.8-0.9,1.1-4.3,0.2-8.9C25.5,14,21.1,11.8,18.4,11.8z M25.1,27   c-0.1,0.1-0.1,0.2-0.2,0.3c-0.4,0.6-1.2,1.9-6.5,1.9c-5.3,0-6.2-1.3-6.5-1.9c-0.1-0.1-0.2-0.2-0.2-0.3c-0.3-0.4-0.8-3,0.1-7.7   c0.9-4.6,4.8-6.1,6.6-6.1s5.7,1.5,6.6,6.1C25.9,24,25.4,26.6,25.1,27z"/>
	      <path class="st3" d="M31.5,15.6c-0.9-4.7-5-6.8-7.6-6.8c-1.5,0-3.4,0.7-5,2.1c0.2,0,0.3,0,0.5,0c0.5,0,1.1,0.1,1.7,0.3   c1-0.6,2.1-0.8,2.8-0.8c1.6,0,5.2,1.4,6.1,5.6c0.8,4.3,0.4,6.7,0.2,7.1c-0.1,0.1-0.1,0.2-0.2,0.3c-0.2,0.3-0.5,0.8-1.6,1.2   c0,0.6,0,1.2-0.1,1.6c2.1-0.6,2.6-1.5,3-2c0-0.1,0.1-0.1,0.1-0.1C32.1,23,32.3,19.9,31.5,15.6z"/>
	      <path class="st3" d="M13.7,26.8c-0.2,0-0.4-0.1-0.6-0.3c-0.3-0.4-0.3-1.2-0.3-1.5c0-0.3-0.2-0.5-0.4-0.6c-0.3,0-0.5,0.2-0.6,0.4   c0,0.1-0.2,1.5,0.5,2.3c0.3,0.4,0.8,0.6,1.3,0.6c0,0,0,0,0,0c0.3,0,0.5-0.2,0.5-0.5C14.2,27,14,26.8,13.7,26.8z"/>
      </g>
      </symbol>
    <symbol xmlns="http://www.w3.org/2000/svg" id="breketi" viewBox="0 0 40 40">
          <path d="M11.0004727,22.2030361 C10.968819,25.6475581 11.1504628,26.842951 12.0110817,27.8898364 C13.1519781,29.2776606 15.7075074,30 20.5,30 C25.2924926,30 27.8480219,29.2776606 28.9889183,27.8898364 C29.8495372,26.842951 30.031181,25.6475581 29.9995273,22.2030361 C27.9981729,22.6167014 25.9961947,22.8996552 23.9938449,23.0518149 C23.9663639,24.1324369 23.0817486,25 21.9945031,25 L19.0054969,25 C17.9182514,25 17.0336361,24.1324369 17.0061551,23.0518149 C15.0038053,22.8996552 13.0018271,22.6167014 11.0004727,22.2030361 Z M11.0189694,20.1634936 L11.2206072,20.2060105 C13.1494574,20.612723 15.0776683,20.8926098 17.0054969,21.0457549 L17.0054969,21 C17.0054969,19.8954305 17.9009274,19 19.0054969,19 L21.9945031,19 C23.0990726,19 23.9945031,19.8954305 23.9945031,21 L23.9945031,21.0457549 C25.9223317,20.8926098 27.8505426,20.612723 29.7793928,20.2060105 L29.9810306,20.1634936 C29.8345088,14.0797943 25.7288475,9 20.5,9 C15.2711525,9 11.1654912,14.0797943 11.0189694,20.1634936 Z M20.5,32 C15.1662449,32 12.0880436,31.1299235 10.4695244,29.161103 C9.15696277,27.5644595 8.9554914,26.0654122 9.00718035,21.862032 C9.01513594,21.2150785 9.01806134,20.8888577 9.01806134,20.5 C9.01806134,13.2530729 13.9558174,7 20.5,7 C27.0441826,7 31.9819387,13.2530729 31.9819387,20.5 C31.9819387,20.8888577 31.9848641,21.2150785 31.9928196,21.862032 C32.0445086,26.0654122 31.8430372,27.5644595 30.5304756,29.161103 C28.9119564,31.1299235 25.8337551,32 20.5,32 Z"/>
    </symbol>
    <symbol xmlns="http://www.w3.org/2000/svg" id="lechenieZubov" viewBox="0 0 40 40">
          <path d="M32.1952153,13.7690777 C31.6676917,12.2464339 30.9034156,11.0428362 29.9648458,10.2916428 C27.5935222,8.3934021 25.5011529,9.08804512 23.6552426,9.70039433 C22.6778471,10.0249269 21.667534,10.3600098 20.5365236,10.3832208 C19.4050912,10.3600098 18.3952002,10.0249269 17.4178046,9.70039433 C15.5714723,9.08804512 13.479103,8.3934021 11.1082014,10.2912207 C9.78854856,11.3479558 8.81115299,13.2938845 8.35621677,15.771557 C7.82742712,18.6514133 8.05109714,22.0233436 8.98629083,25.2661362 C9.96959471,28.6747821 11.6580919,31.769446 13.8694705,34.215889 C14.3260948,34.7210455 14.9637652,35 15.630555,35 C15.7634909,35 15.8972708,34.9886055 16.0310508,34.9662385 C16.8413269,34.8299264 17.516979,34.2973387 17.8381354,33.541081 C18.2998239,32.4543825 18.6741546,31.4601062 18.950577,30.5861052 C19.1700267,29.8923063 19.8072751,29.4259756 20.5365236,29.4259756 C21.2657721,29.4259756 21.9034425,29.8918843 22.1228923,30.5861052 C22.3988926,31.4601062 22.7732233,32.4543825 23.2349119,33.541503 C23.5560682,34.2973387 24.2317203,34.8299264 25.0419964,34.9662385 C25.8484744,35.1017065 26.6566404,34.821486 27.2035768,34.215889 C29.4153773,31.769446 31.1038746,28.6747821 32.0867565,25.2661362 C32.1247381,25.1344663 32.1597657,25.0019524 32.1952153,24.8694384 C33.6271251,19.878644 32.8708673,15.771557 32.1952153,13.7690777 Z M25.6003273,32.7670985 C25.547153,32.8257591 25.480052,32.8489702 25.4002903,32.8354656 C25.3424738,32.8257591 25.2648223,32.7936857 25.2234645,32.6966213 C24.7887851,31.6728037 24.4385096,30.7439402 24.1827661,29.9349302 C23.7130592,28.4481579 22.4098651,27.4163219 20.8796249,27.2808539 C21.2045794,27.0483215 21.578066,26.8997709 22.002195,26.8997709 C22.5989295,26.8997709 23.0829851,26.4157153 23.0829851,25.8189808 C23.0829851,25.2226682 22.5989295,24.7386126 22.002195,24.7386126 C18.6690904,24.7386126 17.3443733,28.6081031 17.112263,29.3837737 C17.0253271,29.5593335 16.9506298,29.7433337 16.8898591,29.9349302 C16.6341157,30.7439402 16.2842621,31.6728037 15.8491606,32.6961993 C15.8078029,32.7936857 15.7305734,32.8257591 15.6727568,32.8354656 C15.5929953,32.8493921 15.5254723,32.8257591 15.4722979,32.7670985 C11.5378165,28.4143964 9.485117,21.5861322 10.4810814,16.1619243 C10.8317791,14.2527112 11.571156,12.6887096 12.4586616,11.9784519 C13.2377084,11.3547081 13.904498,11.1664877 14.6261502,11.2158639 C13.9623146,12.317333 13.2782222,13.9281788 13.5786996,15.5875568 C13.5998004,15.7048781 13.6213234,15.8200892 13.6424243,15.9327681 C13.6985528,16.2370437 13.7491951,16.5109339 13.7871768,16.7645672 C13.7905529,16.8135214 13.7968833,16.8624756 13.8074337,16.9114297 C13.9479659,17.9829355 13.8070117,18.6974133 12.7439463,19.8123871 C12.3320559,20.2441123 12.3480926,20.9282048 12.7802399,21.3396732 C12.9891392,21.5392881 13.2575432,21.6384624 13.5255251,21.6384624 C13.8108099,21.6384624 14.0952506,21.5262055 14.307526,21.3033795 C15.6335091,19.9132495 16.0036196,18.7180922 16.01206,17.5710452 C16.8746664,17.5081644 18.1512733,17.6925866 18.6779528,19.1768267 C18.8349437,19.6195244 19.2514763,19.8963688 19.6962842,19.8963688 C19.8161375,19.8963688 19.938101,19.8761119 20.0575323,19.8339101 C20.6196613,19.6342951 20.9138085,19.0164596 20.7141935,18.4543305 C20.1010002,16.7253195 18.771219,15.6580339 16.9700426,15.4487126 C16.5265009,15.3972263 16.1087022,15.4035566 15.7474541,15.4343639 C15.7331056,15.3575565 15.719179,15.2811711 15.7048303,15.2026756 C15.4862246,13.9957018 16.2437483,12.6047278 16.8337306,11.7830572 C17.8934199,12.1345988 19.0919533,12.519058 20.5175328,12.5439571 L20.5550924,12.5439571 C22.0237179,12.518214 23.2517927,12.1105438 24.335537,11.7509837 C26.0966214,11.1664877 27.1592647,10.81368 28.6143856,11.9784519 C29.5018912,12.6887096 30.2408461,14.2527112 30.5915438,16.1619243 C31.5875082,21.5861322 29.5352307,28.4143964 25.6003273,32.7670985 Z M7.87806938,7.29193307 L5.75658091,3.97866337 C5.43500252,3.47603894 5.58144307,2.80798324 6.0840675,2.48598287 C6.58669193,2.16398249 7.25474762,2.31084503 7.576748,2.81346946 L9.69781448,6.12673916 C10.0193929,6.62936348 9.87295232,7.29741928 9.37032789,7.61899767 C9.19012594,7.73463077 8.98840089,7.78991526 8.78878602,7.78991526 C8.43260215,7.78991526 8.08401456,7.61393334 7.87806938,7.29193307 Z M7.10197687,10.4342851 C7.6995555,10.4034777 8.20429,10.8651662 8.23256518,11.4614789 C8.26126257,12.0573695 7.80126201,12.563792 7.20537145,12.5924893 L2.13228337,12.8359941 C2.11455853,12.8368381 2.09683379,12.8372602 2.07953105,12.8372602 C1.50642945,12.8372602 1.02912615,12.3869661 1.00127294,11.8083783 C0.972575686,11.2124877 1.43257613,10.7060652 2.02846669,10.67779 L7.10197687,10.4342851 Z M13.1030843,7.32611656 C12.5540378,7.0923182 12.2978724,6.4580239 12.5312488,5.90897735 L14.7637284,0.657797385 C14.9971048,0.108750833 15.631821,-0.146992511 16.1808675,0.0863838636 C16.7299139,0.319760346 16.9856574,0.954054535 16.752281,1.50310098 L14.5202234,6.75428105 C14.3450857,7.16574941 13.9454339,7.4122084 13.5251031,7.4122084 C13.3841488,7.4122084 13.2406624,7.3847772 13.1030843,7.32611656 Z"/>
    </symbol>
    <symbol xmlns="http://www.w3.org/2000/svg" id="lechenieDesen" viewBox="0 0 40 40">
          <path d="M9.08609649,23.5663129 C8.37022432,24.1733537 8.02356241,24.8323475 8.02356241,25.5217391 C8.02356241,25.7400691 8.01975631,25.9189779 8.00957539,26.267968 C7.9596416,27.9796409 8.07726855,28.3485625 8.99470548,28.8189868 C10.5132695,29.5976446 13.8902157,30 20,30 C26.1097843,30 29.4867305,29.5976446 31.0052945,28.8189868 C31.9227315,28.3485625 32.0403584,27.9796409 31.9904246,26.267968 C31.9802437,25.9189779 31.9764376,25.7400691 31.9764376,25.5217391 C31.9764376,24.8320274 31.63051,24.1741434 30.9137384,23.5664537 C29.6929279,24.6079024 28.1775186,25.2323838 26.4959881,25.2323838 C23.6436425,25.2323838 21.269288,23.4355235 20,20.8546408 C18.730712,23.4355235 16.3563575,25.2323838 13.5040119,25.2323838 C11.8224056,25.2323838 10.3069354,24.6078461 9.08609649,23.5663129 Z M7.74075992,22.08763 C6.65093459,20.5521588 6.01124676,18.5866938 6.01124676,16.4973926 C6.01124676,16.2588042 6.00944511,16.0580873 6.00453608,15.6592628 C5.97131365,12.9601702 6.10285109,11.9823997 6.99713216,10.8956043 C8.09074901,9.56656149 10.0970732,9 13.5040119,9 C16.8996716,9 18.9039751,9.56281639 20,10.8824296 C21.0960249,9.56281639 23.1003284,9 26.4959881,9 C29.9029268,9 31.909251,9.56656149 33.0028678,10.8956043 C33.8971489,11.9823997 34.0286863,12.9601702 33.9954639,15.6592628 C33.9905549,16.0580873 33.9887532,16.2588042 33.9887532,16.4973926 C33.9887532,18.5866811 33.3490732,20.5521347 32.2592601,22.0876019 C33.3669502,23.0489979 33.9752032,24.2144006 33.9752032,25.5217391 C33.9752032,25.7147484 33.9787057,25.8793872 33.9883392,26.2096118 C34.0585307,28.6156949 33.7212,29.6736884 31.9168325,30.5988946 C30.0199676,31.5715297 26.4238406,32 20,32 C13.5761594,32 9.98003244,31.5715297 8.08316751,30.5988946 C6.27879995,29.6736884 5.94146935,28.6156949 6.01166083,26.2096118 C6.02129431,25.8793872 6.02479683,25.7147484 6.02479683,25.5217391 C6.02479683,24.2131126 6.63314203,23.0487501 7.74075992,22.08763 Z M20.9994328,16.0139824 C21.0012459,16.1990319 21.0019886,16.339702 21.0019886,16.4973926 C21.0019886,20.1600802 23.430358,23.2323838 26.4959881,23.2323838 C29.5616183,23.2323838 31.9899877,20.1600802 31.9899877,16.4973926 C31.9899877,16.2481196 31.9918434,16.041378 31.9968499,15.634632 C32.0237408,13.4499345 31.9276076,12.7353379 31.4598386,12.1668709 C30.8443006,11.4188244 29.3611475,11 26.4959881,11 C23.6308288,11 22.1476756,11.4188244 21.5321376,12.1668709 C21.1767912,12.5987139 21.0359108,13.1148863 21.0005074,14.2958054 C21.0101637,14.6966167 21.0097939,15.1469298 21.0034877,15.6592628 C21.0017772,15.7982267 21.000444,15.9131391 20.9994328,16.0139824 Z M18.9994926,14.2958054 C18.9640892,13.1148863 18.8232088,12.5987139 18.4678624,12.1668709 C17.8523244,11.4188244 16.3691712,11 13.5040119,11 C10.6388525,11 9.15569941,11.4188244 8.54016141,12.1668709 C8.0723924,12.7353379 7.9762592,13.4499345 8.00315007,15.634632 C8.0081566,16.041378 8.01001234,16.2481196 8.01001234,16.4973926 C8.01001234,20.1600802 10.4383817,23.2323838 13.5040119,23.2323838 C16.569642,23.2323838 18.9980114,20.1600802 18.9980114,16.4973926 C18.9980114,16.339702 18.9987541,16.1990319 19.0005672,16.0139824 C18.999556,15.9131391 18.9982228,15.7982266 18.9965123,15.6592628 C18.9902061,15.1469298 18.9898363,14.6966167 18.9994926,14.2958054 Z"/>
    </symbol>
    <symbol xmlns="http://www.w3.org/2000/svg" id="udalenie" viewBox="0 0 40 40">
          <path d="M28.337 12.94c.42.035.837-.128 1.085-.418a.931.931 0 0 0 .234-.61c0-.327-.172-.628-.48-.827l-.123-.08a.851.851 0 0 1-.387-.572.807.807 0 0 1 .187-.66l1.682-1.97c.312-.366.886-.438 1.296-.169l1.269.836c2.02 1.33 2.504 3.835 1.09 5.689l-1.359 1.781c-.403.528-1.04.87-1.748.94l-1.49.148c1.064 1.624 1.2 3.634.335 5.365l-1.5 3-4.837 9.679c-.516 1.031-1.618 1.732-2.875 1.835l-1.038.086a2.325 2.325 0 0 1-.183.007c-.614 0-1.185-.257-1.554-.706a1.583 1.583 0 0 1-.214-1.735l.053-.11 6.552-13.356a.892.892 0 0 0 0-.794l-1.296-2.62-3.237.321a1.244 1.244 0 0 0-.828.418l-1.383 1.638c-.01.018-.01.018-.027.039L9.064 30.2c-.37.44-.935.692-1.543.692-.068 0-.136-.003-.204-.01-.682-.062-1.266-.432-1.558-.993l-.435-.837c-.538-1.033-.398-2.249.36-3.163l1.819-2.194c.308-.372.883-.45 1.297-.183.433.28.53.833.207 1.222L7.19 26.928a1.238 1.238 0 0 0-.161 1.385l.435.837c.006.012.02.018.044.02.028.003.047-.002.06-.018l7.842-9.327-1.64-.836-1.882 2.27c-.308.372-.884.45-1.298.183-.432-.28-.529-.833-.206-1.222l2.369-2.858c-.015.026-.026.066-.05.15l.056-.157.118-.072-.065.024a.413.413 0 0 0-.034.024l2.177-2.625c1.265-1.527 3.302-2.42 5.422-2.405l-.587-1.187a1.977 1.977 0 0 1 .044-1.855l1.069-1.93c1.103-1.994 3.76-2.863 6.052-1.992l1.454.553c.483.183.715.695.5 1.14l-1.09 2.27a.91.91 0 0 1-.524.457 1.03 1.03 0 0 1-.706-.01l-.145-.055a1.358 1.358 0 0 0-.494-.093c-.49 0-.927.255-1.113.641a.905.905 0 0 0 .123.982l1.238 1.54 2.14.178zm-6.117 3.09l-.964-1.95-.492-.04c-1.67-.139-3.322.517-4.306 1.704l-1.54 1.859 1.652.842.905-1.076c.509-.605 1.281-.997 2.12-1.08l2.625-.26zm-2.772 19.233c.013.012.026.018.06.016l1.039-.086c.587-.048 1.095-.371 1.328-.837l4.476-8.955-1.651-.841-5.252 10.703zm8.294-17.67l-4.304-5.352c-.634-.79-.758-1.8-.328-2.694.489-1.017 1.604-1.669 2.84-1.669.16 0 .319.011.475.033l.37-.77-.567-.215c-1.386-.527-2.988-.002-3.643 1.18l-1.069 1.93a.39.39 0 0 0-.008.368l4.543 9.186c.346.701.347 1.507.003 2.208l-.581 1.184 1.663.848 1.076-2.152c.666-1.332.486-2.896-.47-4.085zm3.135-2.423a.581.581 0 0 0 .406-.214l1.359-1.781c.823-1.079.543-2.526-.647-3.31l-.53-.35-.588.689c.427.484.665 1.086.665 1.708 0 .607-.22 1.185-.631 1.667-.642.753-1.693 1.162-2.745 1.075l-.48-.04.65.808 2.541-.252z"/>
    </symbol>
    <symbol xmlns="http://www.w3.org/2000/svg" id="chistka" viewBox="0 0 40 40">
          <path d="M39.004 4.001H28.986a2.982 2.982 0 0 0-1.021.153l-5.517 1.84H10.98A2.992 2.992 0 0 0 7.992 8.98c0 1.299.833 2.406 1.992 2.817v2.504A5.998 5.998 0 0 0 6 19.937c0 2.358 1.372 4.4 3.36 5.373-.89 3.745.254 7.619 2.908 10.273.59.59 1.667.242 1.738-.623.227-2.791 1.551-5.062 2.951-5.062 1.4 0 2.724 2.272 2.951 5.065.072.882 1.157 1.2 1.738.62a10.946 10.946 0 0 0 2.908-10.273 5.984 5.984 0 0 0 3.36-5.373 5.998 5.998 0 0 0-3.984-5.635v-2.504l.03-.009 5.436-1.813h9.608c.55 0 .996-.444.996-.995V4.997a.996.996 0 0 0-.996-.996zm-25.035 7.967v3.986h-.996a.997.997 0 0 1-.996-.996v-2.99h1.992zm3.984 0v3.986h-1.992v-3.986h1.992zm3.985 0v2.99c0 .55-.447.996-.997.996h-.996v-3.986h1.992zm3.984 7.97a3.989 3.989 0 0 1-3.985 3.984.996.996 0 1 0 0 1.992c.238 0 .473-.015.704-.042a9.012 9.012 0 0 1-1.136 6.7c-.776-2.8-2.514-4.666-4.548-4.666-2.034 0-3.773 1.866-4.549 4.666a9.012 9.012 0 0 1-1.135-6.7c.231.027.466.042.704.042a.996.996 0 0 0 0-1.992 3.989 3.989 0 0 1-3.985-3.985 4 4 0 0 1 2.32-3.62 2.99 2.99 0 0 0 2.66 1.628h7.97a2.99 2.99 0 0 0 2.66-1.628 4 4 0 0 1 2.32 3.62zM38.008 7.984h-8.774a.991.991 0 0 0-.315.051l-5.512 1.838-.639.104H10.98a.997.997 0 0 1 0-1.994h11.63a.991.991 0 0 0 .315-.051l5.671-1.89c.166-.056.267-.051.38-.051h9.032v1.993z"/>
    </symbol>
    <symbol xmlns="http://www.w3.org/2000/svg" id="diagnostika" viewBox="0 0 40 40">
          <path class="st0" d="M27.6,21.2c-2.5-1.1-5.1-1.7-7.6-1.7s-5,0.6-7.6,1.7c-0.1,0.9,0.2,2.5,0.8,4.2c0.6,1.8,1.5,3.3,2.3,4.2  c0.4,0.5,0.7,0.6,0.9,0.6l0,0l0,0l0,0c0-0.3-0.1-0.7-0.2-1.1C16,28,15.6,26.6,16,25.2c0.4-1.7,1.6-3.1,3.6-4c0.2-0.1,0.5-0.1,0.8,0  c2,0.9,3.3,2.2,3.7,4c0.3,1.4,0,2.8-0.2,3.9c-0.1,0.3-0.2,0.8-0.2,1.1l0,0l0,0c0.2,0,0.8-0.3,1.8-1.8c0.3-0.4,0.9-0.6,1.3-0.3  c0.4,0.3,0.6,0.8,0.3,1.3c-1.1,1.8-2.2,2.7-3.4,2.7c-0.1,0-0.1,0-0.2,0c-0.6,0-1.1-0.2-1.4-0.6c-0.6-0.7-0.4-1.7-0.1-2.8  c0.4-1.9,0.9-4.1-2-5.6c-2.9,1.5-2.4,3.7-2,5.6c0.2,1.1,0.5,2-0.1,2.7c-0.3,0.4-0.8,0.6-1.4,0.6c-0.1,0-0.1,0-0.2,0  c-0.7,0-1.5-0.4-2.2-1.2c-1-1-2-2.8-2.7-4.8c-0.7-1.9-1-3.6-0.9-4.8C9.9,20.1,8,16.8,8,14c0-3.4,2.8-6,6.5-6h0.1  c1.6,0,2.6,0.4,3.5,0.7c0.8,0.3,1.6,0.6,2.7,0.6C22.1,8.4,23.7,8,25.4,8c1.7,0,3.4,0.6,4.6,1.6c1.3,1.1,2,2.7,2,4.4  c0,2.7-1.9,6.1-2.5,7.1c0.1,1.2-0.2,2.6-0.5,3.6c-0.2,0.5-0.7,0.8-1.2,0.6c-0.5-0.2-0.7-0.6-0.6-1.1C27.5,23,27.7,21.9,27.6,21.2  L27.6,21.2z M28.3,19.3c0.7-1.3,1.8-3.6,1.8-5.3c0-2.4-2-4.2-4.7-4.2c-2.5,0-4.4,1.1-5.9,3.5c-0.3,0.4-0.9,0.6-1.3,0.3  s-0.6-0.9-0.3-1.3c0.3-0.5,0.6-0.9,1-1.3c-0.6-0.1-1.1-0.3-1.6-0.5c-0.9-0.3-1.6-0.6-2.9-0.6c-2.3,0-4.7,1.4-4.7,4.2  c0,1.7,1.1,4,1.8,5.3c2.8-1.2,5.6-1.8,8.3-1.8S25.6,18.1,28.3,19.3z M28.2,14c0,0.5-0.4,0.9-0.9,0.9s-0.9-0.4-0.9-0.9  c0-0.1,0-0.1-0.1-0.2c-0.1-0.1-0.4-0.2-0.9-0.3c-0.5,0-0.9-0.4-0.9-0.9s0.4-0.9,0.9-0.9l0,0c0.8,0,1.6,0.3,2.1,0.7  C28,12.9,28.2,13.4,28.2,14L28.2,14z"/>
    </symbol>
    <symbol xmlns="http://www.w3.org/2000/svg" id="otbelivanie" viewBox="0 0 40 40">
           <path d="M31.2730804,13.6338228 C30.7691728,11.9592548 29.9925372,10.6434452 29.0205884,9.85258658 C26.7783948,8.02555508 24.8714295,8.66973085 23.0273193,9.29222945 C22.0681547,9.61630443 21.0763197,9.95121808 19.9559331,9.97397922 C19.3902355,9.96277928 18.8572085,9.87137354 18.3447781,9.74203252 C18.6157306,9.58667889 18.9026632,9.45842176 19.2013145,9.36087415 L19.8913022,9.13543067 C20.3902382,8.97068351 20.7229806,8.5038998 20.7222703,7.97352966 C20.7212051,7.44315933 20.3873973,6.97818223 19.8913022,6.81632537 L19.2013145,6.59052053 C17.7844072,6.12698858 16.6665064,4.98929377 16.2108944,3.54703357 L15.9882376,2.84324537 C15.8273706,2.33852648 15.369983,2 14.8490299,2 C14.3259462,2.00072258 13.8689136,2.34069425 13.7094672,2.84541305 L13.4878757,3.54739493 C13.0322636,4.98965513 11.9140078,6.12698858 10.4963902,6.59052053 L9.80675764,6.81632537 C9.31066256,6.97818223 8.97649974,7.44315933 8.97578947,7.97352966 C8.9747241,8.5038998 9.30782164,8.97068351 9.80640255,9.13543067 L10.4971004,9.36123541 C10.7265045,9.43602197 10.9498716,9.53067928 11.1654261,9.64159461 C11.0741616,9.70879406 10.9825421,9.77816128 10.8909225,9.85258658 C9.63701281,10.874308 8.70590237,12.76601 8.26982163,15.1794113 C7.76058733,18.0021515 7.9768521,21.3090172 8.8788432,24.4905161 C9.82699915,27.8360395 11.4555548,30.8730232 13.588373,33.2734182 C14.0876642,33.8344979 14.8238168,34.094625 15.5592592,33.968897 C16.2986077,33.8428075 16.9150867,33.348566 17.2087665,32.6462229 C17.6540801,31.5797018 18.0155869,30.6020575 18.2836984,29.7407478 C18.5148779,28.996134 19.1867549,28.4961119 19.9559331,28.4961119 C20.3323545,28.4961119 20.6906651,28.6149756 20.9932228,28.8404191 C21.2961355,29.0658626 21.5155964,29.3769312 21.6285228,29.7407478 C21.8948588,30.5980834 22.2570757,31.5753664 22.704165,32.6462229 C22.9967794,33.3474822 23.6125481,33.8417237 24.3511865,33.9685356 C24.4737011,33.9898516 24.5965707,33.9999676 24.71802,33.9999676 C25.3259762,33.9999676 25.9072987,33.741647 26.3238482,33.2741408 C28.4570216,30.8726619 30.085222,27.8356782 31.0333781,24.4905161 C31.1210913,24.1816151 31.727272,22.116495 32,19.110582 C32,17.4920134 32,15.7809552 31.2730804,13.6338228 Z M14.8497401,5.03517733 C15.4740316,6.30546462 16.4903696,7.33983112 17.7385975,7.97533608 C16.9960528,8.35252036 16.3291476,8.87349707 15.7765893,9.51225359 C15.4058496,9.94110203 15.0958346,10.4100534 14.8490299,10.9136883 C14.5560604,10.3175638 14.1746673,9.76768397 13.7190552,9.287894 C13.6537141,9.2192494 13.5873078,9.15204985 13.5191258,9.08629555 C13.5187706,9.08629555 13.5187706,9.08629555 13.5184155,9.08593419 C13.0574767,8.64082784 12.5287111,8.26545006 11.9594624,7.97569734 C13.2084005,7.34055374 14.2254487,6.30582598 14.8497401,5.03517733 Z M24.9765434,32.0320339 C24.8636169,32.1588459 24.7258324,32.1570395 24.6540992,32.1443944 C24.5802354,32.1317493 24.4460021,32.0862271 24.3778201,31.9229251 C23.953103,30.9062617 23.6114828,29.9838944 23.3625474,29.1836423 C23.1327884,28.4419188 22.6846337,27.8067752 22.0670894,27.3475786 C21.4516758,26.8887433 20.7215601,26.645958 19.9562881,26.645958 C19.9431489,26.645958 19.9300097,26.6466806 19.9172256,26.6470419 C20.3138886,26.2673286 20.79862,26.0006983 21.3792324,26.0006983 C21.8813644,26.0006983 22.2883258,25.5863014 22.2883258,25.075802 C22.2883258,24.5649413 21.8813644,24.1505444 21.3792324,24.1505444 C18.2229738,24.1505444 16.9722601,27.9296129 16.7627425,28.6478528 C16.6792906,28.8180192 16.6079126,28.9964953 16.5500289,29.1825585 C16.299318,29.9882298 15.9580528,30.9105971 15.5358215,31.9222025 C15.4672844,32.0862271 15.3323409,32.1317493 15.258122,32.1443944 C15.1863888,32.1566782 15.0493146,32.1584846 14.9370984,32.0327565 C11.0908521,27.7038082 9.08445458,20.910517 10.0581788,15.5136024 C10.4100974,13.5666234 11.127784,12.0297058 12.0272892,11.2970145 C12.2435541,11.1214287 12.454137,10.9769137 12.6632995,10.8620242 C12.7179872,10.9299462 12.770189,10.9996748 12.8209704,11.0708485 C12.8362404,11.0918031 12.8504449,11.1134804 12.8653597,11.1347963 C12.9022916,11.1882669 12.9385134,11.2424601 12.9733146,11.2973758 C12.986809,11.3194143 13.0010135,11.3410916 13.0145078,11.3634914 C13.0599625,11.438278 13.1043519,11.513787 13.1455451,11.5911026 C13.1459003,11.5914639 13.1459003,11.5914639 13.1462554,11.5918252 C13.1878038,11.669502 13.2265113,11.748624 13.2637983,11.8284686 C13.2744517,11.8519523 13.28475,11.875436 13.2954035,11.8989197 C13.3220371,11.9588934 13.3476054,12.0192285 13.3721083,12.0806474 C13.3816964,12.1044923 13.3912845,12.1286986 13.4005174,12.1525436 C13.4317675,12.2352784 13.4615972,12.3187359 13.4882308,12.4029159 L13.7098223,13.1048977 C13.8692687,13.6096166 14.3263012,13.9495883 14.8476095,13.9503108 L14.849385,13.9503108 C15.3049971,13.9503108 15.7126687,13.6912676 15.915439,13.2869867 C15.9445585,13.2291807 15.9694165,13.1684844 15.9893029,13.105259 L16.2116047,12.4025546 C16.2332666,12.33391 16.2570593,12.2659879 16.2815622,12.1987884 C16.2883094,12.180724 16.2950566,12.1630209 16.3018037,12.1449565 C16.3238209,12.0867893 16.3469033,12.0289832 16.3710511,11.9718998 C16.3749574,11.9625063 16.3788637,11.9527515 16.3827699,11.943358 C16.4111791,11.8783263 16.4410086,11.8140171 16.4719036,11.7504305 C16.4797162,11.7345338 16.4875287,11.7189984 16.4956963,11.7031018 C16.5219749,11.6507151 16.5489635,11.5986897 16.5770176,11.5473868 C16.584475,11.5343805 16.5915772,11.5210128 16.5986796,11.5080064 C16.6334808,11.4462262 16.6693474,11.3855299 16.7066345,11.3259175 C16.7144469,11.3129111 16.7229697,11.3002661 16.7311373,11.287621 C16.7485379,11.2601632 16.7670039,11.2330666 16.7851148,11.20597 C17.7098332,11.5098129 18.744282,11.8031785 19.9406631,11.8241331 L19.9722683,11.8241331 C21.3767466,11.798843 22.5582129,11.3999814 23.6004743,11.0480873 C25.2943709,10.476169 26.413337,10.0979009 27.8845769,11.2966532 C28.7844372,12.0289832 29.5021239,13.5659008 29.8540424,15.5136024 C30.8274115,20.9101556 28.8217242,27.702363 24.9765434,32.0320339 Z M26.8014773,13.8321698 C26.3618454,14.0785679 26.2002683,14.6382024 26.4424565,15.0858378 C26.5006952,15.1971144 27.8536819,17.869559 26.379246,22.3693964 C26.2205098,22.8538831 26.4779678,23.3777502 26.9545317,23.539607 C27.0497024,23.5717616 27.1466487,23.587297 27.2421745,23.587297 C27.6228573,23.587297 27.9776168,23.3419827 28.1043928,22.9543211 C29.8469401,17.6365285 28.1129156,14.3368886 28.0383415,14.1988767 C27.7957982,13.7516026 27.2414643,13.5857716 26.8014773,13.8321698 Z M26.8693042,24.9905381 C26.8465769,24.9348998 26.8185228,24.881068 26.7858522,24.8312102 C26.7521164,24.7802687 26.7137639,24.7333013 26.6722156,24.6906694 C26.6303121,24.6469536 26.583792,24.6093797 26.534076,24.5750573 C26.484715,24.5418188 26.4321581,24.5129158 26.3774705,24.4897934 C26.3220726,24.466671 26.2648991,24.4493292 26.2077257,24.4370455 C26.0901828,24.4132005 25.9694437,24.4132005 25.8519009,24.4370455 C25.7936621,24.4493292 25.7364886,24.466671 25.682156,24.4897934 C25.6264031,24.5129158 25.5738461,24.5418188 25.5248403,24.5750573 C25.4747691,24.6093797 25.4282492,24.6480375 25.3863456,24.6906694 C25.3447972,24.7333013 25.3064448,24.7802687 25.2737743,24.8312102 C25.2411037,24.881068 25.2126946,24.9348998 25.1899672,24.9905381 C25.1672399,25.0465377 25.1501944,25.1039824 25.1384756,25.1632336 C25.1264017,25.2232074 25.1203648,25.2835424 25.1203648,25.3446 C25.1203648,25.4045737 25.1264017,25.4656314 25.1384756,25.5248825 C25.1501944,25.5841337 25.1672399,25.642301 25.1899672,25.6979393 C25.2126946,25.7535776 25.2411037,25.808132 25.2737743,25.8579897 C25.3064448,25.9078474 25.3447972,25.9558987 25.3863456,25.9985306 C25.4282492,26.0411625 25.4747691,26.0798203 25.5248403,26.1130588 C25.5738461,26.1466585 25.6264031,26.1752002 25.682156,26.1983226 C25.7364886,26.221445 25.7940172,26.2391482 25.8519009,26.2510706 C25.9101397,26.2629931 25.970154,26.2694963 26.0294582,26.2694963 C26.0884071,26.2694963 26.1484215,26.2629931 26.2073706,26.2510706 C26.2648991,26.2391482 26.3220726,26.221445 26.3774705,26.1983226 C26.4321581,26.1752002 26.484715,26.1466585 26.5337209,26.1130588 C26.583792,26.0798203 26.6303121,26.0411625 26.6718605,25.9985306 C26.7137639,25.9558987 26.7521164,25.9078474 26.7854971,25.8579897 C26.8185228,25.808132 26.8465769,25.7535776 26.8693042,25.6979393 C26.8920315,25.642301 26.9094321,25.5841337 26.9211509,25.5248825 C26.9328697,25.4656314 26.9385516,25.4045737 26.9385516,25.3446 C26.9385516,25.2835424 26.9328697,25.2232074 26.9211509,25.1632336 C26.9094321,25.1039824 26.8920315,25.046899 26.8693042,24.9905381 Z"/>
    </symbol>
    <symbol xmlns="http://www.w3.org/2000/svg" id="check" viewBox="0 0 24 25">
           <path d="M8.93362564,25 C8.15098619,25 7.41078766,24.636426 6.93494575,24.0128503 L0.508382449,15.5852914 C-0.327487996,14.4892123 -0.109888332,12.9284871 0.993935419,12.0981242 C2.09955751,11.2674041 3.67023145,11.4849056 4.50646157,12.5802704 L8.73329008,18.122452 L19.3640228,1.17304792 C20.0959489,0.00696835051 21.641446,-0.349819855 22.8182826,0.375899498 C23.9936804,1.10233314 24.3526299,2.63805815 23.6203441,3.80520916 L11.062146,23.8267775 C10.6258677,24.5228538 9.87272105,24.960714 9.04800034,24.9978571 C9.00951577,24.9992857 8.97175054,25 8.93362564,25 Z"/>
    </symbol>
    <symbol xmlns="http://www.w3.org/2000/svg" id="checkbox" viewBox="0 0 352.62 352.62">
          <path d="M337.222,22.952c-15.912-8.568-33.66,7.956-44.064,17.748c-23.867,23.256-44.063,50.184-66.708,74.664
		c-25.092,26.928-48.348,53.856-74.052,80.173c-14.688,14.688-30.6,30.6-40.392,48.96c-22.032-21.421-41.004-44.677-65.484-63.648
		c-17.748-13.464-47.124-23.256-46.512,9.18c1.224,42.229,38.556,87.517,66.096,116.28c11.628,12.24,26.928,25.092,44.676,25.704
		c21.42,1.224,43.452-24.48,56.304-38.556c22.645-24.48,41.005-52.021,61.812-77.112c26.928-33.048,54.468-65.485,80.784-99.145
		C326.206,96.392,378.226,44.983,337.222,22.952z M26.937,187.581c-0.612,0-1.224,0-2.448,0.611
		c-2.448-0.611-4.284-1.224-6.732-2.448l0,0C19.593,184.52,22.653,185.132,26.937,187.581z"/>
    </symbol>
    <symbol xmlns="http://www.w3.org/2000/svg" id="close" viewBox="0 0 492 492">
        <path d="M300.188,246L484.14,62.04c5.06-5.064,7.852-11.82,7.86-19.024c0-7.208-2.792-13.972-7.86-19.028L468.02,7.872
			c-5.068-5.076-11.824-7.856-19.036-7.856c-7.2,0-13.956,2.78-19.024,7.856L246.008,191.82L62.048,7.872
			c-5.06-5.076-11.82-7.856-19.028-7.856c-7.2,0-13.96,2.78-19.02,7.856L7.872,23.988c-10.496,10.496-10.496,27.568,0,38.052
			L191.828,246L7.872,429.952c-5.064,5.072-7.852,11.828-7.852,19.032c0,7.204,2.788,13.96,7.852,19.028l16.124,16.116
			c5.06,5.072,11.824,7.856,19.02,7.856c7.208,0,13.968-2.784,19.028-7.856l183.96-183.952l183.952,183.952
			c5.068,5.072,11.824,7.856,19.024,7.856h0.008c7.204,0,13.96-2.784,19.028-7.856l16.12-16.116
			c5.06-5.064,7.852-11.824,7.852-19.028c0-7.204-2.792-13.96-7.852-19.028L300.188,246z"/>
    </symbol>
    <symbol xmlns="http://www.w3.org/2000/svg" id="children" viewBox="0 0 512.002 512.002">
       <g>
	<g>
		<path d="M461.381,67.219c-3.74-2.458-8.767-1.417-11.225,2.325c-2.458,3.742-1.417,8.767,2.325,11.225
			c22.042,14.478,36.268,35.167,41.284,59.502c-3.67-2.776-7.892-5.643-12.603-8.315c-23.977-13.6-49.159-15.726-72.827-6.153
			c-33.217,13.438-49.639,6.059-59.104-0.664c-2.636-1.869-5.204-4.065-7.851-6.713c-3.165-3.167-8.297-3.168-11.463-0.002
			c-3.166,3.164-3.167,8.297-0.002,11.462c1.441,1.441,2.873,2.765,4.31,4.017c-8.538,11.881-28.514,17.122-40.296,18.803
			c-4.482-8.776-13.102-29.128-6.139-44.797c15.248-34.309,62.288-46.483,97.935-46.483c16.919,0,33.87,3.412,49.017,9.867
			c4.123,1.755,8.88-0.162,10.635-4.28c1.755-4.119-0.16-8.879-4.279-10.635c-17.141-7.304-36.288-11.164-55.373-11.164
			c-64.743,0-100.693,28.984-112.749,56.11c-10.821,24.347,3.354,53.249,8.147,61.844l-0.656,6.789
			c-14.472,1.863-25.694,14.254-25.694,29.226c0,13.029,8.396,24.097,20.18,27.986c-2.399,26.98,9.673,53.568,31.61,69.508
			l1.716,1.247c-24.469,11.321-40.967,36.113-40.967,64.065v96.692c0,4.477,3.628,8.106,8.106,8.106H484.27
			c4.478,0,8.106-3.629,8.106-8.106V361.99c0-13.89-4.033-27.333-11.667-38.877c-2.468-3.734-7.497-4.76-11.232-2.291
			c-3.734,2.469-4.76,7.498-2.29,11.232c5.874,8.884,8.978,19.235,8.978,29.937v43.702h-24.252v-30.367
			c0-4.477-3.628-8.106-8.106-8.106s-8.106,3.629-8.106,8.106v75.251H323.992v-75.251c0-4.477-3.628-8.106-8.106-8.106
			c-4.478,0-8.106,3.629-8.106,8.106v30.367h-24.253v-43.702c0-21.283,12.408-40.189,30.887-49.044
			c1.209,7.267,3.611,14.311,7.13,20.776c1.471,2.702,4.254,4.232,7.128,4.232c1.309,0,2.637-0.318,3.868-0.988
			c3.932-2.14,5.383-7.063,3.244-10.994c-1.94-3.564-3.427-7.365-4.446-11.301l12.828,9.319c10.67,7.759,23.172,11.637,35.68,11.637
			c12.503,0,25.011-3.879,35.683-11.635l12.849-9.333c-5.608,21.558-25.236,37.52-48.524,37.52c-11.484,0-22.286-3.776-31.239-10.92
			c-3.499-2.792-8.601-2.218-11.391,1.281c-2.793,3.5-2.219,8.6,1.281,11.392c11.686,9.324,26.371,14.458,41.35,14.458
			c32.87,0,60.218-24.033,65.435-55.445c2.391,1.148,4.704,2.473,6.931,3.978c1.392,0.941,2.971,1.393,4.534,1.393
			c2.6,0,5.155-1.249,6.722-3.565c2.507-3.708,1.535-8.748-2.173-11.255c-3.163-2.139-6.467-3.99-9.885-5.573l1.714-1.245
			c21.939-15.941,34.01-42.531,31.609-69.511c11.78-3.893,20.172-14.958,20.172-27.982c0-14.966-11.217-27.354-25.686-29.223
			l-0.908-9.402c-0.429-4.457-4.391-7.715-8.847-7.29c-4.456,0.43-7.72,4.391-7.289,8.847l6.375,66.027
			c2.077,21.49-7.486,42.725-24.955,55.418L406,310.878c-15.647,11.371-36.663,11.371-52.302-0.001l-37.602-27.315
			c-17.47-12.694-27.034-33.929-24.957-55.42l5.747-59.516c12.414-1.874,38.241-7.808,50.737-25.562
			c18.252,9.274,40.208,8.519,66.793-2.236c19.041-7.704,38.664-6.028,58.319,4.983c15.281,8.558,24.863,19.788,24.947,19.888
			c1.57,1.874,3.862,2.9,6.214,2.9c0.926,0,1.863-0.159,2.769-0.488c3.203-1.165,5.336-4.21,5.336-7.617
			C512,121.784,494.023,88.657,461.381,67.219z M276.601,210.036c-3.405-2.404-5.612-6.369-5.612-10.852
			c0-5.376,3.22-10.004,7.828-12.086L276.601,210.036z M451.915,421.903h24.252v28.673h-24.252V421.903z M307.781,421.903v28.673
			h-24.253v-28.673H307.781z M488.699,199.184c0,4.479-2.205,8.441-5.606,10.844l-2.213-22.925
			C485.483,189.188,488.699,193.813,488.699,199.184z"/>
	</g>
</g>
<g>
	<g>
		<path d="M339.067,206.754c-4.478,0-8.106,3.629-8.106,8.106v10.988c0,4.477,3.628,8.106,8.106,8.106s8.106-3.629,8.106-8.106
			v-10.988C347.172,210.383,343.544,206.754,339.067,206.754z"/>
	</g>
</g>
<g>
	<g>
		<path d="M442.062,182.564c-5.727-5.727-13.341-8.88-21.439-8.88c-8.098,0-15.712,3.154-21.439,8.88
			c-3.165,3.165-3.165,8.298,0.001,11.463c3.164,3.166,8.297,3.164,11.462,0c2.664-2.664,6.207-4.132,9.974-4.132
			c3.767,0,7.311,1.468,9.974,4.132c1.584,1.582,3.658,2.373,5.733,2.373c2.074,0,4.149-0.791,5.731-2.373
			C445.227,190.862,445.227,185.73,442.062,182.564z"/>
	</g>
</g>
<g>
	<g>
		<path d="M360.505,182.564c-5.727-5.727-13.341-8.88-21.439-8.88s-15.712,3.154-21.439,8.88c-3.167,3.165-3.167,8.297-0.001,11.462
			c3.166,3.165,8.298,3.165,11.462,0c2.665-2.665,6.208-4.133,9.976-4.133c3.768,0,7.311,1.468,9.974,4.132
			c1.584,1.584,3.658,2.375,5.733,2.375c2.074,0,4.149-0.791,5.731-2.373C363.671,190.862,363.671,185.73,360.505,182.564z"/>
	</g>
</g>
<g>
	<g>
		<path d="M420.623,206.754c-4.478,0-8.106,3.629-8.106,8.106v10.988c0,4.477,3.628,8.106,8.106,8.106s8.106-3.629,8.106-8.106
			v-10.988C428.729,210.383,425.1,206.754,420.623,206.754z"/>
	</g>
</g>
<g>
	<g>
		<path d="M403.388,269.357c-3.167-3.165-8.298-3.165-11.464,0c-6.66,6.661-17.5,6.661-24.16,0c-3.167-3.165-8.298-3.165-11.464,0
			c-3.165,3.166-3.165,8.298,0,11.462c6.491,6.491,15.017,9.736,23.543,9.736c8.527,0,17.052-3.245,23.544-9.736
			C406.554,277.654,406.554,272.521,403.388,269.357z"/>
	</g>
</g>
<g>
	<g>
		<path d="M386.715,207.67c-4.478,0-8.106,3.629-8.106,8.106v19.375h-5.634c-4.477,0-8.106,3.629-8.106,8.106
			s3.628,8.106,8.106,8.106h13.74c4.478,0,8.106-3.629,8.106-8.106v-27.48C394.82,211.299,391.192,207.67,386.715,207.67z"/>
	</g>
</g>
<g>
	<g>
		<path d="M186.445,232.643c-5.496-5.497-12.805-8.524-20.577-8.524c-7.774,0-15.083,3.027-20.58,8.524
			c-3.166,3.165-3.166,8.298,0,11.462c3.165,3.165,8.298,3.165,11.462,0c2.435-2.435,5.673-3.776,9.116-3.776
			c3.443,0,6.681,1.341,9.116,3.776c1.582,1.582,3.657,2.374,5.731,2.374c2.074,0,4.149-0.791,5.731-2.374
			C189.61,240.94,189.61,235.807,186.445,232.643z"/>
	</g>
</g>
<g>
	<g>
		<path d="M109.355,232.643c-5.497-5.497-12.806-8.524-20.578-8.524c-7.774,0-15.083,3.027-20.58,8.524
			c-3.166,3.165-3.166,8.298,0,11.462c3.166,3.165,8.298,3.165,11.462,0c2.435-2.435,5.673-3.776,9.116-3.776
			s6.681,1.341,9.116,3.776c1.582,1.582,3.657,2.374,5.731,2.374c2.074,0,4.15-0.791,5.732-2.374
			C112.521,240.94,112.521,235.807,109.355,232.643z"/>
	</g>
</g>
<g>
	<g>
		<path d="M149.891,285.822c-3.165-3.165-8.298-3.165-11.463,0c-6.124,6.125-16.087,6.124-22.21,0
			c-3.166-3.165-8.298-3.165-11.462,0c-3.166,3.166-3.166,8.298,0,11.462c6.028,6.028,14.043,9.348,22.568,9.348
			s16.54-3.32,22.568-9.348C153.056,294.119,153.056,288.987,149.891,285.822z"/>
	</g>
</g>
<g>
	<g>
		<path d="M132.809,250.461h-10.967c-4.476,0-8.106,3.629-8.106,8.106c0,4.476,3.629,8.106,8.106,8.106h10.967
			c4.476,0,8.106-3.629,8.106-8.106C140.914,254.09,137.285,250.461,132.809,250.461z"/>
	</g>
</g>
<g>
	<g>
		<path d="M254.642,216.176c0-10.85-6.142-20.289-15.13-25.039l10.517-14.427c4.909-6.733,5.823-15.301,2.446-22.919
			s-10.341-12.693-18.627-13.576c-4.443-0.473-8.444,2.748-8.918,7.201c-0.474,4.452,2.748,8.444,7.201,8.918
			c3.543,0.378,5.044,2.943,5.525,4.028c0.481,1.085,1.374,3.92-0.725,6.799l-17.558,24.085c-2.099,2.878-5.069,2.895-6.25,2.771
			c-1.18-0.125-4.081-0.771-5.525-4.027l-12.386-27.935c2.768-2.477,5.008-5.527,6.541-8.962l8.262,0.881
			c0.293,0.031,0.583,0.047,0.87,0.047c4.091,0,7.606-3.088,8.049-7.246c0.474-4.452-2.748-8.445-7.2-8.919l-8.251-0.88
			c-2.497-11.994-13.146-21.034-25.87-21.034c-0.939,0-1.865,0.051-2.78,0.147l-12.385-27.922
			c-3.378-7.616-10.342-12.691-18.627-13.573c-8.288-0.886-16.161,2.61-21.069,9.344l-17.556,24.089
			c-4.908,6.734-5.821,15.302-2.442,22.919c3.377,7.617,10.342,12.692,18.628,13.575l30.36,3.235
			c0.437,2.099,1.123,4.108,2.026,5.993c-20.577,20.175-55.462,39.934-108.682,28.016c7.499-23.874,25.154-43.666,48.693-53.621
			c4.123-1.743,6.052-6.5,4.308-10.623s-6.5-6.053-10.623-4.308c-31.504,13.323-54.132,41.482-60.633,74.696
			C11.906,188.678,0,201.064,0,216.177c0,12.902,8.571,23.805,20.443,27.206c-1.651,27.645,10.929,54.513,33.474,70.891l6.405,4.653
			c-23.741,10.591-39.809,34.433-39.809,61.345v17.577c0,4.476,3.629,8.106,8.106,8.106s8.106-3.629,8.106-8.106v-17.577
			c0-19.743,11.391-37.31,28.419-45.711c5.203,29.62,31.098,52.204,62.186,52.204c25.436,0,48.277-15.14,58.19-38.572
			c1.744-4.122-0.184-8.878-4.307-10.623c-4.121-1.744-8.879,0.183-10.623,4.307c-7.37,17.421-24.35,28.676-43.26,28.676
			c-22.149,0-40.751-15.421-45.664-36.122l9.184,6.673c10.909,7.926,23.693,11.889,36.477,11.889s25.568-3.963,36.477-11.889
			l14.465-10.509c23.067,5.203,39.66,25.85,39.66,49.675v70.305h-22.037v-57.7c0-4.476-3.629-8.106-8.106-8.106
			s-8.106,3.629-8.106,8.106v57.7H74.971v-57.7c0-4.476-3.629-8.106-8.106-8.106s-8.106,3.629-8.106,8.106v57.7H36.723v-23.08
			c0-4.476-3.629-8.106-8.106-8.106s-8.106,3.629-8.106,8.106v31.186c0,4.476,3.629,8.106,8.106,8.106h197.415
			c4.476,0,8.106-3.629,8.106-8.106v-78.41c0-26.913-16.069-50.754-39.809-61.345l6.403-4.653
			c22.547-16.381,35.127-43.249,33.474-70.896C246.075,239.97,254.642,229.072,254.642,216.176z M22.181,226.623
			c-3.585-2.101-5.97-5.995-5.97-10.446c0-5.38,3.532-9.945,8.397-11.512L22.181,226.623z M177.611,132.154
			c5.631,0,10.213,4.581,10.213,10.213s-4.581,10.213-10.213,10.213c-5.632,0-10.213-4.581-10.213-10.213
			S171.979,132.154,177.611,132.154z M153.472,131.637l-30.374-3.236c-3.543-0.377-5.044-2.942-5.526-4.027
			s-1.374-3.919,0.724-6.799l17.556-24.09c2.099-2.879,5.071-2.897,6.25-2.771c1.18,0.125,4.081,0.769,5.526,4.027l12.39,27.933
			C157.248,125.15,155.006,128.201,153.472,131.637z M191.203,301.159l-36.929,26.832c-16.12,11.712-37.78,11.711-53.898,0
			l-36.93-26.832c-18.953-13.77-29.127-36.79-26.553-60.074l4.752-42.99c0.017-0.158,0.042-0.313,0.061-0.47
			c12.479,2.794,24.092,4.058,34.852,4.058c30.553,0,54.315-9.983,72.162-22.624c4.677,5.702,12.485,13.665,23.638,20.078
			c4.215,2.424,9.599,0.691,11.537-3.769c1.654-3.804,0.147-8.214-3.446-10.284c-9.021-5.196-15.374-11.699-19.095-16.205
			c1.223-1.114,2.407-2.233,3.553-3.354c3.773,2.078,8.103,3.265,12.707,3.265c0.94,0,1.87-0.052,2.785-0.148l12.38,27.919
			c3.377,7.616,10.341,12.691,18.626,13.575c0.848,0.09,1.69,0.135,2.528,0.135c0.141,0,0.28-0.01,0.42-0.012l3.408,30.824
			C220.332,264.369,210.157,287.388,191.203,301.159z M232.468,226.616l-2.426-21.946c4.861,1.571,8.389,6.133,8.389,11.507
			C238.431,220.623,236.049,224.514,232.468,226.616z"/>
	</g>
</g>
    </symbol>
	 <symbol xmlns="http://www.w3.org/2000/svg" id="phone" viewBox="0 0 512.076 512.076">
        <g>
			<path d="M499.639,396.039l-103.646-69.12c-13.153-8.701-30.784-5.838-40.508,6.579l-30.191,38.818
				c-3.88,5.116-10.933,6.6-16.546,3.482l-5.743-3.166c-19.038-10.377-42.726-23.296-90.453-71.04s-60.672-71.45-71.049-90.453
				l-3.149-5.743c-3.161-5.612-1.705-12.695,3.413-16.606l38.792-30.182c12.412-9.725,15.279-27.351,6.588-40.508l-69.12-103.646
				C109.12,1.056,91.25-2.966,77.461,5.323L34.12,31.358C20.502,39.364,10.511,52.33,6.242,67.539
				c-15.607,56.866-3.866,155.008,140.706,299.597c115.004,114.995,200.619,145.92,259.465,145.92
				c13.543,0.058,27.033-1.704,40.107-5.239c15.212-4.264,28.18-14.256,36.181-27.878l26.061-43.315
				C517.063,422.832,513.043,404.951,499.639,396.039z M494.058,427.868l-26.001,43.341c-5.745,9.832-15.072,17.061-26.027,20.173
				c-52.497,14.413-144.213,2.475-283.008-136.32S8.29,124.559,22.703,72.054c3.116-10.968,10.354-20.307,20.198-26.061
				l43.341-26.001c5.983-3.6,13.739-1.855,17.604,3.959l37.547,56.371l31.514,47.266c3.774,5.707,2.534,13.356-2.85,17.579
				l-38.801,30.182c-11.808,9.029-15.18,25.366-7.91,38.332l3.081,5.598c10.906,20.002,24.465,44.885,73.967,94.379
				c49.502,49.493,74.377,63.053,94.37,73.958l5.606,3.089c12.965,7.269,29.303,3.898,38.332-7.91l30.182-38.801
				c4.224-5.381,11.87-6.62,17.579-2.85l103.637,69.12C495.918,414.126,497.663,421.886,494.058,427.868z"/>
			<path d="M291.161,86.39c80.081,0.089,144.977,64.986,145.067,145.067c0,4.713,3.82,8.533,8.533,8.533s8.533-3.82,8.533-8.533
				c-0.099-89.503-72.63-162.035-162.133-162.133c-4.713,0-8.533,3.82-8.533,8.533S286.448,86.39,291.161,86.39z"/>
			<path d="M291.161,137.59c51.816,0.061,93.806,42.051,93.867,93.867c0,4.713,3.821,8.533,8.533,8.533
				c4.713,0,8.533-3.82,8.533-8.533c-0.071-61.238-49.696-110.863-110.933-110.933c-4.713,0-8.533,3.82-8.533,8.533
				S286.448,137.59,291.161,137.59z"/>
			<path d="M291.161,188.79c23.552,0.028,42.638,19.114,42.667,42.667c0,4.713,3.821,8.533,8.533,8.533s8.533-3.82,8.533-8.533
				c-0.038-32.974-26.759-59.696-59.733-59.733c-4.713,0-8.533,3.82-8.533,8.533S286.448,188.79,291.161,188.79z"/>
		</g>
    </symbol>
	 <symbol xmlns="http://www.w3.org/2000/svg" id="clock" viewBox="0 0 20 20">
        <path d="M10,0 C15.5,0 20,4.5 20,10 C20,15.5 15.5,20 10,20 C4.5,20 0,15.5 0,10 C0,4.5 4.5,0 10,0 Z M10,18 C14.4,18 18,14.4 18,10 C18,5.6 14.4,2 10,2 C5.6,2 2,5.6 2,10 C2,14.4 5.6,18 10,18 Z M10.5,5 L10.5,10.2 L15,12.9 L14.2,14.2 L9,11 L9,5 L10.5,5 Z"/>
    </symbol>
	 <symbol xmlns="http://www.w3.org/2000/svg" id="wallet" viewBox="0 0 60 60">
       <path d="M39.55 30.098a5.866 5.866 0 0 0-5.859 5.86c0 3.23 2.629 5.859 5.86 5.859h8.3c.034 0 .066-.004.099-.005.032.001.064.004.097.004A1.953 1.953 0 0 0 50 39.863V24.531c0-2.6-1.278-4.906-3.238-6.327l-6.644-10.9a1.952 1.952 0 0 0-2.697-.643l-4.9 3.038-2.21-3.74a1.953 1.953 0 0 0-2.696-.675L8.8 16.72H5.86c-1.061 0-1.927-.85-1.953-1.904a1.955 1.955 0 0 1 1.952-1.905h3.614a1.953 1.953 0 1 0 0-3.906H5.859a5.87 5.87 0 0 0-5.7 4.501c-.102.237-.159.498-.159.772v32.911C0 51.495 3.505 55 7.813 55h34.374a7.803 7.803 0 0 0 7.413-5.339 1.953 1.953 0 1 0-3.706-1.236 3.902 3.902 0 0 1-3.706 2.669H7.812a3.91 3.91 0 0 1-3.906-3.906V20.29a5.831 5.831 0 0 0 1.953.335h36.328a3.91 3.91 0 0 1 3.907 3.906v5.567H39.55zm6.544 7.812H39.55a1.955 1.955 0 0 1-1.953-1.953c0-1.077.876-1.953 1.953-1.953h6.543v3.906zM16.32 16.72l11.633-7.07 2.08 3.52c.04.096.085.19.142.282.043.069.09.133.139.194l1.816 3.074h-15.81zm20.347 0l-2.16-3.656 3.299-2.045 3.475 5.7h-4.614z"/>
    </symbol>
	 <symbol xmlns="http://www.w3.org/2000/svg" id="clock" viewBox="0 0 384 384">
       <path d="m343.59375 101.039062c-7.953125 3.847657-11.28125 13.417969-7.433594 21.367188 10.511719 21.714844 15.839844 45.121094 15.839844 69.59375 0 88.222656-71.777344 160-160 160s-160-71.777344-160-160 71.777344-160 160-160c36.558594 0 70.902344 11.9375 99.328125 34.519531 6.894531 5.503907 16.976563 4.351563 22.480469-2.566406 5.503906-6.914063 4.351562-16.984375-2.570313-22.480469-33.652343-26.746094-76-41.472656-119.238281-41.472656-105.863281 0-192 86.136719-192 192s86.136719 192 192 192 192-86.136719 192-192c0-29.335938-6.40625-57.449219-19.039062-83.527344-3.839844-7.96875-13.441407-11.289062-21.367188-7.433594zm0 0"/><path d="m192 64c-8.832031 0-16 7.167969-16 16v112c0 8.832031 7.167969 16 16 16h80c8.832031 0 16-7.167969 16-16s-7.167969-16-16-16h-64v-96c0-8.832031-7.167969-16-16-16zm0 0"/>
    </symbol>
	 <symbol xmlns="http://www.w3.org/2000/svg" id="instagram" viewBox="0 0 511 511.9">
       <path d="m510.949219 150.5c-1.199219-27.199219-5.597657-45.898438-11.898438-62.101562-6.5-17.199219-16.5-32.597657-29.601562-45.398438-12.800781-13-28.300781-23.101562-45.300781-29.5-16.296876-6.300781-34.898438-10.699219-62.097657-11.898438-27.402343-1.300781-36.101562-1.601562-105.601562-1.601562s-78.199219.300781-105.5 1.5c-27.199219 1.199219-45.898438 5.601562-62.097657 11.898438-17.203124 6.5-32.601562 16.5-45.402343 29.601562-13 12.800781-23.097657 28.300781-29.5 45.300781-6.300781 16.300781-10.699219 34.898438-11.898438 62.097657-1.300781 27.402343-1.601562 36.101562-1.601562 105.601562s.300781 78.199219 1.5 105.5c1.199219 27.199219 5.601562 45.898438 11.902343 62.101562 6.5 17.199219 16.597657 32.597657 29.597657 45.398438 12.800781 13 28.300781 23.101562 45.300781 29.5 16.300781 6.300781 34.898438 10.699219 62.101562 11.898438 27.296876 1.203124 36 1.5 105.5 1.5s78.199219-.296876 105.5-1.5c27.199219-1.199219 45.898438-5.597657 62.097657-11.898438 34.402343-13.300781 61.601562-40.5 74.902343-74.898438 6.296876-16.300781 10.699219-34.902343 11.898438-62.101562 1.199219-27.300781 1.5-36 1.5-105.5s-.101562-78.199219-1.300781-105.5zm-46.097657 209c-1.101562 25-5.300781 38.5-8.800781 47.5-8.601562 22.300781-26.300781 40-48.601562 48.601562-9 3.5-22.597657 7.699219-47.5 8.796876-27 1.203124-35.097657 1.5-103.398438 1.5s-76.5-.296876-103.402343-1.5c-25-1.097657-38.5-5.296876-47.5-8.796876-11.097657-4.101562-21.199219-10.601562-29.398438-19.101562-8.5-8.300781-15-18.300781-19.101562-29.398438-3.5-9-7.699219-22.601562-8.796876-47.5-1.203124-27-1.5-35.101562-1.5-103.402343s.296876-76.5 1.5-103.398438c1.097657-25 5.296876-38.5 8.796876-47.5 4.101562-11.101562 10.601562-21.199219 19.203124-29.402343 8.296876-8.5 18.296876-15 29.398438-19.097657 9-3.5 22.601562-7.699219 47.5-8.800781 27-1.199219 35.101562-1.5 103.398438-1.5 68.402343 0 76.5.300781 103.402343 1.5 25 1.101562 38.5 5.300781 47.5 8.800781 11.097657 4.097657 21.199219 10.597657 29.398438 19.097657 8.5 8.300781 15 18.300781 19.101562 29.402343 3.5 9 7.699219 22.597657 8.800781 47.5 1.199219 27 1.5 35.097657 1.5 103.398438s-.300781 76.300781-1.5 103.300781zm0 0"/><path d="m256.449219 124.5c-72.597657 0-131.5 58.898438-131.5 131.5s58.902343 131.5 131.5 131.5c72.601562 0 131.5-58.898438 131.5-131.5s-58.898438-131.5-131.5-131.5zm0 216.800781c-47.097657 0-85.300781-38.199219-85.300781-85.300781s38.203124-85.300781 85.300781-85.300781c47.101562 0 85.300781 38.199219 85.300781 85.300781s-38.199219 85.300781-85.300781 85.300781zm0 0"/><path d="m423.851562 119.300781c0 16.953125-13.746093 30.699219-30.703124 30.699219-16.953126 0-30.699219-13.746094-30.699219-30.699219 0-16.957031 13.746093-30.699219 30.699219-30.699219 16.957031 0 30.703124 13.742188 30.703124 30.699219zm0 0"/>
    </symbol>
	 <symbol xmlns="http://www.w3.org/2000/svg" id="download" viewBox="0 -16 512.00046 512">
       <path d="m413.492188 128.910156c-17.292969-86.765625-101.648438-143.082031-188.414063-125.789062-63.460937 12.648437-113.082031 62.238281-125.769531 125.691406-61.519532 7.089844-105.648438 62.707031-98.5625 124.230469 6.523437 56.621093 54.480468 99.339843 111.476562 99.300781h80.09375c8.847656 0 16.019532-7.171875 16.019532-16.019531 0-8.847657-7.171876-16.019531-16.019532-16.019531h-80.09375c-44.238281-.261719-79.882812-36.332032-79.625-80.566407.261719-44.238281 36.332032-79.886719 80.570313-79.625 8.164062 0 15.023437-6.140625 15.921875-14.257812 8.132812-70.304688 71.722656-120.707031 142.03125-112.574219 59.109375 6.835938 105.738281 53.464844 112.574218 112.574219 1.34375 8.261719 8.5 14.3125 16.867188 14.257812 44.238281 0 80.097656 35.859375 80.097656 80.097657 0 44.234374-35.859375 80.09375-80.097656 80.09375h-80.09375c-8.847656 0-16.019531 7.171874-16.019531 16.019531 0 8.847656 7.171875 16.019531 16.019531 16.019531h80.097656c61.925782-.386719 111.816406-50.902344 111.433594-112.828125-.351562-56.394531-42.53125-103.753906-98.507812-110.605469zm0 0"/><path d="m313.019531 385.183594-40.609375 40.621094v-201.613282c0-8.847656-7.171875-16.019531-16.015625-16.019531-8.847656 0-16.019531 7.171875-16.019531 16.019531v201.613282l-40.609375-40.621094c-6.144531-6.367188-16.289063-6.542969-22.652344-.394532-6.363281 6.144532-6.539062 16.285157-.394531 22.648438.132812.136719.261719.265625.394531.394531l67.9375 67.953125c1.484375 1.480469 3.242188 2.65625 5.175781 3.460938 3.941407 1.667968 8.390626 1.667968 12.335938 0 1.933594-.804688 3.691406-1.980469 5.171875-3.460938l67.9375-67.953125c6.363281-6.144531 6.539063-16.285156.394531-22.648437-6.148437-6.363282-16.289062-6.539063-22.652344-.394532-.132812.128907-.265624.257813-.394531.394532zm0 0"/>
    </symbol>
	 <symbol xmlns="http://www.w3.org/2000/svg" id="microscope" viewBox="0 0 512.001 512.001">
       <path d="M382.463,431.971h-38.04c20.141-12.65,37.927-28.914,52.261-47.98c18.141-4.334,34.038-16.986,41.705-35.496
			c7.665-18.508,5.368-38.689-4.391-54.58c5.837-41.184-1.794-83.768-21.738-120.589c-18.865-34.828-48.135-63.18-83.359-81.077
			l8.395-20.266l14.428,5.976l11.484-27.726L241.934,0L230.45,27.726l14.429,5.977l-55.465,133.902l8.29,3.434l-16.524,39.894
			l75.837,31.412l16.524-39.894l8.29,3.434l15.218-36.74c36.523,21.232,58.381,61.568,55.833,104.123
			c-11.18,6.387-20.412,16.37-25.709,29.158c-5.297,12.789-5.828,26.375-2.44,38.797c-31.618,35.643-82.838,47.788-127.359,29.345
			l-73.444-30.422l12.78-30.853l103.374,42.82l11.484-27.726l-156.93-65.003l-11.484,27.726l25.83,10.699l-12.78,30.853
			l-31.688,76.503l64.737,26.815c-35.677,0.208-64.641,29.288-64.641,65.014v15.005h382.873v-15.005
			C447.486,461.141,418.316,431.971,382.463,431.971z M240.776,203.134l-20.388-8.444l5.041-12.169l20.388,8.445L240.776,203.134z
			 M269.714,156.719l-4.123,9.955l-36.966-15.312l43.98-106.176l36.966,15.313l-8.318,20.081L269.714,156.719z M308.621,141.209
			l8.76-21.148c28.897,15.195,52.897,38.765,68.492,67.558c13.703,25.298,20.551,53.798,20.009,82.261
			c-0.022-0.01-0.045-0.019-0.067-0.028c-0.933-0.386-1.874-0.747-2.819-1.084c-0.343-0.122-0.688-0.226-1.031-0.341
			c-0.604-0.204-1.207-0.411-1.817-0.595c-0.4-0.121-0.801-0.223-1.202-0.334c-0.558-0.156-1.115-0.317-1.678-0.457
			c-0.401-0.1-0.802-0.182-1.204-0.273c-0.569-0.129-1.137-0.262-1.709-0.374c-0.37-0.072-0.74-0.13-1.11-0.196
			c-0.611-0.108-1.221-0.216-1.834-0.306c-0.318-0.046-0.637-0.08-0.955-0.121c-0.671-0.086-1.342-0.17-2.016-0.233
			c-0.251-0.023-0.502-0.038-0.753-0.059c-0.745-0.061-1.49-0.114-2.237-0.147c-0.174-0.007-0.348-0.009-0.522-0.015
			c-0.606-0.021-1.211-0.05-1.819-0.053C382.635,213.703,354.11,165.951,308.621,141.209z M354.899,313.911
			c3.085-7.447,8.886-13.248,16.333-16.333c0.28-0.116,0.563-0.219,0.846-0.326l0.186-0.069c5.375-2.001,11.124-2.424,16.639-1.277
			c0.019,0.004,0.038,0.009,0.057,0.013c0.433,0.091,0.865,0.191,1.295,0.301c0.098,0.025,0.194,0.055,0.292,0.081
			c0.356,0.095,0.711,0.192,1.063,0.3c0.205,0.063,0.409,0.135,0.614,0.203c0.248,0.082,0.497,0.16,0.743,0.249
			c0.456,0.164,0.91,0.338,1.362,0.525c0.551,0.228,1.091,0.476,1.627,0.735c0.122,0.059,0.242,0.122,0.364,0.183
			c0.452,0.227,0.899,0.462,1.338,0.711c0.073,0.041,0.146,0.082,0.219,0.124c3.302,1.908,6.228,4.429,8.589,7.428l0.571,0.726
			c1.448,1.962,2.669,4.114,3.626,6.426c3.085,7.447,3.085,15.651,0,23.099c-3.085,7.448-8.886,13.248-16.333,16.333
			c-2.315,0.958-4.704,1.619-7.119,1.981l-0.906,0.108c-3.788,0.45-7.638,0.165-11.321-0.82c-0.083-0.022-0.166-0.046-0.249-0.069
			c-0.484-0.134-0.965-0.283-1.443-0.441c-0.13-0.043-0.26-0.083-0.389-0.128c-0.561-0.195-1.119-0.402-1.67-0.63
			c-0.453-0.188-0.9-0.386-1.34-0.594c-0.206-0.097-0.407-0.203-0.61-0.305c-0.223-0.111-0.448-0.219-0.667-0.335
			c-0.314-0.167-0.623-0.343-0.93-0.521c-0.098-0.056-0.198-0.11-0.296-0.167c-0.376-0.223-0.746-0.454-1.111-0.692
			c-0.022-0.014-0.044-0.027-0.066-0.042c-4.709-3.09-8.476-7.453-10.861-12.668l-0.073-0.159c-0.131-0.283-0.261-0.564-0.38-0.851
			C351.814,329.562,351.814,321.358,354.899,313.911z M103.727,388.924l8.72-21.05l73.444,30.422
			c17.649,7.31,36.12,10.827,54.412,10.826c36.965-0.003,73.168-14.38,100.143-40.864c0.422,0.417,0.861,0.816,1.295,1.221
			c0.14,0.131,0.277,0.265,0.419,0.395c0.537,0.492,1.088,0.968,1.645,1.44c0.206,0.175,0.407,0.354,0.615,0.526
			c0.507,0.419,1.026,0.823,1.547,1.226c0.268,0.208,0.532,0.419,0.804,0.623c0.481,0.359,0.974,0.703,1.467,1.047
			c0.322,0.226,0.639,0.458,0.967,0.678c0.471,0.315,0.953,0.615,1.433,0.918c0.36,0.228,0.714,0.461,1.081,0.682
			c0.485,0.292,0.983,0.566,1.477,0.845c0.372,0.209,0.737,0.427,1.115,0.629c0.556,0.298,1.126,0.576,1.694,0.857
			c0.328,0.163,0.648,0.335,0.98,0.492c0.907,0.43,1.828,0.84,2.761,1.226c0.022,0.009,0.044,0.018,0.066,0.027
			c-19.742,20.51-44.737,35.821-72.316,44.02c-36.19,10.759-75.371,8.711-110.327-5.77L103.727,388.924z M98.003,481.99
			c5.629-11.82,17.694-20.009,31.634-20.009h252.827c13.94,0,26.003,8.19,31.633,20.009H98.003z"/>
    </symbol>
</svg>