<svg xmlns="http://www.w3.org/2000/svg" xmlns:xlink="http://www.w3.org/1999/xlink" width="51px" height="49px" viewBox="0 0 51 49" version="1.1">
    <!-- Generator: sketchtool 52.5 (67469) - http://www.bohemiancoding.com/sketch -->
    <title>8942FD6A-66A4-499A-A297-C7502F1F0BAE</title>
    <desc>Created with sketchtool.</desc>
    <g id="Symbols" stroke="none" stroke-width="1" fill="none" fill-rule="evenodd">
        <g id="sale_ico" transform="translate(-1.000000, -6.000000)" fill="#5F5C9E" fill-rule="nonzero">
            <path d="M47.9592557,29.9293242 L23.0842388,54.8452774 L1,32.724695 L25.8741285,7.8092439 L39.649165,9.40778188 C41.2487756,7.82505678 43.1457868,6.69846768 45.0065871,6.23250197 C47.1738167,5.68970215 49.1630187,6.10564167 50.4483385,7.39307661 C53.3627918,10.3123262 51.5095135,16.1149137 46.7710654,19.6556062 L47.9592557,29.9293242 Z M43.8036725,10.7048767 L45.9887471,12.8935472 L46.2576063,15.2179659 C47.98655,13.2333752 48.7107521,10.7964152 47.8796678,9.96396326 C47.5374899,9.62122221 46.8124072,9.52898398 45.887685,9.76045645 C45.2208202,9.92744919 44.5061125,10.2520959 43.8036725,10.7048767 Z M6.13533138,32.724693 L23.084241,49.7014951 L44.1496453,28.6017995 L42.5267069,14.5695938 L41.2091918,13.2499106 L41.1309387,13.2407947 C40.5179726,14.0835168 40.0823519,14.9657704 39.8792974,15.7793248 C39.6480965,16.7059928 39.7402559,17.4328542 40.0826332,17.775795 L42.4028453,20.0993978 L39.8349576,22.6715114 L33.1213001,15.9463929 L35.6887685,13.3746993 L36.5491637,14.2365104 C36.710078,13.7503043 36.914565,13.2629802 37.1598639,12.7801667 L27.2008611,11.6244964 L6.13533138,32.724693 Z M17.6784284,27.3508694 C15.4471797,27.3508694 13.6308429,29.1703041 13.6308429,31.4060739 C13.6308429,33.641516 15.4472341,35.4608963 17.6784284,35.4608963 C19.9099498,35.4608963 21.7263952,33.6415705 21.7263952,31.4060739 C21.7263952,29.1702496 19.9100042,27.3508694 17.6784284,27.3508694 Z M17.6784284,33.2240933 C16.6767825,33.2240933 15.8628209,32.4086456 15.8628209,31.4060739 C15.8628209,30.4031932 16.6767093,29.5876724 17.6784284,29.5876724 C18.6801918,29.5876724 19.4944173,30.4032379 19.4944173,31.4060739 C19.4944173,32.4087188 18.6803825,33.2240933 17.6784284,33.2240933 Z M32.337555,35.4608963 C34.5690764,35.4608963 36.385522,33.6415705 36.385522,31.4060739 C36.385522,29.1702497 34.5691308,27.3508694 32.337555,27.3508694 C30.1060612,27.3508694 28.2899696,29.1701676 28.2899696,31.4060739 C28.2899696,33.6416526 30.1061156,35.4608963 32.337555,35.4608963 Z M32.337555,29.5876724 C33.3393185,29.5876724 34.153544,30.4032379 34.153544,31.4060739 C34.153544,32.408601 33.3392453,33.2240933 32.337555,33.2240933 C31.3358649,33.2240933 30.521566,32.408601 30.521566,31.4060739 C30.521566,30.4032379 31.3357917,29.5876724 32.337555,29.5876724 Z M24.8212133,23.9520811 L27.3228095,24.4234255 L25.1951491,38.8604934 L22.6935616,38.3887774 L24.8212133,23.9520811 Z"/>
        </g>
    </g>
</svg>