<svg xmlns="http://www.w3.org/2000/svg" xmlns:xlink="http://www.w3.org/1999/xlink" width="16px" height="16px" viewBox="0 0 16 16" version="1.1">
    <!-- Generator: sketchtool 52.5 (67469) - http://www.bohemiancoding.com/sketch -->
    <title>083B497A-4182-414D-A054-6B80B137794E</title>
    <desc>Created with sketchtool.</desc>
    <g id="Symbols" stroke="none" stroke-width="1" fill="none" fill-rule="evenodd">
        <g id="arrow_ico" fill="#C777BF" fill-rule="nonzero">
            <path d="M2.67453644,7.0558715 L10.6856566,7.05998258 L8.16136451,4.52178382 C8.03775478,4.3978642 7.96994992,4.2299952 7.96994992,4.05380617 C7.96994992,3.87761714 8.03775478,3.71092274 8.16136451,3.58670947 L8.55414491,3.19243758 C8.67765708,3.06851796 8.84224241,3 9.01775457,3 C9.19336429,3 9.35804718,3.06802854 9.48155935,3.19194816 L13.8086804,7.53295224 C13.9326803,7.65736128 14.0004852,7.82307685 13.9999974,7.99936376 C14.0004852,8.1766295 13.9326803,8.34244296 13.8086804,8.46665623 L9.48155935,12.8080518 C9.35804718,12.9318736 9.19346185,13 9.01775457,13 C8.84224241,13 8.67765708,12.9317757 8.55414491,12.8080518 L8.16136451,12.4137799 C8.03775478,12.2900561 7.96994992,12.1248299 7.96994992,11.9486409 C7.96994992,11.7725497 8.03775478,11.6160352 8.16136451,11.4922134 L10.7141444,8.93982166 L2.66556083,8.93982166 C2.30390237,8.93982166 2,8.62708613 2,8.26443037 L2,7.70679209 C2,7.34413633 2.31287798,7.0558715 2.67453644,7.0558715 Z"/>
        </g>
    </g>
</svg>