<svg xmlns="http://www.w3.org/2000/svg" xmlns:xlink="http://www.w3.org/1999/xlink" width="40px" height="40px" viewBox="0 0 40 40" version="1.1">
    <!-- Generator: sketchtool 52.6 (67491) - http://www.bohemiancoding.com/sketch -->
    <title>70E9AF30-E7F4-4E7E-83FA-5B528B822D05</title>
    <desc>Created with sketchtool.</desc>
    <g id="Symbols" stroke="none" stroke-width="1" fill="none" fill-rule="evenodd">
        <g id="ortodont_ico" fill="#C777BF" fill-rule="nonzero">
            <path d="M11.0004727,22.2030361 C10.968819,25.6475581 11.1504628,26.842951 12.0110817,27.8898364 C13.1519781,29.2776606 15.7075074,30 20.5,30 C25.2924926,30 27.8480219,29.2776606 28.9889183,27.8898364 C29.8495372,26.842951 30.031181,25.6475581 29.9995273,22.2030361 C27.9981729,22.6167014 25.9961947,22.8996552 23.9938449,23.0518149 C23.9663639,24.1324369 23.0817486,25 21.9945031,25 L19.0054969,25 C17.9182514,25 17.0336361,24.1324369 17.0061551,23.0518149 C15.0038053,22.8996552 13.0018271,22.6167014 11.0004727,22.2030361 Z M11.0189694,20.1634936 L11.2206072,20.2060105 C13.1494574,20.612723 15.0776683,20.8926098 17.0054969,21.0457549 L17.0054969,21 C17.0054969,19.8954305 17.9009274,19 19.0054969,19 L21.9945031,19 C23.0990726,19 23.9945031,19.8954305 23.9945031,21 L23.9945031,21.0457549 C25.9223317,20.8926098 27.8505426,20.612723 29.7793928,20.2060105 L29.9810306,20.1634936 C29.8345088,14.0797943 25.7288475,9 20.5,9 C15.2711525,9 11.1654912,14.0797943 11.0189694,20.1634936 Z M20.5,32 C15.1662449,32 12.0880436,31.1299235 10.4695244,29.161103 C9.15696277,27.5644595 8.9554914,26.0654122 9.00718035,21.862032 C9.01513594,21.2150785 9.01806134,20.8888577 9.01806134,20.5 C9.01806134,13.2530729 13.9558174,7 20.5,7 C27.0441826,7 31.9819387,13.2530729 31.9819387,20.5 C31.9819387,20.8888577 31.9848641,21.2150785 31.9928196,21.862032 C32.0445086,26.0654122 31.8430372,27.5644595 30.5304756,29.161103 C28.9119564,31.1299235 25.8337551,32 20.5,32 Z"/>
        </g>
    </g>
</svg>