<svg xmlns="http://www.w3.org/2000/svg" xmlns:xlink="http://www.w3.org/1999/xlink" width="24px" height="25px" viewBox="0 0 24 25" version="1.1">
    <!-- Generator: sketchtool 52.5 (67469) - http://www.bohemiancoding.com/sketch -->
    <title>9D947F4E-7086-4321-AB5E-DEA6AC84C45E</title>
    <desc>Created with sketchtool.</desc>
    <g id="Desktop" stroke="none" stroke-width="1" fill="none" fill-rule="evenodd">
        <g id="Главная-страница" transform="translate(-1036.000000, -5641.000000)" fill="#FFFFFF" fill-rule="nonzero">
            <g id="Group-16" transform="translate(0.000000, 5150.000000)">
                <g id="Group-24" transform="translate(1030.000000, 301.000000)">
                    <g id="check_ico" transform="translate(6.000000, 190.000000)">
                        <path d="M8.93362564,25 C8.15098619,25 7.41078766,24.636426 6.93494575,24.0128503 L0.508382449,15.5852914 C-0.327487996,14.4892123 -0.109888332,12.9284871 0.993935419,12.0981242 C2.09955751,11.2674041 3.67023145,11.4849056 4.50646157,12.5802704 L8.73329008,18.122452 L19.3640228,1.17304792 C20.0959489,0.00696835051 21.641446,-0.349819855 22.8182826,0.375899498 C23.9936804,1.10233314 24.3526299,2.63805815 23.6203441,3.80520916 L11.062146,23.8267775 C10.6258677,24.5228538 9.87272105,24.960714 9.04800034,24.9978571 C9.00951577,24.9992857 8.97175054,25 8.93362564,25 Z"/>
                    </g>
                </g>
            </g>
        </g>
    </g>
</svg>