<svg xmlns="http://www.w3.org/2000/svg" width="40" height="40" viewBox="0 0 40 40">
    <path fill="#C777BF" fill-rule="nonzero" d="M39.004 4.001H28.986a2.982 2.982 0 0 0-1.021.153l-5.517 1.84H10.98A2.992 2.992 0 0 0 7.992 8.98c0 1.299.833 2.406 1.992 2.817v2.504A5.998 5.998 0 0 0 6 19.937c0 2.358 1.372 4.4 3.36 5.373-.89 3.745.254 7.619 2.908 10.273.59.59 1.667.242 1.738-.623.227-2.791 1.551-5.062 2.951-5.062 1.4 0 2.724 2.272 2.951 5.065.072.882 1.157 1.2 1.738.62a10.946 10.946 0 0 0 2.908-10.273 5.984 5.984 0 0 0 3.36-5.373 5.998 5.998 0 0 0-3.984-5.635v-2.504l.03-.009 5.436-1.813h9.608c.55 0 .996-.444.996-.995V4.997a.996.996 0 0 0-.996-.996zm-25.035 7.967v3.986h-.996a.997.997 0 0 1-.996-.996v-2.99h1.992zm3.984 0v3.986h-1.992v-3.986h1.992zm3.985 0v2.99c0 .55-.447.996-.997.996h-.996v-3.986h1.992zm3.984 7.97a3.989 3.989 0 0 1-3.985 3.984.996.996 0 1 0 0 1.992c.238 0 .473-.015.704-.042a9.012 9.012 0 0 1-1.136 6.7c-.776-2.8-2.514-4.666-4.548-4.666-2.034 0-3.773 1.866-4.549 4.666a9.012 9.012 0 0 1-1.135-6.7c.231.027.466.042.704.042a.996.996 0 0 0 0-1.992 3.989 3.989 0 0 1-3.985-3.985 4 4 0 0 1 2.32-3.62 2.99 2.99 0 0 0 2.66 1.628h7.97a2.99 2.99 0 0 0 2.66-1.628 4 4 0 0 1 2.32 3.62zM38.008 7.984h-8.774a.991.991 0 0 0-.315.051l-5.512 1.838-.639.104H10.98a.997.997 0 0 1 0-1.994h11.63a.991.991 0 0 0 .315-.051l5.671-1.89c.166-.056.267-.051.38-.051h9.032v1.993z"/>
</svg>