<svg xmlns="http://www.w3.org/2000/svg" xmlns:xlink="http://www.w3.org/1999/xlink" width="60px" height="60px" viewBox="0 0 60 60" version="1.1">
    <!-- Generator: sketchtool 52.5 (67469) - http://www.bohemiancoding.com/sketch -->
    <title>BCA0DC3F-0E09-4172-B8BA-026BCC2B2B5E</title>
    <desc>Created with sketchtool.</desc>
    <g id="Symbols" stroke="none" stroke-width="1" fill="none" fill-rule="evenodd">
        <g id="tepl_otn_ico" fill="#C777BF" fill-rule="nonzero">
            <path d="M10.5487255,24.6414149 C8.79838059,24.6414149 6.54562,23.7155824 5.30882942,22.4877933 L0.571739767,17.7859518 C-0.190970555,17.0285406 -0.190579722,15.8015266 0.572912266,15.0448907 C1.33640425,14.2884485 2.57378108,14.2890299 3.33668682,15.0460535 L8.07416731,19.7484764 C8.58166377,20.2523836 9.83037475,20.7655936 10.5487255,20.7655936 L22.9217122,20.7655936 C23.1253361,20.7655936 23.227148,20.6380663 23.227148,20.6080257 C23.227148,20.5777913 23.1253361,20.4506516 22.9217122,20.4506516 L18.994819,20.4506516 C16.9747994,20.4506516 16.2711048,19.2879828 16.0625955,18.7881456 C15.8538908,18.2883085 15.5224645,16.972917 16.9509586,15.5563564 L17.9780673,14.5365259 C19.2828628,13.2412906 21.645252,12.4610098 23.4714186,12.7193591 L31.957377,13.9227282 L24.3760012,10.69811 C23.6195442,10.3767722 22.1504035,10.2599045 21.3521274,10.457785 L17.2900061,11.4657931 C16.1931337,11.7375154 14.3898309,12.353445 13.3515834,12.8106438 L12.7266416,13.0860485 C10.8164461,13.9275734 8.3119891,13.4091305 6.9001054,11.8797723 L2.62458935,7.24673353 C1.89588149,6.45714977 1.95079351,5.23110488 2.74672462,4.50838573 C3.54285115,3.78566657 4.77905548,3.84012731 5.50776335,4.62951726 L9.78327939,9.26216836 C10.0582303,9.56024883 10.7683736,9.70754477 11.1394694,9.54338732 L11.764802,9.26778887 C13.0131221,8.71794863 15.0235664,8.03166584 16.3422364,7.70470761 L20.4033806,6.6970871 C22.0157616,6.29686853 24.3861629,6.48486466 25.9160781,7.13509871 L36.5434098,11.655146 C37.8573898,12.2146767 38.7342233,13.1717127 38.9493768,14.2814713 C39.1240791,15.1821085 38.8418978,16.0777065 38.1757232,16.7386002 C36.9760617,17.9295654 34.7672698,18.2365611 33.2246525,18.0177491 L24.0152625,16.7118543 C25.8105532,17.1738984 27.1354766,18.7455073 27.1354766,20.6076381 C27.1354766,22.8318068 25.2452135,24.6414149 22.9217122,24.6414149 L10.5487255,24.6414149 Z M49.5127086,39.5687879 C50.1624582,40.2131977 50.1624582,41.2581152 49.5125422,41.90236 C48.8624598,42.5466047 47.8092165,42.5466047 47.1593006,41.90236 L40.6879276,35.4840054 C40.0313561,34.8326647 38.5323563,34.2169687 37.6039049,34.2169687 L20.6322123,34.2169687 C20.1812977,34.2169687 19.8002665,34.5948684 19.8002665,35.0420772 L19.8002665,35.5371424 C19.8002665,35.9843512 20.1812977,36.362251 20.6322123,36.362251 L26.6222214,36.362251 C28.5548313,36.362251 29.2112365,37.434232 29.4037487,37.8951377 C29.596261,38.3560433 29.896427,39.5743986 28.5298729,40.929722 L26.5686441,42.8748329 C25.2275476,44.205073 22.8004292,45.0095538 20.9213966,44.7418886 L6.64504173,42.7190524 C5.99163157,42.6264752 5.24321321,42.768889 4.73389604,42.9677401 L19.2433621,49.1349317 C20.1743093,49.5306537 21.9170692,49.669437 22.8995971,49.4256999 L29.0386909,47.9033746 C30.2754614,47.5967643 32.304577,46.9041681 33.4696338,46.3912806 L35.091096,45.6773967 C36.9837725,44.8445321 39.5618059,45.3775522 40.9599739,46.8919565 L46.8177036,53.2352262 C47.4383351,53.9071946 47.392079,54.951287 46.714376,55.566818 C46.3950752,55.8567612 45.9924135,56 45.5910829,56 C45.1406675,56 44.6917496,55.8197963 44.3634638,55.4643395 L38.5059004,49.1212349 C38.0633053,48.6420118 37.0406776,48.4301239 36.4413439,48.6939936 L34.8198817,49.4078776 C33.4668052,50.003606 31.2819494,50.7491741 29.8458447,51.1052909 L23.7067508,52.6276162 C22.0167363,53.0467714 19.5342103,52.8495704 17.932382,52.1686909 L3.30261663,45.9503426 C2.07582948,45.429039 1.25336794,44.5164689 1.04571429,43.4472932 C0.868676246,42.5363734 1.16551448,41.6188526 1.86002276,40.930052 C2.97782502,39.8214361 5.2372232,39.1857725 7.11525745,39.4519525 L21.3916123,41.4747887 C22.2386994,41.5945945 23.6107443,41.1411148 24.2154025,40.5412609 L25.1009255,39.6630153 L20.6322123,39.6630153 C18.3385379,39.6630153 16.4724837,37.8122968 16.4724837,35.5374724 L16.4724837,35.0424073 C16.4724837,32.7675829 18.3385379,30.9168644 20.6322123,30.9168644 L37.6039049,30.9168644 C39.4193768,30.9168644 41.7569779,31.8769608 43.0410029,33.1504333 L49.5127086,39.5687879 Z"/>
        </g>
    </g>
</svg>