<svg xmlns="http://www.w3.org/2000/svg" xmlns:xlink="http://www.w3.org/1999/xlink" width="60px" height="60px" viewBox="0 0 60 60" version="1.1">
    <!-- Generator: sketchtool 52.5 (67469) - http://www.bohemiancoding.com/sketch -->
    <title>3338FB39-2474-4404-8E95-1609960D5DCE</title>
    <desc>Created with sketchtool.</desc>
    <g id="Symbols" stroke="none" stroke-width="1" fill="none" fill-rule="evenodd">
        <g id="opyt_ico" fill="#C777BF" fill-rule="nonzero">
            <path d="M50,25.1953125 C50,27.5368359 48.9537209,29.7141797 47.1293023,31.1690625 C47.9863953,33.3522656 47.8123256,35.7651563 46.6505814,37.7930859 C45.4888372,39.8207813 43.5025581,41.1792188 41.2009302,41.5198828 C40.86,43.8425391 39.512093,45.8444531 37.5,47.0151563 C37.0337209,47.2864453 36.5462791,47.5019531 36.0465116,47.6657813 L36.0465116,60 L32.8373256,60 L25,57.1790625 L17.1626744,60 L13.9534884,60 L13.9534884,47.6657813 C13.4537209,47.5019531 12.9662791,47.2864453 12.5,47.0151563 C10.487907,45.8443359 9.14,43.8425391 8.80197674,41.5228125 C6.49732558,41.1793359 4.51104651,39.8208984 3.34930233,37.7930859 C2.18755814,35.7651563 2.01348837,33.3522656 2.87162791,31.1730469 C1.04627907,29.7141797 0,27.5368359 0,25.1953125 C0,22.8537891 1.04627907,20.6764453 2.87069767,19.2215625 C2.01360465,17.0384766 2.18767442,14.6255859 3.3494186,12.5976563 C4.51116279,10.5697266 6.49755814,9.21140625 8.79918605,8.87085938 C9.14,6.54820313 10.4877907,4.54640625 12.5,3.37558594 C14.5118605,2.20488281 16.9061628,2.02921875 19.0686047,2.89417969 C20.5160465,1.05445313 22.6766279,5.08038056e-13 25,5.08038056e-13 C27.3233721,5.08038056e-13 29.4839535,1.05445313 30.9274419,2.893125 C33.0934884,2.02921875 35.4877907,2.20476563 37.5,3.37546875 C39.5122093,4.54628906 40.86,6.54820313 41.1980233,8.8678125 C43.5025581,9.21128906 45.4889535,10.5696094 46.6506977,12.5975391 C47.8124419,14.6254688 47.9865116,17.0383594 47.1283721,19.2175781 C48.9537209,20.6764453 50,22.8537891 50,25.1953125 Z M32.5581395,56.1663281 L32.5581395,47.9455078 C32.0080233,47.8579688 31.4626744,47.7090234 30.9313953,47.4965625 C29.4839535,49.3361719 27.3233721,50.390625 25,50.390625 C22.6766279,50.390625 20.5160465,49.3361719 19.0725581,47.4975 C18.5397674,47.7099609 17.9931395,47.8589063 17.4418605,47.9462109 L17.4418605,56.1663281 L25,53.4459375 L32.5581395,56.1663281 Z M44.9647674,28.4121094 C45.9477907,27.628125 46.5116279,26.4556641 46.5116279,25.1953125 C46.5116279,23.9349609 45.9477907,22.7625 44.9647674,21.9785156 C43.7463953,21.0067969 43.3126744,19.3761328 43.8859302,17.9206641 C44.3484884,16.7464453 44.255,15.4469531 43.6296512,14.3554688 C43.0043023,13.2639844 41.9343023,12.5326172 40.694186,12.3491016 C39.1568605,12.1216406 37.9722093,10.9279688 37.7466279,9.37863281 C37.5645349,8.12871094 36.8388372,7.05035156 35.755814,6.42011719 C34.6725581,5.78988281 33.3833721,5.69589844 32.2181395,6.16183594 C30.7738372,6.73945313 29.155814,6.30234375 28.1918605,5.07457031 C27.4140698,4.08386719 26.2506977,3.515625 25,3.515625 C23.7493023,3.515625 22.5859302,4.08386719 21.8081395,5.07445313 C20.844186,6.30234375 19.2263953,6.73945313 17.7818605,6.16183594 C16.6167442,5.69589844 15.3273256,5.78988281 14.244186,6.42011719 C13.1611628,7.05035156 12.4354651,8.12859375 12.2533721,9.37863281 C12.0276744,10.9279688 10.8431395,12.1216406 9.30581395,12.3491016 C8.06569767,12.5326172 6.99569767,13.2638672 6.37034884,14.3554688 C5.745,15.4469531 5.65151163,16.7464453 6.11406977,17.9206641 C6.68732558,19.3761328 6.25372093,21.0067969 5.03523256,21.9785156 C4.0522093,22.7625 3.48837209,23.9349609 3.48837209,25.1953125 C3.48837209,26.4556641 4.0522093,27.628125 5.03523256,28.4121094 C6.25360465,29.3838281 6.68732558,31.0144922 6.11406977,32.4699609 C5.65151163,33.6441797 5.745,34.9436719 6.37034884,36.0351563 C6.99569767,37.1266406 8.06569767,37.8580078 9.30593023,38.0415234 C10.8431395,38.2689844 12.0276744,39.4627734 12.2533721,41.0121094 C12.4354651,42.2619141 13.1611628,43.3403906 14.244186,43.9705078 C15.3273256,44.6005078 16.6167442,44.6948438 17.7818605,44.2287891 C18.2066279,44.0588672 18.6467442,43.9767188 19.0805814,43.9767188 C20.1215116,43.9767188 21.1276744,44.4493359 21.8081395,45.3160547 C22.5859302,46.3067578 23.7493023,46.875 25,46.875 C26.2506977,46.875 27.4140698,46.3067578 28.1918605,45.3161719 C29.1560465,44.0881641 30.7739535,43.6511719 32.2182558,44.2289063 C33.3831395,44.6948438 34.672907,44.600625 35.755814,43.9705078 C36.8388372,43.3402734 37.5645349,42.2619141 37.7466279,41.0119922 C37.9724419,39.4626563 39.1568605,38.2689844 40.694186,38.0415234 C41.9343023,37.8580078 43.0043023,37.1266406 43.6296512,36.0351563 C44.255,34.9436719 44.3484884,33.6441797 43.8859302,32.4699609 C43.3126744,31.0144922 43.7462791,29.3838281 44.9647674,28.4121094 Z M29.1301163,19.9714453 L31.6034884,22.4504297 L23.437907,30.7251563 L18.4061628,25.7054297 L20.8602326,23.206875 L23.4186047,25.7592188 L29.1301163,19.9714453 Z"/>
        </g>
    </g>
</svg>