<svg xmlns="http://www.w3.org/2000/svg" xmlns:xlink="http://www.w3.org/1999/xlink" width="60px" height="60px" viewBox="0 0 60 60" version="1.1">
    <!-- Generator: sketchtool 52.5 (67469) - http://www.bohemiancoding.com/sketch -->
    <title>0F7207D8-1288-488B-AFDF-9CDE0AEC9D51</title>
    <desc>Created with sketchtool.</desc>
    <g id="Symbols" stroke="none" stroke-width="1" fill="none" fill-rule="evenodd">
        <g id="dost_zeny_ico" fill="#C777BF" fill-rule="nonzero">
            <path d="M50,13.5551075 C50,12.5848454 49.2116162,11.7982191 48.2393939,11.7982191 C47.2671717,11.7982191 46.4789562,12.5848454 46.4789562,13.5551075 C46.4789562,14.6861559 45.7676768,15.9662298 45.0824916,16.9158266 C40.7718855,12.0428427 34.0244108,8.89902554 26.4525253,8.89902554 C24.7341751,8.89902554 23.0257576,9.06149194 21.3584175,9.38306452 C18.3001684,6.04250672 13.5962963,6 13.3806397,6 L13.3801347,6 C12.913468,6 12.4654882,6.18514785 12.1355219,6.51444892 C11.8052189,6.84408602 11.619697,7.29099462 11.619697,7.75705645 L11.619697,13.4984879 C8.93939394,15.4013777 6.76868687,17.7926747 5.26616162,20.4952957 L1.76060606,20.4952957 C0.788383838,20.4952957 0,21.2820901 0,22.2521841 L0,36.7476478 C0,37.7177419 0.788383838,38.5045363 1.76060606,38.5045363 L5.26582492,38.5045363 C6.17693603,40.1448253 7.33249158,41.6683468 8.71464646,43.0510753 L8.71464646,51.2429435 C8.71464646,52.2132056 9.5030303,53 10.4752525,53 L19.1900673,53 C20.1622896,53 20.9506734,52.2132056 20.9506734,51.2429435 L20.9506734,49.5361223 C22.7436027,49.9112903 24.5860269,50.1009745 26.4525253,50.1009745 C28.3175084,50.1009745 30.1597643,49.9111223 31.9542088,49.5351142 L31.9542088,51.2429435 C31.9542088,52.2132056 32.7425926,53 33.7148148,53 L42.4296296,53 C43.4018519,53 44.1902357,52.2132056 44.1902357,51.2429435 L44.1902357,43.0539315 C47.9425926,39.2992272 50,34.5146169 50,29.5 C50,26.0166331 49.0053872,22.7331989 47.253367,19.8534946 C48.263468,18.6537298 50,16.2061492 50,13.5551075 Z M41.2274411,41.0258737 C40.8713805,41.3583669 40.6691919,41.8229167 40.6691919,42.3096438 L40.6691919,49.4862231 L35.4754209,49.4862231 L35.4754209,47.2704973 C35.4754209,46.7133737 35.2106061,46.1890121 34.7617845,45.8578629 C34.3127946,45.5263777 33.7333333,45.4272513 33.1991582,45.5905578 C31.0360269,46.2520161 28.76633,46.5871976 26.4526936,46.5871976 C24.1361953,46.5871976 21.8664983,46.2523522 19.7060606,45.5917339 C19.1722222,45.4285954 18.5925926,45.5278898 18.1436027,45.859039 C17.6946128,46.1905242 17.429798,46.7145497 17.429798,47.2716734 L17.429798,49.4863911 L12.2361953,49.4863911 L12.2361953,42.3072917 C12.2361953,41.8209005 12.0340067,41.3560148 11.6779461,41.0236895 C10.0787879,39.531586 8.81548822,37.8366935 7.92306397,35.9862231 C7.62979798,35.3778562 7.01329966,34.9910954 6.33670034,34.9910954 L3.52104377,34.9910954 L3.52104377,24.0097446 L6.33653199,24.0097446 C7.01296296,24.0097446 7.62962963,23.6229839 7.92289562,23.0146169 C9.27491582,20.2106855 11.4944444,17.750336 14.3410774,15.9002016 C14.8400673,15.5757728 15.1409091,15.0218414 15.1409091,14.4277554 L15.1409091,9.77049731 C16.4350168,10.0845094 18.1469697,10.781754 19.2173401,12.328125 C19.6301347,12.9242272 20.3676768,13.2059812 21.0739057,13.0384745 C21.8786195,12.8472782 22.6978114,12.7014449 23.5252525,12.5977823 C23.3452862,12.8734879 23.2395623,13.2019489 23.2395623,13.5554435 C23.2395623,14.5257056 24.0279461,15.3125 25.0001684,15.3125 L30.810101,15.3125 C31.7823232,15.3125 32.5705387,14.5257056 32.5705387,13.5554435 C32.5705387,13.4408602 32.5589226,13.3291331 32.5378788,13.2207661 C40.6143098,15.4235551 46.4792929,21.8881048 46.4792929,29.500336 C46.4789562,33.7741935 44.6139731,37.8676075 41.2274411,41.0258737 Z M13.379798,23.3943212 C12.916835,23.3943212 12.4643098,23.5821573 12.1350168,23.9089382 C11.8075758,24.2358871 11.6193603,24.6893481 11.6193603,25.1513777 C11.6193603,25.6134073 11.8075758,26.0667003 12.1350168,26.3934812 C12.4624579,26.7202621 12.916835,26.9084341 13.379798,26.9084341 C13.8446128,26.9084341 14.2969697,26.7202621 14.6244108,26.3934812 C14.9537037,26.0668683 15.140404,25.6134073 15.140404,25.1513777 C15.140404,24.6893481 14.9537037,24.2360551 14.6244108,23.9089382 C14.2969697,23.5821573 13.8427609,23.3943212 13.379798,23.3943212 Z"/>
        </g>
    </g>
</svg>