<svg xmlns="http://www.w3.org/2000/svg" xmlns:xlink="http://www.w3.org/1999/xlink" width="60px" height="60px" viewBox="0 0 60 60" version="1.1">
    <!-- Generator: sketchtool 52.5 (67469) - http://www.bohemiancoding.com/sketch -->
    <title>FD2BD315-6E49-432B-BF5E-00B1CC3C63AB</title>
    <desc>Created with sketchtool.</desc>
    <g id="Symbols" stroke="none" stroke-width="1" fill="none" fill-rule="evenodd">
        <g id="visok_kach_ico" fill="#C777BF" fill-rule="nonzero">
            <path d="M48.3333333,35.6210938 C47.1128472,35.6210938 36.7834201,35.6210938 35.5047743,35.6210938 L26.0672743,29.3171387 C25.7560764,28.9953308 25.4713542,28.6552582 25.2105034,28.2999649 C30.8697917,23.375 36.6666667,18.6722564 36.6666667,12.0360566 C36.6666667,6.57097629 32.8780382,2 27.5247396,2 C24.3997396,2 21.843316,3.65209201 20.0494791,6.21698758 C18.2560764,3.65209201 15.6992188,2 12.5746528,2 C7.219618,2 3.33333333,5.95432279 3.33333333,11.4028779 C3.33333333,17.57724 8.66796878,22.6535415 13.3333333,26.8696594 L13.3333333,29.2284241 C12.811632,29.0431671 12.250868,28.9414062 11.6666667,28.9414062 L5,28.9414062 C2.24305556,28.9414062 0,31.1888428 0,33.9511719 C0,35.2331848 0.483941,36.4038696 1.27734378,37.2910156 C0.483941,38.1781616 0,39.3488464 0,40.6308594 C0,41.9128723 0.483941,43.0835571 1.27734378,43.9707031 C0.483941,44.8578491 0,46.0285339 0,47.3105469 C0,48.5925598 0.483941,49.7632446 1.27734378,50.6503906 C0.483941,51.5375366 0,52.7082214 0,53.9902344 C0,56.7525635 2.24305556,59 5,59 L28.3333333,59 C28.5920139,59 28.8472222,58.9395523 29.078559,58.8238755 L35.3932291,55.6601562 L40,55.6601562 L40,57.3300781 C40,57.9088974 40.2990451,58.4464035 40.7903646,58.7508164 C41.0581598,58.9165039 41.3619791,59 41.6666667,59 C41.921441,59 42.1766493,58.9417266 42.4118923,58.8238755 L49.078559,55.4840317 C49.6432291,55.2009277 50,54.6229782 50,53.9902344 L50,37.2910156 C50,36.3686447 49.2539062,35.6210938 48.3333333,35.6210938 Z M6.66666667,11.4028779 C6.66666667,7.77645114 9.04079867,5.33984375 12.5746528,5.33984375 C16.5551216,5.33984375 18.297309,9.83558649 18.4830729,10.3478699 C18.7217882,11.0088806 19.3485243,11.4485398 20.0499132,11.4485398 C20.7513021,11.4485398 21.3776042,11.0084458 21.6167534,10.3478699 C21.8020833,9.83515164 23.5434028,5.33984375 27.5247396,5.33984375 C30.8359376,5.33984375 33.3333333,8.21871948 33.3333333,12.0360566 C33.3333333,14.8292618 31.8493923,17.5363617 28.5217013,20.8131485 C27.1471354,22.1669159 25.5355902,23.5902634 23.6966146,25.1932144 C23.4587673,24.3430328 23.3333333,23.4554519 23.3333333,22.5483017 L23.3333333,17.2519531 C23.3333333,16.3295822 22.5872396,15.5820312 21.6666667,15.5820312 C17.5798611,15.5820312 14.1731771,18.5461426 13.469184,22.4408875 C9.12239578,18.2726059 6.66666667,14.9327622 6.66666667,11.4028779 Z M3.33333333,47.3105469 C3.33333333,46.3899155 4.08116322,45.640625 5,45.640625 L11.6666667,45.640625 C12.5855034,45.640625 13.3333333,46.3899155 13.3333333,47.3105469 C13.3333333,48.2311783 12.5855034,48.9804688 11.6666667,48.9804688 L5,48.9804688 C4.08116322,48.9804688 3.33333333,48.2311783 3.33333333,47.3105469 Z M3.33333333,40.6308594 C3.33333333,39.710228 4.08116322,38.9609375 5,38.9609375 L11.6666667,38.9609375 C12.5855034,38.9609375 13.3333333,39.710228 13.3333333,40.6308594 C13.3333333,41.5514908 12.5855034,42.3007812 11.6666667,42.3007812 L5,42.3007812 C4.08116322,42.3007812 3.33333333,41.5514908 3.33333333,40.6308594 Z M5,32.28125 L11.6666667,32.28125 C12.5855034,32.28125 13.3333333,33.0305405 13.3333333,33.9511719 C13.3333333,34.8718033 12.5855034,35.6210937 11.6666667,35.6210937 L5,35.6210937 C4.08116322,35.6210937 3.33333333,34.8718033 3.33333333,33.9511719 C3.33333333,33.0305405 4.08116322,32.28125 5,32.28125 Z M3.33333333,53.9902344 C3.33333333,53.069603 4.08116322,52.3203125 5,52.3203125 L11.6666667,52.3203125 C12.5855034,52.3203125 13.3333333,53.069603 13.3333333,53.9902344 C13.3333333,54.9108658 12.5855034,55.6601562 11.6666667,55.6601562 L5,55.6601562 C4.08116322,55.6601562 3.33333333,54.9108658 3.33333333,53.9902344 Z M35,52.3203125 C34.7413194,52.3203125 34.4861111,52.3807602 34.2547743,52.496437 L27.9401042,55.6601562 L16.3802083,55.6601562 C16.5651042,55.137436 16.6666667,54.5755767 16.6666667,53.9902344 C16.6666667,52.7082214 16.1827257,51.5375366 15.3893229,50.6503906 C16.1831598,49.7632446 16.6666667,48.5925598 16.6666667,47.3105469 C16.6666667,46.0285339 16.1827257,44.8578491 15.3893229,43.9707031 C15.3971354,43.9620056 15.4049479,43.9528733 15.4127604,43.9437408 C17.5212673,46.98526 21.032118,48.9804688 25,48.9804688 C25.9205729,48.9804688 26.6666667,48.2329178 26.6666667,47.3105469 C26.6666667,46.388176 25.9205729,45.640625 25,45.640625 C20.4049479,45.640625 16.6666667,41.8950424 16.6666667,37.2910156 L16.6666667,23.9316406 C16.6666667,21.7546539 18.0598958,19.8973007 20,19.208023 L20,22.5483017 C20,26.039917 21.3572049,29.322792 23.8216146,31.7920151 C24.0386284,32.0094528 23.5208333,31.6167603 34.0755209,38.6804428 C34.3493923,38.8630905 34.6710069,38.9609375 35,38.9609375 L40,38.9609375 L40,52.3203125 L35,52.3203125 Z M46.6666667,52.9582749 L43.3333333,54.6281967 L43.3333333,38.9609375 L46.6666667,38.9609375 L46.6666667,52.9582749 Z"/>
        </g>
    </g>
</svg>