<svg xmlns="http://www.w3.org/2000/svg" width="40" height="40" viewBox="0 0 40 40">
    <path fill="#C777BF" fill-rule="nonzero" d="M29.085 6.211c-2.26-1.845-4.183-1.195-6.042-.565-.967.327-1.967.665-3.097.688-1.13-.023-2.13-.361-3.096-.688-1.86-.63-3.782-1.28-6.043.565-.98.8-1.763 2.13-2.27 3.823a23.716 23.716 0 0 0 0 10.035c.094.39.198.78.311 1.168.225.764.93 1.298 1.714 1.298h.52v.804c0 1.239.988 2.247 2.202 2.247h3.194l.092 1.566-.267.032a.931.931 0 0 0-.804 1.037.924.924 0 0 0 1.017.82l.165-.02.094 1.569-.472.056a.931.931 0 0 0-.804 1.038.924.924 0 0 0 1.017.82l.37-.044.015.267C16.977 34.002 18.017 35 19.27 35h1.356c1.251 0 2.291-.998 2.367-2.273l.06-1.003.686-.082a.931.931 0 0 0 .804-1.038.921.921 0 0 0-1.017-.82l-.361.043.094-1.59.48-.057a.931.931 0 0 0 .804-1.038.92.92 0 0 0-1.017-.82l-.155.019.045-.755h2.933c1.214 0 2.202-1.008 2.202-2.247v-.804h.78c.785 0 1.49-.534 1.714-1.298.968-3.295 1.21-6.72.684-9.64-.439-2.44-1.377-4.353-2.643-5.386zm-7.923 26.403a.544.544 0 0 1-.538.516h-1.356a.544.544 0 0 1-.537-.516l-.022-.372 2.492-.298-.04.67zm.152-2.566l-2.716.324-.093-1.568 2.903-.346-.094 1.59zm.206-3.487l-3.126.374-.08-1.35h3.264l-.058.976zm5.197-3.222a.373.373 0 0 1-.37.377H13.284a.374.374 0 0 1-.37-.377v-.804h13.803v.804zm2.581-2.674H10.594c-.877-3.006-1.1-6.105-.627-8.731.355-1.968 1.078-3.522 1.986-4.263 1.483-1.21 2.611-.829 4.32-.25 1.05.355 2.241.759 3.657.784h.032c1.416-.025 2.607-.429 3.658-.785 1.708-.578 2.837-.96 4.32.251.907.741 1.631 2.295 1.985 4.263.473 2.626.25 5.725-.627 8.731z"/>
</svg>