<svg xmlns="http://www.w3.org/2000/svg" xmlns:xlink="http://www.w3.org/1999/xlink" width="40px" height="40px" viewBox="0 0 40 40" version="1.1">
    <!-- Generator: sketchtool 52.6 (67491) - http://www.bohemiancoding.com/sketch -->
    <title>AA3D191F-32A3-467E-B988-8C59D8E2E0CF</title>
    <desc>Created with sketchtool.</desc>
    <g id="Symbols" stroke="none" stroke-width="1" fill="none" fill-rule="evenodd">
        <g id="terapevt_ico" fill="#C777BF" fill-rule="nonzero">
            <path d="M32.1952153,13.7690777 C31.6676917,12.2464339 30.9034156,11.0428362 29.9648458,10.2916428 C27.5935222,8.3934021 25.5011529,9.08804512 23.6552426,9.70039433 C22.6778471,10.0249269 21.667534,10.3600098 20.5365236,10.3832208 C19.4050912,10.3600098 18.3952002,10.0249269 17.4178046,9.70039433 C15.5714723,9.08804512 13.479103,8.3934021 11.1082014,10.2912207 C9.78854856,11.3479558 8.81115299,13.2938845 8.35621677,15.771557 C7.82742712,18.6514133 8.05109714,22.0233436 8.98629083,25.2661362 C9.96959471,28.6747821 11.6580919,31.769446 13.8694705,34.215889 C14.3260948,34.7210455 14.9637652,35 15.630555,35 C15.7634909,35 15.8972708,34.9886055 16.0310508,34.9662385 C16.8413269,34.8299264 17.516979,34.2973387 17.8381354,33.541081 C18.2998239,32.4543825 18.6741546,31.4601062 18.950577,30.5861052 C19.1700267,29.8923063 19.8072751,29.4259756 20.5365236,29.4259756 C21.2657721,29.4259756 21.9034425,29.8918843 22.1228923,30.5861052 C22.3988926,31.4601062 22.7732233,32.4543825 23.2349119,33.541503 C23.5560682,34.2973387 24.2317203,34.8299264 25.0419964,34.9662385 C25.8484744,35.1017065 26.6566404,34.821486 27.2035768,34.215889 C29.4153773,31.769446 31.1038746,28.6747821 32.0867565,25.2661362 C32.1247381,25.1344663 32.1597657,25.0019524 32.1952153,24.8694384 C33.6271251,19.878644 32.8708673,15.771557 32.1952153,13.7690777 Z M25.6003273,32.7670985 C25.547153,32.8257591 25.480052,32.8489702 25.4002903,32.8354656 C25.3424738,32.8257591 25.2648223,32.7936857 25.2234645,32.6966213 C24.7887851,31.6728037 24.4385096,30.7439402 24.1827661,29.9349302 C23.7130592,28.4481579 22.4098651,27.4163219 20.8796249,27.2808539 C21.2045794,27.0483215 21.578066,26.8997709 22.002195,26.8997709 C22.5989295,26.8997709 23.0829851,26.4157153 23.0829851,25.8189808 C23.0829851,25.2226682 22.5989295,24.7386126 22.002195,24.7386126 C18.6690904,24.7386126 17.3443733,28.6081031 17.112263,29.3837737 C17.0253271,29.5593335 16.9506298,29.7433337 16.8898591,29.9349302 C16.6341157,30.7439402 16.2842621,31.6728037 15.8491606,32.6961993 C15.8078029,32.7936857 15.7305734,32.8257591 15.6727568,32.8354656 C15.5929953,32.8493921 15.5254723,32.8257591 15.4722979,32.7670985 C11.5378165,28.4143964 9.485117,21.5861322 10.4810814,16.1619243 C10.8317791,14.2527112 11.571156,12.6887096 12.4586616,11.9784519 C13.2377084,11.3547081 13.904498,11.1664877 14.6261502,11.2158639 C13.9623146,12.317333 13.2782222,13.9281788 13.5786996,15.5875568 C13.5998004,15.7048781 13.6213234,15.8200892 13.6424243,15.9327681 C13.6985528,16.2370437 13.7491951,16.5109339 13.7871768,16.7645672 C13.7905529,16.8135214 13.7968833,16.8624756 13.8074337,16.9114297 C13.9479659,17.9829355 13.8070117,18.6974133 12.7439463,19.8123871 C12.3320559,20.2441123 12.3480926,20.9282048 12.7802399,21.3396732 C12.9891392,21.5392881 13.2575432,21.6384624 13.5255251,21.6384624 C13.8108099,21.6384624 14.0952506,21.5262055 14.307526,21.3033795 C15.6335091,19.9132495 16.0036196,18.7180922 16.01206,17.5710452 C16.8746664,17.5081644 18.1512733,17.6925866 18.6779528,19.1768267 C18.8349437,19.6195244 19.2514763,19.8963688 19.6962842,19.8963688 C19.8161375,19.8963688 19.938101,19.8761119 20.0575323,19.8339101 C20.6196613,19.6342951 20.9138085,19.0164596 20.7141935,18.4543305 C20.1010002,16.7253195 18.771219,15.6580339 16.9700426,15.4487126 C16.5265009,15.3972263 16.1087022,15.4035566 15.7474541,15.4343639 C15.7331056,15.3575565 15.719179,15.2811711 15.7048303,15.2026756 C15.4862246,13.9957018 16.2437483,12.6047278 16.8337306,11.7830572 C17.8934199,12.1345988 19.0919533,12.519058 20.5175328,12.5439571 L20.5550924,12.5439571 C22.0237179,12.518214 23.2517927,12.1105438 24.335537,11.7509837 C26.0966214,11.1664877 27.1592647,10.81368 28.6143856,11.9784519 C29.5018912,12.6887096 30.2408461,14.2527112 30.5915438,16.1619243 C31.5875082,21.5861322 29.5352307,28.4143964 25.6003273,32.7670985 Z M7.87806938,7.29193307 L5.75658091,3.97866337 C5.43500252,3.47603894 5.58144307,2.80798324 6.0840675,2.48598287 C6.58669193,2.16398249 7.25474762,2.31084503 7.576748,2.81346946 L9.69781448,6.12673916 C10.0193929,6.62936348 9.87295232,7.29741928 9.37032789,7.61899767 C9.19012594,7.73463077 8.98840089,7.78991526 8.78878602,7.78991526 C8.43260215,7.78991526 8.08401456,7.61393334 7.87806938,7.29193307 Z M7.10197687,10.4342851 C7.6995555,10.4034777 8.20429,10.8651662 8.23256518,11.4614789 C8.26126257,12.0573695 7.80126201,12.563792 7.20537145,12.5924893 L2.13228337,12.8359941 C2.11455853,12.8368381 2.09683379,12.8372602 2.07953105,12.8372602 C1.50642945,12.8372602 1.02912615,12.3869661 1.00127294,11.8083783 C0.972575686,11.2124877 1.43257613,10.7060652 2.02846669,10.67779 L7.10197687,10.4342851 Z M13.1030843,7.32611656 C12.5540378,7.0923182 12.2978724,6.4580239 12.5312488,5.90897735 L14.7637284,0.657797385 C14.9971048,0.108750833 15.631821,-0.146992511 16.1808675,0.0863838636 C16.7299139,0.319760346 16.9856574,0.954054535 16.752281,1.50310098 L14.5202234,6.75428105 C14.3450857,7.16574941 13.9454339,7.4122084 13.5251031,7.4122084 C13.3841488,7.4122084 13.2406624,7.3847772 13.1030843,7.32611656 Z"/>
        </g>
    </g>
</svg>