<svg xmlns="http://www.w3.org/2000/svg" xmlns:xlink="http://www.w3.org/1999/xlink" width="40px" height="40px" viewBox="0 0 40 40" version="1.1">
    <!-- Generator: sketchtool 52.6 (67491) - http://www.bohemiancoding.com/sketch -->
    <title>66FAA06D-F73A-4F33-9CB5-CBED200F6F69</title>
    <desc>Created with sketchtool.</desc>
    <g id="Symbols" stroke="none" stroke-width="1" fill="none" fill-rule="evenodd">
        <g id="desna_ico" fill="#C777BF" fill-rule="nonzero">
            <path d="M9.08609649,23.5663129 C8.37022432,24.1733537 8.02356241,24.8323475 8.02356241,25.5217391 C8.02356241,25.7400691 8.01975631,25.9189779 8.00957539,26.267968 C7.9596416,27.9796409 8.07726855,28.3485625 8.99470548,28.8189868 C10.5132695,29.5976446 13.8902157,30 20,30 C26.1097843,30 29.4867305,29.5976446 31.0052945,28.8189868 C31.9227315,28.3485625 32.0403584,27.9796409 31.9904246,26.267968 C31.9802437,25.9189779 31.9764376,25.7400691 31.9764376,25.5217391 C31.9764376,24.8320274 31.63051,24.1741434 30.9137384,23.5664537 C29.6929279,24.6079024 28.1775186,25.2323838 26.4959881,25.2323838 C23.6436425,25.2323838 21.269288,23.4355235 20,20.8546408 C18.730712,23.4355235 16.3563575,25.2323838 13.5040119,25.2323838 C11.8224056,25.2323838 10.3069354,24.6078461 9.08609649,23.5663129 Z M7.74075992,22.08763 C6.65093459,20.5521588 6.01124676,18.5866938 6.01124676,16.4973926 C6.01124676,16.2588042 6.00944511,16.0580873 6.00453608,15.6592628 C5.97131365,12.9601702 6.10285109,11.9823997 6.99713216,10.8956043 C8.09074901,9.56656149 10.0970732,9 13.5040119,9 C16.8996716,9 18.9039751,9.56281639 20,10.8824296 C21.0960249,9.56281639 23.1003284,9 26.4959881,9 C29.9029268,9 31.909251,9.56656149 33.0028678,10.8956043 C33.8971489,11.9823997 34.0286863,12.9601702 33.9954639,15.6592628 C33.9905549,16.0580873 33.9887532,16.2588042 33.9887532,16.4973926 C33.9887532,18.5866811 33.3490732,20.5521347 32.2592601,22.0876019 C33.3669502,23.0489979 33.9752032,24.2144006 33.9752032,25.5217391 C33.9752032,25.7147484 33.9787057,25.8793872 33.9883392,26.2096118 C34.0585307,28.6156949 33.7212,29.6736884 31.9168325,30.5988946 C30.0199676,31.5715297 26.4238406,32 20,32 C13.5761594,32 9.98003244,31.5715297 8.08316751,30.5988946 C6.27879995,29.6736884 5.94146935,28.6156949 6.01166083,26.2096118 C6.02129431,25.8793872 6.02479683,25.7147484 6.02479683,25.5217391 C6.02479683,24.2131126 6.63314203,23.0487501 7.74075992,22.08763 Z M20.9994328,16.0139824 C21.0012459,16.1990319 21.0019886,16.339702 21.0019886,16.4973926 C21.0019886,20.1600802 23.430358,23.2323838 26.4959881,23.2323838 C29.5616183,23.2323838 31.9899877,20.1600802 31.9899877,16.4973926 C31.9899877,16.2481196 31.9918434,16.041378 31.9968499,15.634632 C32.0237408,13.4499345 31.9276076,12.7353379 31.4598386,12.1668709 C30.8443006,11.4188244 29.3611475,11 26.4959881,11 C23.6308288,11 22.1476756,11.4188244 21.5321376,12.1668709 C21.1767912,12.5987139 21.0359108,13.1148863 21.0005074,14.2958054 C21.0101637,14.6966167 21.0097939,15.1469298 21.0034877,15.6592628 C21.0017772,15.7982267 21.000444,15.9131391 20.9994328,16.0139824 Z M18.9994926,14.2958054 C18.9640892,13.1148863 18.8232088,12.5987139 18.4678624,12.1668709 C17.8523244,11.4188244 16.3691712,11 13.5040119,11 C10.6388525,11 9.15569941,11.4188244 8.54016141,12.1668709 C8.0723924,12.7353379 7.9762592,13.4499345 8.00315007,15.634632 C8.0081566,16.041378 8.01001234,16.2481196 8.01001234,16.4973926 C8.01001234,20.1600802 10.4383817,23.2323838 13.5040119,23.2323838 C16.569642,23.2323838 18.9980114,20.1600802 18.9980114,16.4973926 C18.9980114,16.339702 18.9987541,16.1990319 19.0005672,16.0139824 C18.999556,15.9131391 18.9982228,15.7982266 18.9965123,15.6592628 C18.9902061,15.1469298 18.9898363,14.6966167 18.9994926,14.2958054 Z"/>
        </g>
    </g>
</svg>