<svg xmlns="http://www.w3.org/2000/svg" width="18" height="23" viewBox="0 0 18 23">
    <path fill="#C777BF" fill-rule="nonzero" d="M9.01 0C4.048 0 0 4.048 0 9.03c0 .602.058 1.206.175 1.79 0 .038.02.077.02.136.992 4.456 7.978 11.15 8.27 11.422.156.156.35.214.545.214.194 0 .389-.077.545-.214.291-.292 7.238-6.966 8.23-11.325 0-.039.02-.078.02-.117A8.935 8.935 0 0 0 18 9.03C18.02 4.048 13.972 0 9.01 0zm7.239 10.644v.059c-.74 3.23-5.585 8.328-7.24 9.982-1.653-1.654-6.518-6.752-7.258-10.06 0-.04 0-.059-.02-.097a8.036 8.036 0 0 1-.155-1.518c0-4.087 3.328-7.434 7.414-7.434 4.087 0 7.434 3.328 7.434 7.434 0 .564-.059 1.109-.175 1.634zM9.009 5.08a3.019 3.019 0 0 0-3.016 3.016 3.031 3.031 0 0 0 3.017 3.016 3.019 3.019 0 0 0 3.016-3.016A3.006 3.006 0 0 0 9.01 5.08zm0 4.456c-.797 0-1.44-.642-1.44-1.44 0-.798.643-1.44 1.44-1.44.799 0 1.44.642 1.44 1.44 0 .798-.641 1.44-1.44 1.44z"/>
</svg>