<svg xmlns="http://www.w3.org/2000/svg" xmlns:xlink="http://www.w3.org/1999/xlink" width="60px" height="60px" viewBox="0 0 60 60" version="1.1">
    <!-- Generator: sketchtool 52.5 (67469) - http://www.bohemiancoding.com/sketch -->
    <title>E757DE73-3880-4A45-AF27-AA900B80B363</title>
    <desc>Created with sketchtool.</desc>
    <g id="Symbols" stroke="none" stroke-width="1" fill="none" fill-rule="evenodd">
        <g id="serv_online_ico" fill="#C777BF" fill-rule="nonzero">
            <path d="M26.2142578,8.09740332 C30.5291016,8.09740332 34.0394531,11.5986629 34.0395508,15.902331 L34.0395508,44.1906891 C34.0395508,48.4933832 30.5299805,51.9945454 26.2163086,51.9956169 L7.82714844,52 C7.82666016,52 7.82578125,52 7.82519531,52 C5.73515625,52 3.77060547,51.188533 2.29257812,49.714626 C0.814160156,48.2404268 0,46.2801851 0,44.1950723 L0,15.902331 C0,11.5986629 3.51035156,8.09740332 7.82519531,8.09740332 L26.2142578,8.09740332 Z M30.1267578,15.902331 C30.1268555,13.750497 28.3716797,11.9998672 26.2143555,11.9997698 L7.82519531,11.9997698 C5.66777344,11.9997698 3.91259766,13.7503996 3.91259766,15.9022336 L3.91259766,44.1949749 C3.91259766,45.2376774 4.31972656,46.2176521 5.05888672,46.954703 C5.79785156,47.6916565 6.78027344,48.0974387 7.82519531,48.0974387 C7.82548828,48.0974387 7.82578125,48.0974387 7.82607422,48.0974387 L26.2151367,48.093153 C28.3720703,48.092666 30.1267578,46.3420362 30.1267578,44.1906891 L30.1267578,15.902331 Z M48.0354492,36.390242 C46.9550781,36.3897549 46.0794922,35.5158524 46.0798828,34.4381821 L46.0857422,18.6341044 L42.1722656,18.6341044 L42.1583984,43.7313351 L44.0390625,46.5327519 L46.4336914,43.1641556 C47.0586914,42.2848958 48.2796875,42.0776216 49.1610352,42.7009054 C50.0424805,43.3241892 50.250293,44.5421203 49.6253906,45.4211852 L45.5887695,51.0997011 C45.2216797,51.6162309 44.6265625,51.922467 43.9930664,51.922467 C43.984375,51.922467 43.9755859,51.9223696 43.9667969,51.9222722 C43.3233398,51.9137007 42.7253906,51.5902242 42.3673828,51.0568437 L38.5762695,45.409302 C38.3603516,45.0878711 38.2453125,44.7095566 38.2455078,44.3226706 L38.2623047,13.8525757 C38.2623047,10.6259934 40.8950195,8 44.1311523,8 C47.3671875,8 50,10.625896 50,13.8536471 L49.9923828,34.439838 C49.9919922,35.5171186 49.1162109,36.390242 48.0361328,36.390242 C48.0359375,36.390242 48.0356445,36.390242 48.0354492,36.390242 Z M42.1743164,14.7315432 L46.0870117,14.7315432 L46.0873047,13.8526731 C46.0873047,12.7775353 45.2097656,11.9022691 44.1310547,11.9022691 C43.0524414,11.9022691 42.1748047,12.7775353 42.1748047,13.8534523 L42.1743164,14.7315432 Z M15.8458984,36.0014079 C16.9263672,36.0014079 17.8022461,36.8749209 17.8021484,37.9525911 C17.8021484,39.030164 16.9263672,39.9037744 15.8458984,39.9037744 L9.87919922,39.9037744 C8.79882812,39.9037744 7.92294922,39.0302614 7.92294922,37.9525911 C7.92294922,36.8750183 8.79873047,36.0014079 9.87919922,36.0014079 L15.8458984,36.0014079 Z M24.1601562,28.1964802 C25.240625,28.1964802 26.1164062,29.0700905 26.1164062,30.1476634 C26.1164062,31.2252363 25.240625,32.0988467 24.1601562,32.0988467 L9.87929687,32.0988467 C8.79892578,32.0988467 7.92304687,31.2253337 7.92304687,30.1476634 C7.92304687,29.0700905 8.79882812,28.1964802 9.87929687,28.1964802 L24.1601562,28.1964802 Z M24.1601562,20.3915525 C25.240625,20.3915525 26.1165039,21.2651628 26.1165039,22.3427357 C26.1165039,23.4203086 25.2407227,24.2939189 24.1602539,24.2939189 L23.7581055,24.2939189 L9.87929687,24.2939189 C8.79892578,24.2939189 7.92304687,23.4203086 7.92304687,22.3427357 C7.92304687,21.2651628 8.79882812,20.3915525 9.87929687,20.3915525 L23.7580078,20.3915525 L24.1601562,20.3915525 Z"/>
        </g>
    </g>
</svg>