<svg xmlns="http://www.w3.org/2000/svg" xmlns:xlink="http://www.w3.org/1999/xlink" width="40px" height="40px" viewBox="0 0 40 40" version="1.1">
    <!-- Generator: sketchtool 52.6 (67491) - http://www.bohemiancoding.com/sketch -->
    <title>41EF314C-DA65-47E1-BFFA-62DBEC5905A3</title>
    <desc>Created with sketchtool.</desc>
    <g id="Symbols" stroke="none" stroke-width="1" fill="none" fill-rule="evenodd">
        <g id="white_tooth_ico" fill="#C777BF" fill-rule="nonzero">
            <path d="M31.2730804,13.6338228 C30.7691728,11.9592548 29.9925372,10.6434452 29.0205884,9.85258658 C26.7783948,8.02555508 24.8714295,8.66973085 23.0273193,9.29222945 C22.0681547,9.61630443 21.0763197,9.95121808 19.9559331,9.97397922 C19.3902355,9.96277928 18.8572085,9.87137354 18.3447781,9.74203252 C18.6157306,9.58667889 18.9026632,9.45842176 19.2013145,9.36087415 L19.8913022,9.13543067 C20.3902382,8.97068351 20.7229806,8.5038998 20.7222703,7.97352966 C20.7212051,7.44315933 20.3873973,6.97818223 19.8913022,6.81632537 L19.2013145,6.59052053 C17.7844072,6.12698858 16.6665064,4.98929377 16.2108944,3.54703357 L15.9882376,2.84324537 C15.8273706,2.33852648 15.369983,2 14.8490299,2 C14.3259462,2.00072258 13.8689136,2.34069425 13.7094672,2.84541305 L13.4878757,3.54739493 C13.0322636,4.98965513 11.9140078,6.12698858 10.4963902,6.59052053 L9.80675764,6.81632537 C9.31066256,6.97818223 8.97649974,7.44315933 8.97578947,7.97352966 C8.9747241,8.5038998 9.30782164,8.97068351 9.80640255,9.13543067 L10.4971004,9.36123541 C10.7265045,9.43602197 10.9498716,9.53067928 11.1654261,9.64159461 C11.0741616,9.70879406 10.9825421,9.77816128 10.8909225,9.85258658 C9.63701281,10.874308 8.70590237,12.76601 8.26982163,15.1794113 C7.76058733,18.0021515 7.9768521,21.3090172 8.8788432,24.4905161 C9.82699915,27.8360395 11.4555548,30.8730232 13.588373,33.2734182 C14.0876642,33.8344979 14.8238168,34.094625 15.5592592,33.968897 C16.2986077,33.8428075 16.9150867,33.348566 17.2087665,32.6462229 C17.6540801,31.5797018 18.0155869,30.6020575 18.2836984,29.7407478 C18.5148779,28.996134 19.1867549,28.4961119 19.9559331,28.4961119 C20.3323545,28.4961119 20.6906651,28.6149756 20.9932228,28.8404191 C21.2961355,29.0658626 21.5155964,29.3769312 21.6285228,29.7407478 C21.8948588,30.5980834 22.2570757,31.5753664 22.704165,32.6462229 C22.9967794,33.3474822 23.6125481,33.8417237 24.3511865,33.9685356 C24.4737011,33.9898516 24.5965707,33.9999676 24.71802,33.9999676 C25.3259762,33.9999676 25.9072987,33.741647 26.3238482,33.2741408 C28.4570216,30.8726619 30.085222,27.8356782 31.0333781,24.4905161 C31.1210913,24.1816151 31.727272,22.116495 32,19.110582 C32,17.4920134 32,15.7809552 31.2730804,13.6338228 Z M14.8497401,5.03517733 C15.4740316,6.30546462 16.4903696,7.33983112 17.7385975,7.97533608 C16.9960528,8.35252036 16.3291476,8.87349707 15.7765893,9.51225359 C15.4058496,9.94110203 15.0958346,10.4100534 14.8490299,10.9136883 C14.5560604,10.3175638 14.1746673,9.76768397 13.7190552,9.287894 C13.6537141,9.2192494 13.5873078,9.15204985 13.5191258,9.08629555 C13.5187706,9.08629555 13.5187706,9.08629555 13.5184155,9.08593419 C13.0574767,8.64082784 12.5287111,8.26545006 11.9594624,7.97569734 C13.2084005,7.34055374 14.2254487,6.30582598 14.8497401,5.03517733 Z M24.9765434,32.0320339 C24.8636169,32.1588459 24.7258324,32.1570395 24.6540992,32.1443944 C24.5802354,32.1317493 24.4460021,32.0862271 24.3778201,31.9229251 C23.953103,30.9062617 23.6114828,29.9838944 23.3625474,29.1836423 C23.1327884,28.4419188 22.6846337,27.8067752 22.0670894,27.3475786 C21.4516758,26.8887433 20.7215601,26.645958 19.9562881,26.645958 C19.9431489,26.645958 19.9300097,26.6466806 19.9172256,26.6470419 C20.3138886,26.2673286 20.79862,26.0006983 21.3792324,26.0006983 C21.8813644,26.0006983 22.2883258,25.5863014 22.2883258,25.075802 C22.2883258,24.5649413 21.8813644,24.1505444 21.3792324,24.1505444 C18.2229738,24.1505444 16.9722601,27.9296129 16.7627425,28.6478528 C16.6792906,28.8180192 16.6079126,28.9964953 16.5500289,29.1825585 C16.299318,29.9882298 15.9580528,30.9105971 15.5358215,31.9222025 C15.4672844,32.0862271 15.3323409,32.1317493 15.258122,32.1443944 C15.1863888,32.1566782 15.0493146,32.1584846 14.9370984,32.0327565 C11.0908521,27.7038082 9.08445458,20.910517 10.0581788,15.5136024 C10.4100974,13.5666234 11.127784,12.0297058 12.0272892,11.2970145 C12.2435541,11.1214287 12.454137,10.9769137 12.6632995,10.8620242 C12.7179872,10.9299462 12.770189,10.9996748 12.8209704,11.0708485 C12.8362404,11.0918031 12.8504449,11.1134804 12.8653597,11.1347963 C12.9022916,11.1882669 12.9385134,11.2424601 12.9733146,11.2973758 C12.986809,11.3194143 13.0010135,11.3410916 13.0145078,11.3634914 C13.0599625,11.438278 13.1043519,11.513787 13.1455451,11.5911026 C13.1459003,11.5914639 13.1459003,11.5914639 13.1462554,11.5918252 C13.1878038,11.669502 13.2265113,11.748624 13.2637983,11.8284686 C13.2744517,11.8519523 13.28475,11.875436 13.2954035,11.8989197 C13.3220371,11.9588934 13.3476054,12.0192285 13.3721083,12.0806474 C13.3816964,12.1044923 13.3912845,12.1286986 13.4005174,12.1525436 C13.4317675,12.2352784 13.4615972,12.3187359 13.4882308,12.4029159 L13.7098223,13.1048977 C13.8692687,13.6096166 14.3263012,13.9495883 14.8476095,13.9503108 L14.849385,13.9503108 C15.3049971,13.9503108 15.7126687,13.6912676 15.915439,13.2869867 C15.9445585,13.2291807 15.9694165,13.1684844 15.9893029,13.105259 L16.2116047,12.4025546 C16.2332666,12.33391 16.2570593,12.2659879 16.2815622,12.1987884 C16.2883094,12.180724 16.2950566,12.1630209 16.3018037,12.1449565 C16.3238209,12.0867893 16.3469033,12.0289832 16.3710511,11.9718998 C16.3749574,11.9625063 16.3788637,11.9527515 16.3827699,11.943358 C16.4111791,11.8783263 16.4410086,11.8140171 16.4719036,11.7504305 C16.4797162,11.7345338 16.4875287,11.7189984 16.4956963,11.7031018 C16.5219749,11.6507151 16.5489635,11.5986897 16.5770176,11.5473868 C16.584475,11.5343805 16.5915772,11.5210128 16.5986796,11.5080064 C16.6334808,11.4462262 16.6693474,11.3855299 16.7066345,11.3259175 C16.7144469,11.3129111 16.7229697,11.3002661 16.7311373,11.287621 C16.7485379,11.2601632 16.7670039,11.2330666 16.7851148,11.20597 C17.7098332,11.5098129 18.744282,11.8031785 19.9406631,11.8241331 L19.9722683,11.8241331 C21.3767466,11.798843 22.5582129,11.3999814 23.6004743,11.0480873 C25.2943709,10.476169 26.413337,10.0979009 27.8845769,11.2966532 C28.7844372,12.0289832 29.5021239,13.5659008 29.8540424,15.5136024 C30.8274115,20.9101556 28.8217242,27.702363 24.9765434,32.0320339 Z M26.8014773,13.8321698 C26.3618454,14.0785679 26.2002683,14.6382024 26.4424565,15.0858378 C26.5006952,15.1971144 27.8536819,17.869559 26.379246,22.3693964 C26.2205098,22.8538831 26.4779678,23.3777502 26.9545317,23.539607 C27.0497024,23.5717616 27.1466487,23.587297 27.2421745,23.587297 C27.6228573,23.587297 27.9776168,23.3419827 28.1043928,22.9543211 C29.8469401,17.6365285 28.1129156,14.3368886 28.0383415,14.1988767 C27.7957982,13.7516026 27.2414643,13.5857716 26.8014773,13.8321698 Z M26.8693042,24.9905381 C26.8465769,24.9348998 26.8185228,24.881068 26.7858522,24.8312102 C26.7521164,24.7802687 26.7137639,24.7333013 26.6722156,24.6906694 C26.6303121,24.6469536 26.583792,24.6093797 26.534076,24.5750573 C26.484715,24.5418188 26.4321581,24.5129158 26.3774705,24.4897934 C26.3220726,24.466671 26.2648991,24.4493292 26.2077257,24.4370455 C26.0901828,24.4132005 25.9694437,24.4132005 25.8519009,24.4370455 C25.7936621,24.4493292 25.7364886,24.466671 25.682156,24.4897934 C25.6264031,24.5129158 25.5738461,24.5418188 25.5248403,24.5750573 C25.4747691,24.6093797 25.4282492,24.6480375 25.3863456,24.6906694 C25.3447972,24.7333013 25.3064448,24.7802687 25.2737743,24.8312102 C25.2411037,24.881068 25.2126946,24.9348998 25.1899672,24.9905381 C25.1672399,25.0465377 25.1501944,25.1039824 25.1384756,25.1632336 C25.1264017,25.2232074 25.1203648,25.2835424 25.1203648,25.3446 C25.1203648,25.4045737 25.1264017,25.4656314 25.1384756,25.5248825 C25.1501944,25.5841337 25.1672399,25.642301 25.1899672,25.6979393 C25.2126946,25.7535776 25.2411037,25.808132 25.2737743,25.8579897 C25.3064448,25.9078474 25.3447972,25.9558987 25.3863456,25.9985306 C25.4282492,26.0411625 25.4747691,26.0798203 25.5248403,26.1130588 C25.5738461,26.1466585 25.6264031,26.1752002 25.682156,26.1983226 C25.7364886,26.221445 25.7940172,26.2391482 25.8519009,26.2510706 C25.9101397,26.2629931 25.970154,26.2694963 26.0294582,26.2694963 C26.0884071,26.2694963 26.1484215,26.2629931 26.2073706,26.2510706 C26.2648991,26.2391482 26.3220726,26.221445 26.3774705,26.1983226 C26.4321581,26.1752002 26.484715,26.1466585 26.5337209,26.1130588 C26.583792,26.0798203 26.6303121,26.0411625 26.6718605,25.9985306 C26.7137639,25.9558987 26.7521164,25.9078474 26.7854971,25.8579897 C26.8185228,25.808132 26.8465769,25.7535776 26.8693042,25.6979393 C26.8920315,25.642301 26.9094321,25.5841337 26.9211509,25.5248825 C26.9328697,25.4656314 26.9385516,25.4045737 26.9385516,25.3446 C26.9385516,25.2835424 26.9328697,25.2232074 26.9211509,25.1632336 C26.9094321,25.1039824 26.8920315,25.046899 26.8693042,24.9905381 Z"/>
        </g>
    </g>
</svg>