<svg xmlns="http://www.w3.org/2000/svg" width="40" height="40" viewBox="0 0 40 40">
    <path fill="#C777BF" fill-rule="nonzero" d="M27.57 21.175C25.038 20.057 22.517 19.5 20 19.5s-5.037.557-7.57 1.675c-.113.938.181 2.525.778 4.182.633 1.76 1.494 3.321 2.304 4.178.441.466.743.589.865.589h.003l.023-.002.007-.001c-.025-.278-.129-.732-.203-1.059-.25-1.1-.562-2.47-.24-3.902.387-1.72 1.612-3.065 3.642-3.996a.937.937 0 0 1 .77-.005c2.043.905 3.275 2.237 3.662 3.96.322 1.43.007 2.81-.245 3.918-.072.316-.182.796-.208 1.084l.016.002h.004c.183.014.843-.285 1.782-1.804a.938.938 0 0 1 1.595.987c-1.107 1.788-2.236 2.693-3.36 2.693-.052 0-.105-.002-.158-.007-.614-.01-1.085-.214-1.398-.607-.57-.714-.353-1.664-.102-2.765.439-1.922.934-4.09-1.96-5.564-2.898 1.52-2.407 3.677-1.972 5.59.248 1.09.462 2.03-.105 2.74-.313.392-.785.596-1.401.606a2.107 2.107 0 0 1-.156.007c-.738 0-1.485-.395-2.224-1.176-.993-1.05-1.979-2.811-2.706-4.831-.67-1.862-.988-3.594-.895-4.835C9.935 20.148 8 16.752 8 14.047c0-3.419 2.786-6.01 6.488-6.047h.066c1.551.007 2.585.398 3.499.743.842.319 1.575.595 2.707.615C22.104 8.448 23.655 8 25.438 8c1.742.006 3.365.59 4.573 1.646 1.283 1.12 1.989 2.682 1.989 4.4 0 2.705-1.934 6.1-2.548 7.11.094 1.208-.217 2.628-.512 3.65a.938.938 0 0 1-1.802-.519c.364-1.26.52-2.386.433-3.112zm.77-1.846c.72-1.316 1.785-3.557 1.785-5.282 0-2.369-2.017-4.162-4.69-4.172-2.507 0-4.37 1.098-5.861 3.454a.937.937 0 1 1-1.585-1.002c.304-.48.625-.92.962-1.32-.588-.142-1.091-.332-1.561-.51-.878-.332-1.636-.619-2.854-.622-2.318.012-4.661 1.447-4.661 4.172 0 1.725 1.066 3.966 1.785 5.282C14.43 18.11 17.212 17.5 20 17.5c2.788 0 5.57.611 8.34 1.829zm-.11-5.282a.937.937 0 1 1-1.876 0c0-.12-.013-.133-.065-.178-.136-.12-.434-.248-.863-.25a.938.938 0 0 1 .006-1.876h.006c.826.005 1.569.26 2.09.718.465.41.701.943.701 1.586z"/>
</svg>