<svg xmlns="http://www.w3.org/2000/svg" xmlns:xlink="http://www.w3.org/1999/xlink" width="50px" height="38px" viewBox="0 0 50 38" version="1.1">
    <!-- Generator: sketchtool 52.5 (67469) - http://www.bohemiancoding.com/sketch -->
    <title>51CE3019-54F6-482B-B13F-4EF79EF91FB1</title>
    <desc>Created with sketchtool.</desc>
    <g id="Symbols" stroke="none" stroke-width="1" fill="none" fill-rule="evenodd">
        <g id="quotes_ico" transform="translate(0.000000, -11.000000)" fill="#5F5C9E" fill-rule="nonzero">
            <path d="M15.3846154,26.2 L13.7543269,26.2 C14.99375,24.075325 16.5451923,21.9155 17.8519231,20.395975 C19.9139423,17.99865 19.625,14.4029 17.1985577,12.363725 C16.1134615,11.448875 14.7836538,11 13.4615385,11 C11.83125,11 10.2163462,11.67735 9.07451923,12.998325 C7.55721154,14.75155 0,22.4 0,31.9 L0,41.4 C0,45.5971 3.44423077,49 7.69230769,49 L15.3846154,49 C19.6326923,49 23.0769231,45.5971 23.0769231,41.4 L23.0769231,33.8 C23.0769231,29.6029 19.6326923,26.2 15.3846154,26.2 Z M19.2307692,41.4 C19.2307692,43.49475 17.5067308,45.2 15.3846154,45.2 L7.69230769,45.2 C5.57403846,45.2 3.84615385,43.49475 3.84615385,41.4 L3.84615385,31.9 C3.84615385,24.561725 9.61538462,18.1307 11.5086538,16.01695 L12.0004808,15.46595 C12.5,14.8874 13.13125,14.8 13.4615385,14.8 C13.7807692,14.8 14.2576923,14.8798 14.7086538,15.258375 C15.5125,15.935725 15.6100962,17.13605 14.9192308,17.93595 C13.3942308,19.7115 11.7115385,22.0903 10.4230769,24.3019 C9.73557692,25.478475 9.73557692,26.925325 10.4269231,28.1019 C11.1100962,29.276575 12.3798077,30 13.7543269,30 L15.3846154,30 C17.5067308,30 19.2307692,31.70525 19.2307692,33.8 L19.2307692,41.4 Z M42.3076923,26.2 L40.6774038,26.2 C41.9168269,24.075325 43.4682692,21.9155 44.775,20.395975 C46.8370192,17.99865 46.5480769,14.4029 44.1216346,12.363725 C43.0365385,11.448875 41.7067308,11 40.3807692,11 C38.7543269,11 37.1355769,11.67735 35.9975962,12.998325 C34.4802885,14.75155 26.9230769,22.4 26.9230769,31.9 L26.9230769,41.4 C26.9230769,45.5971 30.3673077,49 34.6153846,49 L42.3076923,49 C46.5557692,49 50,45.5971 50,41.4 L50,33.8 C50,29.6029 46.5557692,26.2 42.3076923,26.2 Z M46.1538462,41.4 C46.1538462,43.49475 44.4298077,45.2 42.3076923,45.2 L34.6153846,45.2 C32.4932692,45.2 30.7692308,43.49475 30.7692308,41.4 L30.7692308,31.9 C30.7692308,24.556025 36.5384615,18.125 38.4350962,16.013625 L38.9235577,15.464525 C39.4230769,14.8874 40.0504808,14.8 40.3807692,14.8 C40.7038462,14.8 41.1807692,14.8798 41.6317308,15.258375 C42.4355769,15.935725 42.5331731,17.13605 41.8456731,17.93595 C40.3168269,19.7115 38.6341346,22.0903 37.3461538,24.3019 C36.6586538,25.478475 36.6586538,26.925325 37.3461538,28.1019 C38.0336538,29.276575 39.3028846,30 40.6778846,30 L42.3076923,30 C44.4298077,30 46.1538462,31.70525 46.1538462,33.8 L46.1538462,41.4 Z"/>
        </g>
    </g>
</svg>