<svg xmlns="http://www.w3.org/2000/svg" xmlns:xlink="http://www.w3.org/1999/xlink" width="38px" height="38px" viewBox="0 0 38 38" version="1.1">
    <!-- Generator: sketchtool 52.5 (67469) - http://www.bohemiancoding.com/sketch -->
    <title>FEF739D2-1114-489E-A42A-0E465C8DA2BC</title>
    <desc>Created with sketchtool.</desc>
    <g id="Desktop" stroke="none" stroke-width="1" fill="none" fill-rule="evenodd">
        <g id="Главная-страница" transform="translate(-1250.000000, -2194.000000)" fill="#5F5C9E" fill-rule="nonzero">
            <g id="Group-8" transform="translate(0.000000, 1810.000000)">
                <g id="Акция" transform="translate(839.000000, 263.000000)">
                    <g id="time_ico" transform="translate(411.000000, 121.000000)">
                        <path d="M22.3575396,34.4351104 C23.1593513,34.2355171 23.9704391,34.7233052 24.1698724,35.5249571 C24.3697856,36.3258892 23.8815976,37.1376966 23.0802657,37.33713 C22.7146645,37.4283704 22.3421063,37.5090553 21.9724268,37.5776655 C21.5606057,37.6542723 21.1564612,37.5533561 20.8389191,37.3298532 C20.5308129,37.1125875 20.3038715,36.7797721 20.2297437,36.3801856 C20.0796489,35.5679784 20.6161359,34.7875173 21.4276234,34.6366229 C21.7380486,34.5794477 22.0507928,34.5115572 22.3575396,34.4351104 Z M33.4164166,14.390456 C33.3171797,14.0902664 33.2072274,13.7891971 33.0898384,13.4958845 C32.7828517,12.7287777 33.1563695,11.8586756 33.9228366,11.5520887 C34.6901034,11.2453419 35.5599656,11.6186998 35.8667124,12.3855667 C36.0064117,12.7345352 36.1375548,13.0929395 36.2557434,13.4502243 C36.5151508,14.233964 36.0902953,15.0795167 35.3061558,15.3398836 C34.838439,15.4945365 34.3483318,15.405775 33.9737745,15.1419696 C33.7211642,14.9638869 33.5211711,14.7061589 33.4164166,14.390456 Z M27.2169491,32.2999577 C27.9060098,31.8445555 28.833447,32.0339133 29.2886893,32.7232939 C29.7440115,33.4124346 29.5544139,34.3402716 28.865593,34.7953539 C28.5514095,35.0031037 28.2271503,35.2031768 27.901052,35.3912551 C27.3794385,35.6917646 26.7529106,35.6431457 26.291591,35.3185667 C26.1197456,35.1970195 25.9705304,35.0379686 25.8584991,34.8434131 C25.4458783,34.1281237 25.6909718,33.213401 26.406581,32.8006203 C26.6808619,32.6426889 26.9531436,32.4741221 27.2169491,32.2999577 Z M37.1855796,18.567202 C37.2004531,18.9435185 37.2035718,19.3250329 37.1953353,19.7015893 C37.1770233,20.5273907 36.4930004,21.1820663 35.6675989,21.1637543 C35.3591728,21.1567173 35.0747363,21.0568407 34.8403581,20.8917924 C34.446929,20.6144728 34.193759,20.1530732 34.2053539,19.635458 C34.2126308,19.3203149 34.2094322,19.000134 34.1970375,18.684671 C34.1646516,17.8595893 34.8075724,17.1641314 35.6321742,17.1315855 C36.4578157,17.0993595 37.1530337,17.7418005 37.1855796,18.567202 Z M33.1723626,28.3659063 C33.8323959,28.861771 33.9665776,29.798804 33.470793,30.4594771 C33.2439315,30.7616658 33.005635,31.0601762 32.7611811,31.3472515 C32.2559606,31.940114 31.3875377,32.04135 30.7626891,31.6008214 C30.7251054,31.5745927 30.6888812,31.5466849 30.6530567,31.5162981 C30.0245297,30.9809306 29.9489625,30.0368606 30.4839302,29.4083336 C30.6886413,29.1677181 30.8885544,28.9178266 31.078392,28.6648165 C31.5740967,28.0041434 32.51049,27.869322 33.1723626,28.3659063 Z M35.3706078,22.9600141 C36.1585057,23.2071068 36.5968753,24.0461024 36.3501824,24.8343201 C36.2375113,25.1922447 36.1129255,25.5521683 35.9786638,25.9044154 C35.6845515,26.6763201 34.8205268,27.063432 34.0489419,26.7689999 C33.9292338,26.7237395 33.8190417,26.6641654 33.7190052,26.5938759 C33.173642,26.2093229 32.9357453,25.4917146 33.1840375,24.8395179 C33.2971084,24.5432465 33.4018629,24.2407379 33.4963818,23.9396687 C33.7433146,23.1516109 34.5825501,22.7129215 35.3706078,22.9600141 Z M15.8330132,34.650057 C16.6457802,34.7956738 17.1865054,35.5729362 17.0407287,36.3861031 C16.894872,37.1987101 16.1182493,37.7399151 15.3052424,37.5938185 C12.6257662,37.1129874 10.1307698,36.0693606 7.89014289,34.4905263 C7.03395474,33.8875082 6.2387801,33.2205979 5.48158895,32.4737222 C2.7606107,29.7784928 0.944759344,26.3146372 0.277529129,22.465269 C0.211877642,22.0879929 0.15950039,21.7106368 0.106163555,21.2629912 C0.0657810934,20.8885938 0.0360340129,20.508279 0.0191613408,20.0948585 C-0.155003018,16.2547663 0.860555915,12.4828045 3.00802325,9.14849263 C3.13516803,8.95209793 3.26807031,8.75570322 3.40289175,8.56410643 C3.48533595,8.44719721 3.56953938,8.33028798 3.71835474,8.13781158 C6.26980662,4.72745273 9.84545368,2.33721084 14.0067664,1.26799521 C14.4722442,1.14996647 14.9441992,1.04857051 15.4228714,0.965726488 C20.1754473,0.141604413 24.9636877,1.1634806 28.9558738,3.8433567 L30.1269652,2.15121162 C30.452104,1.68141566 30.8427343,1.74730704 30.9953081,2.29778796 L32.3581562,7.20813535 C32.5112897,7.75797654 32.1707976,8.25048264 31.6014448,8.30166042 L26.526289,8.75602308 C25.957656,8.80720086 25.7578228,8.46478957 26.0826417,7.99491364 L27.2510143,6.30676682 C21.8110569,2.67938223 14.8546381,2.91727891 9.67792644,6.48468955 C8.22407786,7.49577042 6.92000423,8.77145638 5.84239225,10.3005523 C0.886624593,17.3351771 2.57804999,27.0899805 9.61275475,32.0454283 C10.0951852,32.3850408 10.5917695,32.6950661 11.1048267,32.9777433 C11.3821463,33.1287178 11.668262,33.273215 11.9972391,33.4310665 C13.2134309,34.0012188 14.4959939,34.4100013 15.8330132,34.650057 Z M17.6822101,7.20565642 C18.35016,7.20565642 18.891205,7.74782096 18.891285,8.41561093 L18.891285,18.9966955 L28.6076251,24.0199538 C29.2014472,24.3266206 29.4335064,25.0561438 29.1268396,25.6499659 C28.911813,26.0660252 28.4888767,26.3044816 28.0509868,26.3044816 C27.864028,26.3044816 27.6740305,26.2612204 27.4965876,26.1693403 L16.4717758,20.4701355 L16.4717758,8.41561093 C16.4717758,7.74782096 17.0134605,7.20565642 17.6822101,7.20565642 Z"/>
                    </g>
                </g>
            </g>
        </g>
    </g>
</svg>