<svg xmlns="http://www.w3.org/2000/svg" width="40" height="40" viewBox="0 0 40 40">
    <path fill="#C777BF" fill-rule="nonzero" d="M28.337 12.94c.42.035.837-.128 1.085-.418a.931.931 0 0 0 .234-.61c0-.327-.172-.628-.48-.827l-.123-.08a.851.851 0 0 1-.387-.572.807.807 0 0 1 .187-.66l1.682-1.97c.312-.366.886-.438 1.296-.169l1.269.836c2.02 1.33 2.504 3.835 1.09 5.689l-1.359 1.781c-.403.528-1.04.87-1.748.94l-1.49.148c1.064 1.624 1.2 3.634.335 5.365l-1.5 3-4.837 9.679c-.516 1.031-1.618 1.732-2.875 1.835l-1.038.086a2.325 2.325 0 0 1-.183.007c-.614 0-1.185-.257-1.554-.706a1.583 1.583 0 0 1-.214-1.735l.053-.11 6.552-13.356a.892.892 0 0 0 0-.794l-1.296-2.62-3.237.321a1.244 1.244 0 0 0-.828.418l-1.383 1.638c-.01.018-.01.018-.027.039L9.064 30.2c-.37.44-.935.692-1.543.692-.068 0-.136-.003-.204-.01-.682-.062-1.266-.432-1.558-.993l-.435-.837c-.538-1.033-.398-2.249.36-3.163l1.819-2.194c.308-.372.883-.45 1.297-.183.433.28.53.833.207 1.222L7.19 26.928a1.238 1.238 0 0 0-.161 1.385l.435.837c.006.012.02.018.044.02.028.003.047-.002.06-.018l7.842-9.327-1.64-.836-1.882 2.27c-.308.372-.884.45-1.298.183-.432-.28-.529-.833-.206-1.222l2.369-2.858c-.015.026-.026.066-.05.15l.056-.157.118-.072-.065.024a.413.413 0 0 0-.034.024l2.177-2.625c1.265-1.527 3.302-2.42 5.422-2.405l-.587-1.187a1.977 1.977 0 0 1 .044-1.855l1.069-1.93c1.103-1.994 3.76-2.863 6.052-1.992l1.454.553c.483.183.715.695.5 1.14l-1.09 2.27a.91.91 0 0 1-.524.457 1.03 1.03 0 0 1-.706-.01l-.145-.055a1.358 1.358 0 0 0-.494-.093c-.49 0-.927.255-1.113.641a.905.905 0 0 0 .123.982l1.238 1.54 2.14.178zm-6.117 3.09l-.964-1.95-.492-.04c-1.67-.139-3.322.517-4.306 1.704l-1.54 1.859 1.652.842.905-1.076c.509-.605 1.281-.997 2.12-1.08l2.625-.26zm-2.772 19.233c.013.012.026.018.06.016l1.039-.086c.587-.048 1.095-.371 1.328-.837l4.476-8.955-1.651-.841-5.252 10.703zm8.294-17.67l-4.304-5.352c-.634-.79-.758-1.8-.328-2.694.489-1.017 1.604-1.669 2.84-1.669.16 0 .319.011.475.033l.37-.77-.567-.215c-1.386-.527-2.988-.002-3.643 1.18l-1.069 1.93a.39.39 0 0 0-.008.368l4.543 9.186c.346.701.347 1.507.003 2.208l-.581 1.184 1.663.848 1.076-2.152c.666-1.332.486-2.896-.47-4.085zm3.135-2.423a.581.581 0 0 0 .406-.214l1.359-1.781c.823-1.079.543-2.526-.647-3.31l-.53-.35-.588.689c.427.484.665 1.086.665 1.708 0 .607-.22 1.185-.631 1.667-.642.753-1.693 1.162-2.745 1.075l-.48-.04.65.808 2.541-.252z"/>
</svg>