<svg xmlns="http://www.w3.org/2000/svg" width="60" height="60" viewBox="0 0 60 60">
    <path fill="#5F5C9E" fill-rule="nonzero" d="M39.55 30.098a5.866 5.866 0 0 0-5.859 5.86c0 3.23 2.629 5.859 5.86 5.859h8.3c.034 0 .066-.004.099-.005.032.001.064.004.097.004A1.953 1.953 0 0 0 50 39.863V24.531c0-2.6-1.278-4.906-3.238-6.327l-6.644-10.9a1.952 1.952 0 0 0-2.697-.643l-4.9 3.038-2.21-3.74a1.953 1.953 0 0 0-2.696-.675L8.8 16.72H5.86c-1.061 0-1.927-.85-1.953-1.904a1.955 1.955 0 0 1 1.952-1.905h3.614a1.953 1.953 0 1 0 0-3.906H5.859a5.87 5.87 0 0 0-5.7 4.501c-.102.237-.159.498-.159.772v32.911C0 51.495 3.505 55 7.813 55h34.374a7.803 7.803 0 0 0 7.413-5.339 1.953 1.953 0 1 0-3.706-1.236 3.902 3.902 0 0 1-3.706 2.669H7.812a3.91 3.91 0 0 1-3.906-3.906V20.29a5.831 5.831 0 0 0 1.953.335h36.328a3.91 3.91 0 0 1 3.907 3.906v5.567H39.55zm6.544 7.812H39.55a1.955 1.955 0 0 1-1.953-1.953c0-1.077.876-1.953 1.953-1.953h6.543v3.906zM16.32 16.72l11.633-7.07 2.08 3.52c.04.096.085.19.142.282.043.069.09.133.139.194l1.816 3.074h-15.81zm20.347 0l-2.16-3.656 3.299-2.045 3.475 5.7h-4.614z"/>
</svg>