<svg xmlns="http://www.w3.org/2000/svg" xmlns:xlink="http://www.w3.org/1999/xlink" width="60px" height="60px" viewBox="0 0 60 60" version="1.1">
    <!-- Generator: sketchtool 52.5 (67469) - http://www.bohemiancoding.com/sketch -->
    <title>F081EAE5-DC56-4136-BAAC-3A33017F8433</title>
    <desc>Created with sketchtool.</desc>
    <g id="Symbols" stroke="none" stroke-width="1" fill="none" fill-rule="evenodd">
        <g id="udobn_otn_ico" fill="#C777BF" fill-rule="nonzero">
            <path d="M38.3918142,47.1326886 L31.9250899,35.7691569 C30.9874884,34.1432605 30.4921875,32.2878607 30.4921875,30.4023438 C30.4921875,24.472057 35.315807,19.6484375 41.2460938,19.6484375 C47.1763805,19.6484375 52,24.472057 52,30.4023438 C52,32.2893436 51.5035736,34.1467534 50.565852,35.7708659 L44.1004308,47.1325708 C45.3633779,48.0409864 46.140625,49.5071291 46.140625,51.1054688 C46.140625,53.8047068 43.9453318,56 41.2460938,56 C39.2813187,56 37.5353974,54.8255883 36.7640784,53.0703125 L7.359375,53.0703125 C3.85218399,53.0703125 1,50.2181285 1,46.7109375 C1,43.2037465 3.85218399,40.3515625 7.359375,40.3515625 L17.6132812,40.3515625 C19.716823,40.3515625 21.5078125,38.5206903 21.5078125,36.359375 C21.5078125,34.1980597 19.716823,32.3671875 17.6132812,32.3671875 L10.3765466,32.3671875 C9.60522764,34.1224633 7.85930631,35.296875 5.89453125,35.296875 C3.19529317,35.296875 1,33.1015818 1,30.4023438 C1,28.437395 2.17424228,26.6915498 3.9296875,25.9203026 L3.9296875,6.96484375 C3.9296875,5.87960411 4.80929161,5 5.89453125,5 C6.97977089,5 7.859375,5.87960411 7.859375,6.96484375 L7.859375,7.9296875 L19.078125,7.9296875 C20.8266888,7.9296875 21.7021773,10.0494789 20.4673888,11.2837549 L17.4624225,14.2890625 L20.4672956,17.2942769 C21.703942,18.5304121 20.824089,20.6484375 19.078125,20.6484375 L7.859375,20.6484375 L7.859375,25.9203761 C8.98123505,26.4138494 9.88302564,27.3156399 10.3764989,28.4375 L17.6132812,28.4375 C21.9224721,28.4375 25.4375,32.0173 25.4375,36.359375 C25.4375,40.70145 21.9224721,44.28125 17.6132812,44.28125 L7.359375,44.28125 C6.01999306,44.28125 4.9296875,45.3715556 4.9296875,46.7109375 C4.9296875,48.0500797 6.02013481,49.140625 7.359375,49.140625 L36.7641521,49.140625 C37.1173494,48.3378936 37.6814547,47.6441037 38.3918142,47.1326886 Z M7.859375,11.859375 L7.859375,16.71875 L14.3345843,16.71875 L13.2944679,15.6784241 C12.5268636,14.9113315 12.5268636,13.6673052 13.2943144,12.8998544 L14.3345843,11.859375 L7.859375,11.859375 Z M5.89453125,31.3671875 C6.42596026,31.3671875 6.859375,30.9337728 6.859375,30.4023438 C6.859375,29.8709147 6.42596026,29.4375 5.89453125,29.4375 C5.36310224,29.4375 4.9296875,29.8709147 4.9296875,30.4023438 C4.9296875,30.9337728 5.36310224,31.3671875 5.89453125,31.3671875 Z M41.2460938,52.0703125 C41.7775228,52.0703125 42.2109375,51.6368978 42.2109375,51.1054688 C42.2109375,50.5740397 41.7775228,50.140625 41.2460938,50.140625 C40.7146647,50.140625 40.28125,50.5740397 40.28125,51.1054688 C40.28125,51.6368978 40.7146647,52.0703125 41.2460938,52.0703125 Z M47.1549891,33.8194497 C47.7552506,32.779476 48.0703125,31.6016405 48.0703125,30.4023438 C48.0703125,26.6398661 45.0085714,23.578125 41.2460938,23.578125 C37.4836161,23.578125 34.421875,26.6398661 34.421875,30.4023438 C34.421875,31.6006802 34.7364579,32.7789959 35.3321786,33.8106633 L35.3371984,33.8194497 L41.2460938,44.2031011 L47.1549891,33.8194497 Z M41.2460938,32.3671875 C40.16238,32.3671875 39.28125,31.4860575 39.28125,30.4023438 C39.28125,29.31863 40.16238,28.4375 41.2460938,28.4375 C42.3298075,28.4375 43.2109375,29.31863 43.2109375,30.4023438 C43.2109375,31.4860575 42.3298075,32.3671875 41.2460938,32.3671875 Z"/>
        </g>
    </g>
</svg>